SplineFontDB: 3.0
FontName: Muli-SemiBold
FullName: Muli SemiBold
FamilyName: Muli
Weight: SemiBold
Copyright: Digitized data Copyright (c) 2011-2014, vernon adams.
Version: 2
ItalicAngle: 0
UnderlinePosition: 0
UnderlineWidth: 0
Ascent: 800
Descent: 200
UFOAscent: 761.719
UFODescent: -271.484
LayerCount: 2
Layer: 0 0 "Back"  1
Layer: 1 0 "Fore"  0
OS2Version: 0
OS2_WeightWidthSlopeOnly: 0
OS2_UseTypoMetrics: 0
CreationTime: 1395087861
ModificationTime: 1395087885
PfmFamily: 0
TTFWeight: 600
TTFWidth: 5
LineGap: 0
VLineGap: 0
OS2TypoAscent: 1178
OS2TypoAOffset: 0
OS2TypoDescent: -296
OS2TypoDOffset: 0
OS2TypoLinegap: 0
OS2WinAscent: 1178
OS2WinAOffset: 0
OS2WinDescent: 296
OS2WinDOffset: 0
HheadAscent: 1178
HheadAOffset: 0
HheadDescent: -296
HheadDOffset: 0
OS2Vendor: 'NeWT'
Lookup: 258 0 0 "'kern' Horizontal Kerning in Latin lookup 0"  {"'kern' Horizontal Kerning in Latin lookup 0 subtable"  } ['kern' ('latn' <'dflt' > ) ]
MarkAttachClasses: 1
DEI: 91125
LangName: 1033 "" "" "" "" "" "Version 2" "" "Muli is a trademark of Vernon Adams and may be registered in certain jurisdictions." "newtypography" "Vernon Adams" "" "newtypography.co.uk" "newtypography.co.uk" "Copyright (c) 2014, vernon adams.+AAoACgAA-This Font Software is licensed under the SIL Open Font License, Version 1.1.+AAoA-This license is available with a FAQ at:+AAoA-http://scripts.sil.org/OFL+AAoA" "http://scripts.sil.org/OFL" "" "Muli" "SemiBold" 
PickledData: "(dp1
S'com.typemytype.robofont.foreground.layerStrokeColor'
p2
(F0.5
F0
F0.5
F0.69999999999999996
tp3
sS'com.schriftgestaltung.fontMasterID'
p4
S'CAA31E91-2985-420A-82BA-6B4D8404D924'
p5
sS'GSDimensionPlugin.Dimensions'
p6
(dp7
S'CAA31E91-2985-420A-82BA-6B4D8404D924'
p8
(dp9
ssS'com.superpolator.editor.generateInfo'
p10
S'Generated with LTR Superpolator version 120823_1018_beta_'
p11
sS'com.typemytype.robofont.b.layerStrokeColor'
p12
(F1
F0.75
F0
F0.69999999999999996
tp13
sS'com.schriftgestaltung.useNiceNames'
p14
I01

StartChar: A
Encoding: 65 65 0
Width: 700
VWidth: 0
Flags: HW
PickledData: "(dp1
S'org.robofab.postScriptHintData'
p2
(dp3
sS'com.typemytype.robofont.layerData'
p4
(dp5
s."
AnchorPoint: "top" 352 711 basechar 0
LayerCount: 2
Fore
SplineSet
237 281 m 257
 455 281 l 257
 419 383 383 484 347 585 c 257
 310 483 274 382 237 281 c 257
9 0 m 257
 292 711 l 257
 407 711 l 257
 692 0 l 257
 566 0 l 257
 495 182 l 257
 202 182 l 257
 131 0 l 257
 9 0 l 257
EndSplineSet
EndChar

StartChar: AE
Encoding: 198 198 1
Width: 1053
VWidth: 0
Flags: HW
PickledData: "(dp1
S'org.robofab.postScriptHintData'
p2
(dp3
sS'com.typemytype.robofont.layerData'
p4
(dp5
S'b'
(dp6
S'name'
p7
S'AE'
p8
sS'lib'
p9
(dp10
sS'unicodes'
p11
(tsS'width'
p12
F2073.5500000000002
sS'contours'
p13
(tsS'components'
p14
(tsS'anchors'
p15
(tsss."
AnchorPoint: "top" 656 711 basechar 0
LayerCount: 2
Fore
SplineSet
294 271 m 257
 532 271 l 257
 507 612 l 257
 488 612 l 257
 294 271 l 257
10 0 m 257
 428 711 l 257
 946 711 l 257
 946 612 l 257
 620 612 l 257
 637 412 l 257
 939 412 l 257
 939 316 l 257
 649 316 l 257
 669 99 l 257
 959 99 l 257
 959 0 l 257
 555 0 l 257
 540 182 l 257
 250 182 l 257
 146 0 l 257
 10 0 l 257
EndSplineSet
EndChar

StartChar: B
Encoding: 66 66 18
Width: 664
VWidth: 0
Flags: HW
PickledData: "(dp1
S'org.robofab.postScriptHintData'
p2
(dp3
sS'com.typemytype.robofont.layerData'
p4
(dp5
S'b'
(dp6
S'name'
p7
S'B'
sS'lib'
p8
(dp9
sS'unicodes'
p10
(tsS'width'
p11
F1346.45
sS'contours'
p12
(tsS'components'
p13
(tsS'anchors'
p14
(tsss."
AnchorPoint: "top" 317 711 basechar 0
LayerCount: 2
Fore
SplineSet
207 416 m 257
 316 416 l 258
 387 416 458 437 458 519 c 256
 458 599 396 615 297 615 c 258
 207 615 l 257
 207 416 l 257
208 96 m 257
 331 96 l 258
 434 96 490 135 490 208 c 256
 490 297 443 323 323 323 c 258
 208 323 l 257
 208 96 l 257
95 0 m 257
 95 711 l 257
 285 711 l 258
 410 711 577 698 577 534 c 256
 577 468 546 409 472 380 c 257
 563 359 609 291 609 204 c 256
 609 97 526 0 351 0 c 258
 95 0 l 257
EndSplineSet
EndChar

StartChar: C
Encoding: 67 67 20
Width: 691
VWidth: 0
Flags: HW
PickledData: "(dp1
S'org.robofab.postScriptHintData'
p2
(dp3
sS'com.typemytype.robofont.guides'
p4
(tsS'com.typemytype.robofont.layerData'
p5
(dp6
S'b'
(dp7
S'name'
p8
S'C'
sS'lib'
p9
(dp10
sS'unicodes'
p11
(tsS'width'
p12
F1394.1500000000001
sS'contours'
p13
((dp14
S'points'
p15
((dp16
S'segmentType'
p17
S'curve'
p18
sS'x'
F785
sS'smooth'
p19
I01
sS'y'
F-23
s(dp20
S'y'
F-23
sS'x'
F346
sg19
I00
s(dp21
S'y'
F309
sS'x'
F108
sg19
I00
s(dp22
g17
S'curve'
p23
sS'x'
F108
sg19
I01
sS'y'
F713
s(dp24
S'y'
F1125
sS'x'
F108
sg19
I00
s(dp25
S'y'
F1483
sS'x'
F371
sg19
I00
s(dp26
g17
S'curve'
p27
sS'x'
F814
sg19
I01
sS'y'
F1483
s(dp28
S'y'
F1483
sS'x'
F995
sg19
I00
s(dp29
S'y'
F1437
sS'x'
F1144
sg19
I00
s(dp30
g17
S'curve'
p31
sS'x'
F1265
sg19
I00
sS'y'
F1329
s(dp32
g17
S'line'
p33
sS'x'
F1200
sg19
I00
sS'y'
F1219
s(dp34
S'y'
F1295
sS'x'
F1099
sg19
I00
s(dp35
S'y'
F1334
sS'x'
F969
sg19
I00
s(dp36
g17
S'curve'
p37
sS'x'
F833
sg19
I01
sS'y'
F1334
s(dp38
S'y'
F1334
sS'x'
F464
sg19
I00
s(dp39
S'y'
F1022
sS'x'
F291
sg19
I00
s(dp40
g17
S'curve'
p41
sS'x'
F291
sg19
I01
sS'y'
F712
s(dp42
S'y'
F398
sS'x'
F291
sg19
I00
s(dp43
S'y'
F125
sS'x'
F453
sg19
I00
s(dp44
g17
S'curve'
p45
sS'x'
F811
sg19
I01
sS'y'
F125
s(dp46
S'y'
F125
sS'x'
F974
sg19
I00
s(dp47
S'y'
F172
sS'x'
F1134
sg19
I00
s(dp48
g17
S'curve'
p49
sS'x'
F1243
sg19
I00
sS'y'
F268
s(dp50
g17
S'line'
p51
sS'x'
F1301
sg19
I00
sS'y'
F127
s(dp52
S'y'
F28
sS'x'
F1178
sg19
I00
s(dp53
S'y'
F-23
sS'x'
F996
sg19
I00
stp54
stp55
sS'components'
p56
(tsS'anchors'
p57
(tsss."
AnchorPoint: "top" 402 711 basechar 0
LayerCount: 2
Fore
SplineSet
406 -11 m 256
 223 -11 52 114 52 353 c 256
 52 588 215 724 398 724 c 256
 481 724 559 705 630 648 c 257
 586 571 l 257
 524 615 466 628 407 628 c 256
 270 628 170 513 170 354 c 256
 170 187 274 85 412 85 c 256
 476 85 543 105 610 157 c 257
 648 68 l 257
 574 11 491 -11 406 -11 c 256
EndSplineSet
EndChar

StartChar: D
Encoding: 68 68 27
Width: 759
VWidth: 0
Flags: HW
PickledData: "(dp1
S'org.robofab.postScriptHintData'
p2
(dp3
sS'com.typemytype.robofont.layerData'
p4
(dp5
S'b'
(dp6
S'name'
p7
S'D'
sS'lib'
p8
(dp9
sS'unicodes'
p10
(tsS'width'
p11
F1526.5999999999999
sS'contours'
p12
(tsS'components'
p13
(tsS'anchors'
p14
(tsss."
AnchorPoint: "top" 348 711 basechar 0
LayerCount: 2
Fore
SplineSet
95 0 m 257
 95 711 l 257
 278 711 l 258
 557 711 708 595 708 358 c 256
 708 129 567 0 308 0 c 258
 95 0 l 257
207 96 m 257
 314 96 l 258
 495 96 589 191 589 358 c 256
 589 530 495 615 290 615 c 258
 207 615 l 257
 207 96 l 257
EndSplineSet
EndChar

StartChar: uni007F
Encoding: 127 127 28
Width: 742
VWidth: 0
Flags: HW
PickledData: "(dp1
S'org.robofab.postScriptHintData'
p2
(dp3
s."
LayerCount: 2
Fore
SplineSet
92 0 m 257
 92 711 l 257
 651 711 l 257
 651 0 l 257
 92 0 l 257
176 61 m 257
 567 61 l 257
 567 649 l 257
 176 649 l 257
 176 61 l 257
EndSplineSet
EndChar

StartChar: uni0394
Encoding: 916 916 32
Width: 678
VWidth: 0
Flags: HW
PickledData: "(dp1
S'org.robofab.postScriptHintData'
p2
(dp3
s."
LayerCount: 2
Fore
SplineSet
146 89 m 257
 520 89 l 257
 333 583 l 257
 146 89 l 257
30 0 m 257
 30 72 l 257
 288 711 l 257
 396 711 l 257
 648 75 l 257
 648 0 l 257
 30 0 l 257
EndSplineSet
EndChar

StartChar: E
Encoding: 69 69 35
Width: 596
VWidth: 0
Flags: HW
PickledData: "(dp1
S'org.robofab.postScriptHintData'
p2
(dp3
sS'com.typemytype.robofont.layerData'
p4
(dp5
s."
AnchorPoint: "top" 322 711 basechar 0
LayerCount: 2
Fore
SplineSet
95 0 m 257
 95 711 l 257
 535 711 l 257
 535 615 l 257
 207 615 l 257
 207 415 l 257
 516 415 l 257
 516 318 l 257
 208 318 l 257
 208 96 l 257
 549 96 l 257
 549 0 l 257
 95 0 l 257
EndSplineSet
EndChar

StartChar: Eng
Encoding: 330 330 46
Width: 782
VWidth: 0
Flags: HW
PickledData: "(dp1
S'org.robofab.postScriptHintData'
p2
(dp3
sS'com.typemytype.robofont.layerData'
p4
(dp5
s."
LayerCount: 2
Fore
SplineSet
688 711 m 257
 688 20 l 258
 688 -147 598 -222 439 -222 c 257
 439 -135 l 257
 521 -135 581 -110 581 -12 c 258
 581 40 l 257
 254 483 l 257
 199 565 l 257
 199 0 l 257
 93 0 l 257
 93 711 l 257
 214 711 l 257
 526 280 l 257
 581 198 l 257
 581 711 l 257
 688 711 l 257
EndSplineSet
EndChar

StartChar: Euro
Encoding: 8364 8364 50
Width: 728
VWidth: 0
Flags: HW
PickledData: "(dp1
S'org.robofab.postScriptHintData'
p2
(dp3
sS'com.typemytype.robofont.layerData'
p4
(dp5
S'b'
(dp6
S'name'
p7
S'Euro'
p8
sS'lib'
p9
(dp10
sS'unicodes'
p11
(tsS'width'
p12
I1190
sS'contours'
p13
(tsS'components'
p14
(tsS'anchors'
p15
(tsss."
LayerCount: 2
Fore
SplineSet
44 250 m 257
 46 305 l 257
 125 305 l 257
 124 321 123 336 123 353 c 256
 123 372 123 389 125 406 c 257
 43 406 l 257
 46 464 l 257
 136 464 l 257
 178 631 317 724 469 724 c 256
 552 724 630 705 701 648 c 257
 657 571 l 257
 595 615 537 628 478 628 c 256
 375 628 293 564 258 464 c 257
 492 464 l 257
 489 406 l 257
 245 406 l 257
 243 389 241 372 241 354 c 256
 241 337 242 321 244 305 c 257
 475 305 l 257
 471 250 l 257
 256 250 l 257
 290 146 377 85 483 85 c 256
 547 85 614 105 681 157 c 257
 719 68 l 257
 645 11 562 -11 477 -11 c 256
 322 -11 176 78 134 250 c 257
 44 250 l 257
EndSplineSet
EndChar

StartChar: F
Encoding: 70 70 51
Width: 553
VWidth: 0
Flags: HW
PickledData: "(dp1
S'org.robofab.postScriptHintData'
p2
(dp3
sS'com.typemytype.robofont.layerData'
p4
(dp5
s."
AnchorPoint: "top" 315 711 basechar 0
LayerCount: 2
Fore
SplineSet
95 0 m 257
 95 711 l 257
 519 711 l 257
 519 615 l 257
 207 615 l 257
 207 414 l 257
 500 414 l 257
 500 317 l 257
 207 317 l 257
 207 0 l 257
 95 0 l 257
EndSplineSet
EndChar

StartChar: G
Encoding: 71 71 53
Width: 749
VWidth: 0
Flags: HW
PickledData: "(dp1
S'org.robofab.postScriptHintData'
p2
(dp3
sS'com.typemytype.robofont.layerData'
p4
(dp5
S'b'
(dp6
S'name'
p7
S'G'
sS'lib'
p8
(dp9
sS'unicodes'
p10
(tsS'width'
p11
F1528.2
sS'contours'
p12
((dp13
S'points'
p14
((dp15
S'segmentType'
p16
S'curve'
p17
sS'x'
F841
sS'smooth'
p18
I01
sS'y'
F-23
s(dp19
S'y'
F-23
sS'x'
F361
sg18
I00
s(dp20
S'y'
F267
sS'x'
F108
sg18
I00
s(dp21
g16
S'curve'
p22
sS'x'
F108
sg18
I01
sS'y'
F701
s(dp23
S'y'
F1129
sS'x'
F108
sg18
I00
s(dp24
S'y'
F1483
sS'x'
F382
sg18
I00
s(dp25
g16
S'curve'
p26
sS'x'
F852
sg18
I01
sS'y'
F1483
s(dp27
S'y'
F1483
sS'x'
F1059
sg18
I00
s(dp28
S'y'
F1415
sS'x'
F1233
sg18
I00
s(dp29
g16
S'curve'
p30
sS'x'
F1334
sg18
I00
sS'y'
F1308
s(dp31
g16
S'line'
p32
sS'x'
F1262
sg18
I00
sS'y'
F1196
s(dp33
S'y'
F1291
sS'x'
F1164
sg18
I00
s(dp34
S'y'
F1334
sS'x'
F1034
sg18
I00
s(dp35
g16
S'curve'
p36
sS'x'
F848
sg18
I01
sS'y'
F1334
s(dp37
S'y'
F1334
sS'x'
F477
sg18
I00
s(dp38
S'y'
F1033
sS'x'
F286
sg18
I00
s(dp39
g16
S'curve'
p40
sS'x'
F286
sg18
I01
sS'y'
F714
s(dp41
S'y'
F365
sS'x'
F286
sg18
I00
s(dp42
S'y'
F125
sS'x'
F472
sg18
I00
s(dp43
g16
S'curve'
p44
sS'x'
F855
sg18
I01
sS'y'
F125
s(dp45
S'y'
F125
sS'x'
F968
sg18
I00
s(dp46
S'y'
F143
sS'x'
F1088
sg18
I00
s(dp47
g16
S'curve'
p48
sS'x'
F1184
sg18
I00
sS'y'
F182
s(dp49
g16
S'line'
p50
sS'x'
F1184
sg18
I00
sS'y'
F608
s(dp51
g16
S'line'
p52
sS'x'
F811
sg18
I00
sS'y'
F608
s(dp53
g16
S'line'
p54
sS'x'
F811
sg18
I00
sS'y'
F757
s(dp55
g16
S'line'
p56
sS'x'
F1356
sg18
I00
sS'y'
F757
s(dp57
g16
S'line'
p58
sS'x'
F1356
sg18
I00
sS'y'
F81
s(dp59
S'y'
F6
sS'x'
F1195
sg18
I00
s(dp60
S'y'
F-23
sS'x'
F1012
sg18
I00
stp61
stp62
sS'components'
p63
(tsS'anchors'
p64
(tsss."
AnchorPoint: "top" 407 711 basechar 0
LayerCount: 2
Fore
SplineSet
415 -11 m 256
 177 -11 52 131 52 344 c 256
 52 556 195 724 425 724 c 256
 550 724 618 685 661 653 c 257
 616 574 l 257
 575 603 517 628 427 628 c 256
 262 628 169 498 169 349 c 256
 169 194 250 85 419 85 c 256
 463 85 512 91 554 105 c 257
 554 286 l 257
 383 286 l 257
 383 382 l 257
 667 382 l 257
 667 42 l 257
 581 3 497 -11 415 -11 c 256
EndSplineSet
EndChar

StartChar: H
Encoding: 72 72 60
Width: 763
VWidth: 0
Flags: HW
PickledData: "(dp1
S'org.robofab.postScriptHintData'
p2
(dp3
sS'com.typemytype.robofont.layerData'
p4
(dp5
S'b'
(dp6
S'name'
p7
S'H'
sS'lib'
p8
(dp9
sS'unicodes'
p10
(tsS'width'
p11
F1576.45
sS'contours'
p12
(tsS'components'
p13
(tsS'anchors'
p14
(tsss."
AnchorPoint: "top" 379 711 basechar 0
LayerCount: 2
Fore
SplineSet
95 0 m 257
 95 711 l 257
 207 711 l 257
 207 413 l 257
 557 413 l 257
 557 711 l 257
 669 711 l 257
 669 0 l 257
 559 0 l 257
 559 317 l 257
 208 317 l 257
 208 0 l 257
 95 0 l 257
EndSplineSet
EndChar

StartChar: Hbar
Encoding: 294 294 61
Width: 763
VWidth: 0
Flags: HW
PickledData: "(dp1
S'org.robofab.postScriptHintData'
p2
(dp3
sS'com.typemytype.robofont.layerData'
p4
(dp5
S'b'
(dp6
S'name'
p7
S'Hbar'
p8
sS'lib'
p9
(dp10
sS'unicodes'
p11
(tsS'width'
p12
F1532.55
sS'contours'
p13
(tsS'components'
p14
(tsS'anchors'
p15
(tsss."
LayerCount: 2
Fore
SplineSet
44 542 m 257
 44 607 l 257
 714 607 l 257
 714 542 l 257
 44 542 l 257
EndSplineSet
Refer: 60 72 N 1 0 0 1 0 0 2
EndChar

StartChar: I
Encoding: 73 73 63
Width: 291
VWidth: 0
Flags: HW
PickledData: "(dp1
S'org.robofab.postScriptHintData'
p2
(dp3
sS'com.typemytype.robofont.layerData'
p4
(dp5
s."
AnchorPoint: "top" 152 711 basechar 0
LayerCount: 2
Fore
SplineSet
93 0 m 257
 93 711 l 257
 205 711 l 257
 205 0 l 257
 93 0 l 257
EndSplineSet
EndChar

StartChar: J
Encoding: 74 74 77
Width: 440
VWidth: 0
Flags: HW
PickledData: "(dp1
S'org.robofab.postScriptHintData'
p2
(dp3
sS'com.typemytype.robofont.layerData'
p4
(dp5
S'b'
(dp6
S'name'
p7
S'J'
sS'lib'
p8
(dp9
sS'unicodes'
p10
(tsS'width'
p11
F731.54999999999995
sS'contours'
p12
(tsS'components'
p13
(tsS'anchors'
p14
(tsss."
AnchorPoint: "top" 296 711 basechar 0
LayerCount: 2
Fore
SplineSet
161 -162 m 256
 116 -162 65 -150 18 -133 c 257
 36 -47 l 257
 74 -59 110 -66 142 -66 c 256
 214 -66 235 -21 235 56 c 258
 235 711 l 257
 348 711 l 257
 348 59 l 258
 348 -86 280 -162 161 -162 c 256
EndSplineSet
EndChar

StartChar: K
Encoding: 75 75 79
Width: 648
VWidth: 0
Flags: HW
PickledData: "(dp1
S'org.robofab.postScriptHintData'
p2
(dp3
sS'com.typemytype.robofont.layerData'
p4
(dp5
S'b'
(dp6
S'name'
p7
S'K'
sS'lib'
p8
(dp9
sS'unicodes'
p10
(tsS'width'
p11
F1289.95
sS'contours'
p12
(tsS'components'
p13
(tsS'anchors'
p14
(tsss."
AnchorPoint: "top" 337 711 basechar 0
LayerCount: 2
Fore
SplineSet
95 0 m 257
 95 711 l 257
 207 711 l 257
 207 396 l 257
 493 711 l 257
 633 711 l 257
 317 368 l 257
 657 0 l 257
 512 0 l 257
 208 326 l 257
 208 0 l 257
 95 0 l 257
EndSplineSet
EndChar

StartChar: L
Encoding: 76 76 82
Width: 559
VWidth: 0
Flags: HW
PickledData: "(dp1
S'org.robofab.postScriptHintData'
p2
(dp3
sS'com.typemytype.robofont.layerData'
p4
(dp5
s."
AnchorPoint: "top" 170 711 basechar 0
AnchorPoint: "caron.alt" 156 501 basechar 0
LayerCount: 2
Fore
SplineSet
95 0 m 257
 95 711 l 257
 207 711 l 257
 207 96 l 257
 536 96 l 257
 536 0 l 257
 95 0 l 257
EndSplineSet
EndChar

StartChar: Lslash
Encoding: 321 321 88
Width: 562
VWidth: 0
Flags: HW
PickledData: "(dp1
S'org.robofab.postScriptHintData'
p2
(dp3
sS'com.typemytype.robofont.layerData'
p4
(dp5
s."
LayerCount: 2
Fore
SplineSet
21 215 m 257
 21 312 l 257
 325 525 l 257
 325 428 l 257
 21 215 l 257
EndSplineSet
Refer: 82 76 N 1 0 0 1 0 0 2
EndChar

StartChar: M
Encoding: 77 77 89
Width: 957
VWidth: 0
Flags: HW
PickledData: "(dp1
S'org.robofab.postScriptHintData'
p2
(dp3
sS'com.typemytype.robofont.layerData'
p4
(dp5
S'b'
(dp6
S'name'
p7
S'M'
sS'lib'
p8
(dp9
sS'unicodes'
p10
(tsS'width'
p11
F1905.0999999999999
sS'contours'
p12
(tsS'components'
p13
(tsS'anchors'
p14
(tsss."
AnchorPoint: "top" 481 711 basechar 0
LayerCount: 2
Fore
SplineSet
95 0 m 257
 95 711 l 257
 229 711 l 257
 313 522 396 333 480 145 c 257
 563 334 647 522 730 711 c 257
 863 711 l 257
 863 0 l 257
 757 0 l 257
 757 527 l 257
 676 353 600 176 521 0 c 257
 438 0 l 257
 359 175 282 350 203 524 c 257
 203 0 l 257
 95 0 l 257
EndSplineSet
EndChar

StartChar: N
Encoding: 78 78 91
Width: 789
VWidth: 0
Flags: HW
PickledData: "(dp1
S'org.robofab.postScriptHintData'
p2
(dp3
sS'com.typemytype.robofont.layerData'
p4
(dp5
S'b'
(dp6
S'name'
p7
S'N'
sS'lib'
p8
(dp9
sS'unicodes'
p10
(tsS'width'
p11
F1578.1500000000001
sS'contours'
p12
(tsS'components'
p13
(tsS'anchors'
p14
(tsss."
AnchorPoint: "top" 402 711 basechar 0
LayerCount: 2
Fore
SplineSet
95 0 m 257
 95 711 l 257
 214 711 l 257
 339 528 465 347 588 162 c 257
 588 711 l 257
 694 711 l 257
 694 0 l 257
 574 0 l 257
 449 183 321 362 199 548 c 257
 199 0 l 257
 95 0 l 257
EndSplineSet
EndChar

StartChar: O
Encoding: 79 79 98
Width: 807
VWidth: 0
Flags: HW
PickledData: "(dp1
S'org.robofab.postScriptHintData'
p2
(dp3
sS'com.typemytype.robofont.guides'
p4
((dp5
S'y'
I727
sS'x'
I231
sS'magnetic'
p6
I5
sS'angle'
p7
I0
sS'isGlobal'
p8
I00
s(dp9
S'y'
I1254
sS'x'
I804
sg6
I5
sg7
F90
sg8
I00
stp10
sS'com.typemytype.robofont.layerData'
p11
(dp12
S'b'
(dp13
S'name'
p14
S'O'
sS'lib'
p15
(dp16
sS'unicodes'
p17
(tsS'width'
p18
F1630.8
sS'contours'
p19
(tsS'components'
p20
(tsS'anchors'
p21
(tsss."
AnchorPoint: "top" 407 711 basechar 0
LayerCount: 2
Fore
SplineSet
405 -11 m 256
 184 -11 52 133 52 358 c 256
 52 575 184 724 407 724 c 256
 622 724 755 575 755 358 c 256
 755 134 626 -11 405 -11 c 256
403 85 m 256
 558 85 633 190 633 358 c 256
 633 520 558 628 405 628 c 256
 252 628 173 520 173 358 c 256
 173 189 249 85 403 85 c 256
EndSplineSet
EndChar

StartChar: OE
Encoding: 338 338 99
Width: 1002
VWidth: 0
Flags: HW
PickledData: "(dp1
S'org.robofab.postScriptHintData'
p2
(dp3
sS'com.typemytype.robofont.layerData'
p4
(dp5
S'b'
(dp6
S'name'
p7
S'OE'
p8
sS'lib'
p9
(dp10
sS'unicodes'
p11
(tsS'width'
p12
F2049.1500000000001
sS'contours'
p13
(tsS'components'
p14
(tsS'anchors'
p15
(tsss."
LayerCount: 2
Fore
SplineSet
398 78 m 256
 492 78 531 118 537 125 c 257
 537 585 l 257
 515 605 476 628 409 628 c 256
 402 628 394 627 386 627 c 256
 268 620 173 533 173 354 c 256
 173 181 258 78 398 78 c 256
52 357 m 256
 52 585 198 724 390 724 c 256
 491 724 532 685 537 681 c 257
 537 711 l 257
 940 711 l 257
 940 615 l 257
 650 615 l 257
 650 412 l 257
 922 412 l 257
 922 315 l 257
 650 315 l 257
 650 96 l 257
 955 96 l 257
 955 0 l 257
 537 0 l 257
 537 37 l 257
 530 29 479 -10 397 -12 c 257
 384 -12 l 258
 194 -12 52 113 52 357 c 256
EndSplineSet
EndChar

StartChar: uni03A9
Encoding: 937 937 111
Width: 782
VWidth: 0
Flags: HW
PickledData: "(dp1
S'org.robofab.postScriptHintData'
p2
(dp3
sS'com.typemytype.robofont.layerData'
p4
(dp5
s."
LayerCount: 2
Fore
SplineSet
40 0 m 257
 29 88 l 257
 184 88 l 257
 95 160 47 270 47 396 c 256
 47 595 193 723 389 723 c 256
 588 723 726 590 726 395 c 256
 726 267 673 158 587 88 c 257
 737 88 l 257
 728 0 l 257
 445 0 l 257
 445 76 l 257
 539 138 609 253 609 381 c 256
 609 492 554 630 388 630 c 256
 227 630 164 498 164 382 c 256
 164 254 233 137 327 76 c 257
 327 0 l 257
 40 0 l 257
EndSplineSet
EndChar

StartChar: Oslash
Encoding: 216 216 113
Width: 807
VWidth: 0
Flags: HW
PickledData: "(dp1
S'org.robofab.postScriptHintData'
p2
(dp3
sS'com.typemytype.robofont.layerData'
p4
(dp5
S'b'
(dp6
S'name'
p7
S'Oslash'
p8
sS'lib'
p9
(dp10
sS'unicodes'
p11
(tsS'width'
p12
F1663
sS'contours'
p13
(tsS'components'
p14
(tsS'anchors'
p15
(tsss."
LayerCount: 2
Fore
SplineSet
405 -11 m 256
 626 -11 755 134 755 358 c 256
 755 496 701 607 606 669 c 257
 645 741 l 257
 593 766 l 257
 555 696 l 257
 512 714 462 724 407 724 c 256
 184 724 52 575 52 358 c 256
 52 213 107 102 206 41 c 257
 165 -37 l 257
 217 -62 l 257
 257 15 l 257
 300 -2 350 -11 405 -11 c 256
556 575 m 257
 608 528 633 452 633 358 c 256
 633 190 558 85 403 85 c 256
 365 85 333 91 305 103 c 257
 556 575 l 257
508 607 m 257
 255 133 l 257
 200 179 173 257 173 358 c 256
 173 520 252 628 405 628 c 256
 445 628 479 620 508 607 c 257
EndSplineSet
EndChar

StartChar: P
Encoding: 80 80 116
Width: 626
VWidth: 0
Flags: HW
PickledData: "(dp1
S'org.robofab.postScriptHintData'
p2
(dp3
sS'com.typemytype.robofont.layerData'
p4
(dp5
S'b'
(dp6
S'name'
p7
S'P'
sS'lib'
p8
(dp9
sS'unicodes'
p10
(tsS'width'
p11
F1252.6500000000001
sS'contours'
p12
((dp13
S'points'
p14
((dp15
S'segmentType'
p16
S'line'
p17
sS'x'
F360
sS'smooth'
p18
I00
sS'y'
F828
s(dp19
g16
S'line'
p20
sS'x'
F580
sg18
I01
sS'y'
F828
s(dp21
S'y'
F828
sS'x'
F775
sg18
I00
s(dp22
S'y'
F881
sS'x'
F973
sg18
I00
s(dp23
g16
S'curve'
p24
sS'x'
F973
sg18
I01
sS'y'
F1077
s(dp25
S'y'
F1272
sS'x'
F973
sg18
I00
s(dp26
S'y'
F1308
sS'x'
F807
sg18
I00
s(dp27
g16
S'curve'
p28
sS'x'
F592
sg18
I01
sS'y'
F1308
s(dp29
g16
S'line'
p30
sS'x'
F360
sg18
I00
sS'y'
F1308
stp31
s(dp32
g14
((dp33
g16
S'line'
p34
sS'x'
F360
sg18
I00
sS'y'
F148
s(dp35
g16
S'line'
p36
sS'x'
F667
sg18
I01
sS'y'
F148
s(dp37
S'y'
F148
sS'x'
F906
sg18
I00
s(dp38
S'y'
F230
sS'x'
F1041
sg18
I00
s(dp39
g16
S'curve'
p40
sS'x'
F1041
sg18
I01
sS'y'
F406
s(dp41
S'y'
F617
sS'x'
F1041
sg18
I00
s(dp42
S'y'
F680
sS'x'
F889
sg18
I00
s(dp43
g16
S'curve'
p44
sS'x'
F610
sg18
I01
sS'y'
F680
s(dp45
g16
S'line'
p46
sS'x'
F360
sg18
I00
sS'y'
F680
stp47
s(dp48
g14
((dp49
g16
S'line'
p50
sS'x'
F188
sg18
I00
sS'y'
F0
s(dp51
g16
S'line'
p52
sS'x'
F188
sg18
I00
sS'y'
F1456
s(dp53
g16
S'line'
p54
sS'x'
F502
sg18
I01
sS'y'
F1456
s(dp55
S'y'
F1456
sS'x'
F765
sg18
I00
s(dp56
S'y'
F1443
sS'x'
F1154
sg18
I00
s(dp57
g16
S'curve'
p58
sS'x'
F1154
sg18
I01
sS'y'
F1105
s(dp59
S'y'
F944
sS'x'
F1154
sg18
I00
s(dp60
S'y'
F814
sS'x'
F1045
sg18
I00
s(dp61
g16
S'curve'
p62
sS'x'
F889
sg18
I00
sS'y'
F769
s(dp63
S'y'
F734
sS'x'
F1086
sg18
I00
s(dp64
S'y'
F605
sS'x'
F1223
sg18
I00
s(dp65
g16
S'curve'
p66
sS'x'
F1223
sg18
I01
sS'y'
F403
s(dp67
S'y'
F189
sS'x'
F1223
sg18
I00
s(dp68
S'y'
F0
sS'x'
F1059
sg18
I00
s(dp69
g16
S'curve'
p70
sS'x'
F739
sg18
I01
sS'y'
F0
stp71
stp72
sS'components'
p73
(tsS'anchors'
p74
(tsss."
AnchorPoint: "top" 322 711 basechar 0
LayerCount: 2
Fore
SplineSet
207 409 m 257
 322 409 l 258
 416 409 477 427 477 510 c 256
 477 608 409 615 301 615 c 258
 207 615 l 257
 207 409 l 257
95 0 m 257
 95 711 l 257
 297 711 l 258
 464 711 593 690 593 511 c 256
 593 359 489 312 324 312 c 258
 207 312 l 257
 207 0 l 257
 95 0 l 257
EndSplineSet
EndChar

StartChar: Q
Encoding: 81 81 118
Width: 807
VWidth: 0
Flags: HW
PickledData: "(dp1
S'org.robofab.postScriptHintData'
p2
(dp3
sS'com.typemytype.robofont.layerData'
p4
(dp5
S'b'
(dp6
S'name'
p7
S'Q'
sS'lib'
p8
(dp9
sS'unicodes'
p10
(tsS'width'
p11
F1628.2
sS'contours'
p12
(tsS'components'
p13
(tsS'anchors'
p14
(tsss."
LayerCount: 2
Fore
SplineSet
609 -214 m 257
 673 -146 l 257
 673 -146 597 -63 550 14 c 257
 681 65 755 189 755 358 c 256
 755 575 622 724 407 724 c 256
 184 724 52 575 52 358 c 256
 52 133 184 -11 405 -11 c 256
 421 -11 437 -10 452 -9 c 257
 515 -116 609 -214 609 -214 c 257
403 85 m 256
 249 85 173 189 173 358 c 256
 173 520 252 628 405 628 c 256
 558 628 633 520 633 358 c 256
 633 190 558 85 403 85 c 256
EndSplineSet
EndChar

StartChar: R
Encoding: 82 82 119
Width: 669
VWidth: 0
Flags: HW
PickledData: "(dp1
S'org.robofab.postScriptHintData'
p2
(dp3
sS'com.typemytype.robofont.guides'
p4
(tsS'com.typemytype.robofont.layerData'
p5
(dp6
S'b'
(dp7
S'name'
p8
S'R'
sS'lib'
p9
(dp10
sS'unicodes'
p11
(tsS'width'
p12
F1341
sS'contours'
p13
((dp14
S'points'
p15
((dp16
S'segmentType'
p17
S'line'
p18
sS'x'
F360
sS'smooth'
p19
I00
sS'y'
F799
s(dp20
g17
S'line'
p21
sS'x'
F615
sg19
I01
sS'y'
F799
s(dp22
S'y'
F799
sS'x'
F795
sg19
I00
s(dp23
S'y'
F854
sS'x'
F932
sg19
I00
s(dp24
g17
S'curve'
p25
sS'x'
F932
sg19
I01
sS'y'
F1058
s(dp26
S'y'
F1259
sS'x'
F932
sg19
I00
s(dp27
S'y'
F1308
sS'x'
F833
sg19
I00
s(dp28
g17
S'curve'
p29
sS'x'
F626
sg19
I01
sS'y'
F1308
s(dp30
g17
S'line'
p31
sS'x'
F360
sg19
I00
sS'y'
F1308
stp32
s(dp33
g15
((dp34
g17
S'line'
p35
sS'x'
F188
sg19
I00
sS'y'
F0
s(dp36
g17
S'line'
p37
sS'x'
F188
sg19
I00
sS'y'
F1456
s(dp38
g17
S'line'
p39
sS'x'
F533
sg19
I01
sS'y'
F1456
s(dp40
S'y'
F1456
sS'x'
F771
sg19
I00
s(dp41
S'y'
F1452
sS'x'
F1114
sg19
I00
s(dp42
g17
S'curve'
p43
sS'x'
F1114
sg19
I01
sS'y'
F1074
s(dp44
S'y'
F890
sS'x'
F1114
sg19
I00
s(dp45
S'y'
F762
sS'x'
F1035
sg19
I00
s(dp46
g17
S'curve'
p47
sS'x'
F847
sg19
I00
sS'y'
F715
s(dp48
g17
S'line'
p49
sS'x'
F848
sg19
I00
sS'y'
F715
s(dp50
S'y'
F662
sS'x'
F1012
sg19
I00
s(dp51
S'y'
F510
sS'x'
F1039
sg19
I00
s(dp52
g17
S'curve'
p53
sS'x'
F1159
sg19
I01
sS'y'
F214
s(dp54
g17
S'line'
p55
sS'x'
F1246
sg19
I00
sS'y'
F0
s(dp56
g17
S'line'
p57
sS'x'
F1061
sg19
I00
sS'y'
F0
s(dp58
g17
S'line'
p59
sS'x'
F896
sg19
I01
sS'y'
F419
s(dp60
S'y'
F600
sS'x'
F825
sg19
I00
s(dp61
S'y'
F652
sS'x'
F797
sg19
I00
s(dp62
g17
S'curve'
p63
sS'x'
F619
sg19
I01
sS'y'
F652
s(dp64
g17
S'line'
p65
sS'x'
F360
sg19
I00
sS'y'
F652
s(dp66
g17
S'line'
p67
sS'x'
F360
sg19
I00
sS'y'
F0
stp68
stp69
sS'components'
p70
(tsS'anchors'
p71
(tsss."
AnchorPoint: "top" 326 711 basechar 0
LayerCount: 2
Fore
SplineSet
206 403 m 257
 326 403 l 258
 403 403 465 426 465 512 c 256
 465 596 423 615 337 615 c 258
 206 615 l 257
 206 403 l 257
95 0 m 257
 95 711 l 257
 336 711 l 258
 474 711 584 679 584 519 c 256
 584 440 543 372 445 349 c 257
 490 329 521 286 546 224 c 258
 636 0 l 257
 515 0 l 257
 434 211 l 258
 406 286 384 308 313 308 c 258
 207 308 l 257
 207 0 l 257
 95 0 l 257
EndSplineSet
EndChar

StartChar: S
Encoding: 83 83 125
Width: 607
VWidth: 0
Flags: HW
PickledData: "(dp1
S'org.robofab.postScriptHintData'
p2
(dp3
sS'com.typemytype.robofont.layerData'
p4
(dp5
S'b'
(dp6
S'name'
p7
S'S'
sS'lib'
p8
(dp9
sS'unicodes'
p10
(tsS'width'
p11
F1211
sS'contours'
p12
((dp13
S'points'
p14
((dp15
S'segmentType'
p16
S'curve'
p17
sS'x'
F596
sS'smooth'
p18
I01
sS'y'
F-23
s(dp19
S'y'
F-23
sS'x'
F321
sg18
I00
s(dp20
S'y'
F120
sS'x'
F158
sg18
I00
s(dp21
g16
S'curve'
p22
sS'x'
F140
sg18
I00
sS'y'
F141
s(dp23
g16
S'line'
p24
sS'x'
F219
sg18
I00
sS'y'
F271
s(dp25
S'y'
F243
sS'x'
F256
sg18
I00
s(dp26
S'y'
F125
sS'x'
F393
sg18
I00
s(dp27
g16
S'curve'
p28
sS'x'
F595
sg18
I01
sS'y'
F125
s(dp29
S'y'
F125
sS'x'
F797
sg18
I00
s(dp30
S'y'
F204
sS'x'
F898
sg18
I00
s(dp31
g16
S'curve'
p32
sS'x'
F898
sg18
I01
sS'y'
F360
s(dp33
S'y'
F536
sS'x'
F898
sg18
I00
s(dp34
S'y'
F601
sS'x'
F709
sg18
I00
s(dp35
g16
S'curve'
p36
sS'x'
F521
sg18
I01
sS'y'
F681
s(dp37
S'y'
F761
sS'x'
F333
sg18
I00
s(dp38
S'y'
F857
sS'x'
F145
sg18
I00
s(dp39
g16
S'curve'
p40
sS'x'
F145
sg18
I01
sS'y'
F1095
s(dp41
S'y'
F1350
sS'x'
F145
sg18
I00
s(dp42
S'y'
F1483
sS'x'
F357
sg18
I00
s(dp43
g16
S'curve'
p44
sS'x'
F620
sg18
I01
sS'y'
F1483
s(dp45
S'y'
F1483
sS'x'
F891
sg18
I00
s(dp46
S'y'
F1362
sS'x'
F1009
sg18
I00
s(dp47
g16
S'curve'
p48
sS'x'
F1034
sg18
I00
sS'y'
F1335
s(dp49
g16
S'line'
p50
sS'x'
F951
sg18
I00
sS'y'
F1217
s(dp51
S'y'
F1242
sS'x'
F921
sg18
I00
s(dp52
S'y'
F1334
sS'x'
F819
sg18
I00
s(dp53
g16
S'curve'
p54
sS'x'
F640
sg18
I01
sS'y'
F1334
s(dp55
S'y'
F1334
sS'x'
F478
sg18
I00
s(dp56
S'y'
F1270
sS'x'
F328
sg18
I00
s(dp57
g16
S'curve'
p58
sS'x'
F328
sg18
I01
sS'y'
F1105
s(dp59
S'y'
F934
sS'x'
F328
sg18
I00
s(dp60
S'y'
F868
sS'x'
F515
sg18
I00
s(dp61
g16
S'curve'
p62
sS'x'
F703
sg18
I01
sS'y'
F785
s(dp63
S'y'
F702
sS'x'
F891
sg18
I00
s(dp64
S'y'
F602
sS'x'
F1078
sg18
I00
s(dp65
g16
S'curve'
p66
sS'x'
F1078
sg18
I01
sS'y'
F364
s(dp67
S'y'
F78
sS'x'
F1078
sg18
I00
s(dp68
S'y'
F-23
sS'x'
F868
sg18
I00
stp69
stp70
sS'components'
p71
(tsS'anchors'
p72
(tsss."
AnchorPoint: "top" 304 711 basechar 0
LayerCount: 2
Fore
SplineSet
301 -11 m 256
 195 -11 100 29 59 70 c 257
 108 151 l 257
 147 120 228 85 295 85 c 256
 386 85 431 121 431 190 c 256
 431 245 416 272 312 307 c 256
 293 314 270 321 249 328 c 256
 125 369 62 419 62 533 c 256
 62 660 169 724 304 724 c 256
 435 724 494 690 540 645 c 257
 482 570 l 257
 441 610 380 628 320 628 c 256
 243 628 182 600 182 537 c 256
 182 479 198 458 294 425 c 256
 314 419 339 411 360 404 c 256
 505 355 550 302 550 189 c 256
 550 47 432 -11 301 -11 c 256
EndSplineSet
EndChar

StartChar: T
Encoding: 84 84 132
Width: 569
VWidth: 0
Flags: HW
PickledData: "(dp1
S'org.robofab.postScriptHintData'
p2
(dp3
sS'com.typemytype.robofont.layerData'
p4
(dp5
s."
AnchorPoint: "top" 288 711 basechar 0
LayerCount: 2
Fore
SplineSet
228 0 m 257
 228 615 l 257
 5 615 l 257
 5 711 l 257
 564 711 l 257
 564 615 l 257
 340 615 l 257
 340 0 l 257
 228 0 l 257
EndSplineSet
EndChar

StartChar: Thorn
Encoding: 222 222 137
Width: 630
VWidth: 0
Flags: HW
PickledData: "(dp1
S'org.robofab.postScriptHintData'
p2
(dp3
sS'com.typemytype.robofont.layerData'
p4
(dp5
s."
LayerCount: 2
Fore
SplineSet
206 259 m 257
 321 259 l 258
 413 259 473 295 473 378 c 256
 473 477 408 500 301 500 c 258
 206 500 l 257
 206 259 l 257
95 0 m 257
 95 711 l 257
 207 711 l 257
 207 594 l 257
 295 594 l 258
 462 594 593 558 593 378 c 256
 593 226 464 164 309 164 c 258
 206 164 l 257
 206 0 l 257
 95 0 l 257
EndSplineSet
EndChar

StartChar: U
Encoding: 85 85 138
Width: 733
VWidth: 0
Flags: HW
PickledData: "(dp1
S'org.robofab.postScriptHintData'
p2
(dp3
sS'com.typemytype.robofont.layerData'
p4
(dp5
S'b'
(dp6
S'name'
p7
S'U'
sS'lib'
p8
(dp9
sS'unicodes'
p10
(tsS'width'
p11
F1496.9000000000001
sS'contours'
p12
(tsS'components'
p13
(tsS'anchors'
p14
(tsss."
AnchorPoint: "top" 366 711 basechar 0
LayerCount: 2
Fore
SplineSet
367 -11 m 256
 140 -11 81 124 81 285 c 258
 81 711 l 257
 193 711 l 257
 193 281 l 258
 193 136 261 85 367 85 c 256
 471 85 541 136 541 281 c 258
 541 711 l 257
 653 711 l 257
 653 285 l 258
 653 121 590 -11 367 -11 c 256
EndSplineSet
EndChar

StartChar: V
Encoding: 86 86 152
Width: 665
VWidth: 0
Flags: HW
PickledData: "(dp1
S'org.robofab.postScriptHintData'
p2
(dp3
sS'com.typemytype.robofont.layerData'
p4
(dp5
S'b'
(dp6
S'name'
p7
S'V'
sS'lib'
p8
(dp9
sS'unicodes'
p10
(tsS'width'
p11
F1320.1500000000001
sS'contours'
p12
(tsS'components'
p13
(tsS'anchors'
p14
(tsss."
LayerCount: 2
Fore
SplineSet
277 0 m 257
 7 711 l 257
 134 711 l 257
 201 522 266 331 335 143 c 257
 404 331 472 522 540 711 c 257
 658 711 l 257
 390 0 l 257
 277 0 l 257
EndSplineSet
EndChar

StartChar: W
Encoding: 87 87 153
Width: 1001
VWidth: 0
Flags: HW
PickledData: "(dp1
S'org.robofab.postScriptHintData'
p2
(dp3
sS'com.typemytype.robofont.layerData'
p4
(dp5
S'b'
(dp6
S'name'
p7
S'W'
sS'lib'
p8
(dp9
sS'unicodes'
p10
(tsS'width'
p11
F1988.8499999999999
sS'contours'
p12
(tsS'components'
p13
(tsS'anchors'
p14
(tsss."
AnchorPoint: "top" 504 711 basechar 0
LayerCount: 2
Fore
SplineSet
207 0 m 257
 8 711 l 257
 128 711 l 257
 177 519 230 328 276 133 c 257
 329 330 392 519 450 711 c 257
 559 711 l 257
 695 274 l 257
 736 131 l 257
 780 327 831 518 878 711 c 257
 994 711 l 257
 800 0 l 257
 669 0 l 257
 501 557 l 257
 335 0 l 257
 207 0 l 257
EndSplineSet
EndChar

StartChar: X
Encoding: 88 88 158
Width: 656
VWidth: 0
Flags: HW
PickledData: "(dp1
S'org.robofab.postScriptHintData'
p2
(dp3
sS'com.typemytype.robofont.layerData'
p4
(dp5
S'b'
(dp6
S'name'
p7
S'X'
sS'lib'
p8
(dp9
sS'unicodes'
p10
(tsS'width'
p11
F1257.7
sS'contours'
p12
(tsS'components'
p13
(tsS'anchors'
p14
(tsss."
LayerCount: 2
Fore
SplineSet
9 0 m 257
 264 360 l 257
 23 711 l 257
 162 711 l 257
 334 455 l 257
 513 711 l 257
 642 711 l 257
 398 365 l 257
 649 0 l 257
 511 0 l 257
 328 271 l 257
 142 0 l 257
 9 0 l 257
EndSplineSet
EndChar

StartChar: Y
Encoding: 89 89 159
Width: 614
VWidth: 0
Flags: HW
PickledData: "(dp1
S'org.robofab.postScriptHintData'
p2
(dp3
sS'com.typemytype.robofont.layerData'
p4
(dp5
S'b'
(dp6
S'name'
p7
S'Y'
sS'lib'
p8
(dp9
sS'unicodes'
p10
(tsS'width'
p11
F1225.45
sS'contours'
p12
(tsS'components'
p13
(tsS'anchors'
p14
(tsss."
AnchorPoint: "top" 319 711 basechar 0
LayerCount: 2
Fore
SplineSet
249 0 m 257
 249 277 l 257
 -1 711 l 257
 125 711 l 257
 307 376 l 257
 488 711 l 257
 617 711 l 257
 361 278 l 257
 361 0 l 257
 249 0 l 257
EndSplineSet
EndChar

StartChar: Z
Encoding: 90 90 166
Width: 582
VWidth: 0
Flags: HW
PickledData: "(dp1
S'org.robofab.postScriptHintData'
p2
(dp3
sS'com.typemytype.robofont.layerData'
p4
(dp5
S'b'
(dp6
S'name'
p7
S'Z'
sS'lib'
p8
(dp9
sS'unicodes'
p10
(tsS'width'
p11
F1179.45
sS'contours'
p12
(tsS'components'
p13
(tsS'anchors'
p14
(tsss."
AnchorPoint: "top" 303 711 basechar 0
LayerCount: 2
Fore
SplineSet
40 0 m 257
 40 61 l 257
 385 615 l 257
 53 615 l 257
 53 711 l 257
 539 711 l 257
 539 652 l 257
 190 96 l 257
 537 96 l 257
 537 0 l 257
 40 0 l 257
EndSplineSet
EndChar

StartChar: a
Encoding: 97 97 170
Width: 626
VWidth: 0
Flags: HW
PickledData: "(dp1
S'org.robofab.postScriptHintData'
p2
(dp3
sS'com.typemytype.robofont.layerData'
p4
(dp5
S'b'
(dp6
S'name'
p7
S'a'
sS'lib'
p8
(dp9
sS'unicodes'
p10
(tsS'width'
p11
I1268
sS'contours'
p12
((dp13
S'points'
p14
((dp15
S'segmentType'
p16
S'curve'
p17
sS'x'
F595
sS'smooth'
p18
I01
sS'y'
F-22
s(dp19
S'y'
F-22
sS'x'
F262
sg18
I00
s(dp20
S'y'
F221
sS'x'
F100
sg18
I00
s(dp21
g16
S'curve'
p22
sS'x'
F100
sg18
I01
sS'y'
F518
s(dp23
S'y'
F824
sS'x'
F100
sg18
I00
s(dp24
S'y'
F1052
sS'x'
F287
sg18
I00
s(dp25
g16
S'curve'
p26
sS'x'
F603
sg18
I01
sS'y'
F1052
s(dp27
S'y'
F1052
sS'x'
F816
sg18
I00
s(dp28
S'y'
F903
sS'x'
F905
sg18
I00
s(dp29
g16
S'curve'
p30
sS'x'
F928
sg18
I00
sS'y'
F847
s(dp31
g16
S'line'
p32
sS'x'
F928
sg18
I00
sS'y'
F1026
s(dp33
g16
S'line'
p34
sS'x'
F1092
sg18
I00
sS'y'
F1026
s(dp35
g16
S'line'
p36
sS'x'
F1092
sg18
I00
sS'y'
F0
s(dp37
g16
S'line'
p38
sS'x'
F928
sg18
I00
sS'y'
F0
s(dp39
g16
S'line'
p40
sS'x'
F928
sg18
I00
sS'y'
F185
s(dp41
S'y'
F82
sS'x'
F881
sg18
I00
s(dp42
S'y'
F-22
sS'x'
F769
sg18
I00
stp43
s(dp44
g14
((dp45
g16
S'curve'
p46
sS'x'
F608
sg18
I01
sS'y'
F918
s(dp47
S'y'
F918
sS'x'
F359
sg18
I00
s(dp48
S'y'
F725
sS'x'
F270
sg18
I00
s(dp49
g16
S'curve'
p50
sS'x'
F270
sg18
I01
sS'y'
F516
s(dp51
S'y'
F308
sS'x'
F270
sg18
I00
s(dp52
S'y'
F112
sS'x'
F364
sg18
I00
s(dp53
g16
S'curve'
p54
sS'x'
F609
sg18
I01
sS'y'
F112
s(dp55
S'y'
F112
sS'x'
F813
sg18
I00
s(dp56
S'y'
F277
sS'x'
F934
sg18
I00
s(dp57
g16
S'curve'
p58
sS'x'
F934
sg18
I01
sS'y'
F526
s(dp59
S'y'
F734
sS'x'
F934
sg18
I00
s(dp60
S'y'
F918
sS'x'
F826
sg18
I00
stp61
stp62
sS'components'
p63
(tsS'anchors'
p64
(tsss."
AnchorPoint: "top" 312 501 basechar 0
LayerCount: 2
Fore
SplineSet
309 78 m 256
 409 78 451 151 451 252 c 256
 451 351 405 425 307 425 c 256
 206 425 160 351 160 251 c 256
 160 154 206 78 309 78 c 256
293 -11 m 256
 131 -11 51 116 51 247 c 256
 51 387 137 514 295 514 c 256
 364 514 417 481 447 436 c 257
 447 501 l 257
 554 501 l 257
 554 0 l 257
 445 0 l 257
 445 75 l 257
 417 26 363 -11 293 -11 c 256
EndSplineSet
EndChar

StartChar: acute
Encoding: 180 180 175
Width: 296
VWidth: 0
Flags: HW
PickledData: "(dp1
S'org.robofab.postScriptHintData'
p2
(dp3
s."
AnchorPoint: "top" 72 501 mark 0
LayerCount: 2
Fore
SplineSet
25 571 m 257
 149 737 l 257
 290 737 l 257
 123 571 l 257
 25 571 l 257
EndSplineSet
EndChar

StartChar: ae
Encoding: 230 230 179
Width: 870
VWidth: 0
Flags: HW
PickledData: "(dp1
S'org.robofab.postScriptHintData'
p2
(dp3
sS'com.typemytype.robofont.layerData'
p4
(dp5
S'b'
(dp6
S'name'
p7
S'ae'
p8
sS'lib'
p9
(dp10
sS'unicodes'
p11
(tsS'width'
p12
F1790.05
sS'contours'
p13
(tsS'components'
p14
((dp15
S'transformation'
p16
(I1
I0
I0
I1
I642
I0
tp17
sS'baseGlyph'
p18
S'e'
stp19
sS'anchors'
p20
(tsss."
AnchorPoint: "top" 437 501 basechar 0
LayerCount: 2
Fore
SplineSet
721 306 m 257
 716 386 668 431 606 431 c 256
 533 431 492 374 479 306 c 257
 721 306 l 257
236 77 m 256
 335 77 370 157 371 232 c 257
 312 232 l 258
 227 232 145 212 145 146 c 256
 145 95 188 77 236 77 c 256
617 -11 m 256
 529 -11 459 24 423 96 c 257
 387 25 310 -12 229 -12 c 256
 115 -12 38 44 38 142 c 256
 38 280 153 308 352 308 c 258
 370 308 l 257
 370 378 330 427 254 427 c 256
 210 427 156 411 107 388 c 257
 76 462 l 257
 93 472 164 514 275 514 c 256
 330 514 405 483 434 420 c 257
 470 480 537 514 604 514 c 256
 750 514 817 400 817 254 c 256
 817 245 815 232 815 232 c 257
 478 232 l 257
 478 221 l 257
 484 125 532 78 622 78 c 256
 708 78 776 131 776 131 c 257
 807 52 l 257
 807 52 732 -11 617 -11 c 256
EndSplineSet
EndChar

StartChar: ampersand
Encoding: 38 38 185
Width: 765
VWidth: 0
Flags: HW
PickledData: "(dp1
S'org.robofab.postScriptHintData'
p2
(dp3
sS'com.typemytype.robofont.layerData'
p4
(dp5
S'b'
(dp6
S'name'
p7
S'ampersand'
p8
sS'lib'
p9
(dp10
sS'unicodes'
p11
(tsS'width'
p12
F1539.95
sS'contours'
p13
(tsS'components'
p14
(tsS'anchors'
p15
(tsss."
LayerCount: 2
Fore
SplineSet
296 461 m 257
 340 489 380 524 380 567 c 256
 380 613 344 630 313 630 c 256
 274 630 245 609 245 566 c 256
 245 526 263 494 296 461 c 257
307 82 m 256
 374 82 420 111 459 149 c 257
 276 347 l 257
 218 314 168 276 168 205 c 256
 168 134 226 82 307 82 c 256
307 -13 m 256
 167 -13 58 68 58 204 c 256
 58 309 131 367 214 416 c 257
 168 467 138 508 138 569 c 256
 138 668 216 719 309 719 c 256
 398 719 486 673 486 572 c 256
 486 498 427 438 360 396 c 257
 517 224 l 257
 554 290 571 370 571 453 c 257
 672 433 l 257
 672 333 639 223 587 146 c 257
 630 101 685 73 740 57 c 257
 668 -7 l 257
 605 3 567 35 524 80 c 257
 472 29 400 -13 307 -13 c 256
EndSplineSet
EndChar

StartChar: approxequal
Encoding: 8776 8776 187
Width: 659
VWidth: 0
Flags: HW
PickledData: "(dp1
S'org.robofab.postScriptHintData'
p2
(dp3
sS'com.typemytype.robofont.layerData'
p4
(dp5
s."
LayerCount: 2
Fore
SplineSet
138 90 m 257
 62 120 l 257
 88 219 139 257 210 257 c 256
 252 257 298 240 345 220 c 256
 388 203 424 188 448 188 c 256
 482 188 499 209 515 267 c 257
 591 240 l 257
 567 141 526 101 451 101 c 256
 411 101 367 115 309 140 c 256
 273 155 238 168 214 168 c 256
 175 168 155 146 138 90 c 257
138 329 m 257
 62 357 l 257
 87 457 137 495 209 495 c 256
 250 495 293 481 343 458 c 256
 387 438 423 426 447 426 c 256
 481 426 499 447 514 505 c 257
 591 479 l 257
 568 379 526 338 451 338 c 256
 410 338 366 352 308 377 c 256
 271 393 237 407 213 407 c 256
 174 407 156 384 138 329 c 257
EndSplineSet
EndChar

StartChar: asciicircum
Encoding: 94 94 190
Width: 773
VWidth: 0
Flags: HW
PickledData: "(dp1
S'org.robofab.postScriptHintData'
p2
(dp3
sS'com.typemytype.robofont.layerData'
p4
(dp5
S'b'
(dp6
S'name'
p7
S'asciicircum'
p8
sS'lib'
p9
(dp10
sS'unicodes'
p11
(tsS'width'
p12
F1623.3499999999999
sS'contours'
p13
(tsS'components'
p14
(tsS'anchors'
p15
(tsss."
LayerCount: 2
Fore
SplineSet
106 266 m 257
 351 711 l 257
 420 711 l 257
 668 266 l 257
 559 266 l 257
 384 588 l 257
 217 266 l 257
 106 266 l 257
EndSplineSet
EndChar

StartChar: asciitilde
Encoding: 126 126 191
Width: 688
VWidth: 0
Flags: HW
PickledData: "(dp1
S'org.robofab.postScriptHintData'
p2
(dp3
sS'com.typemytype.robofont.layerData'
p4
(dp5
s."
LayerCount: 2
Fore
SplineSet
160 177 m 257
 84 213 l 257
 108 308 157 349 230 349 c 256
 270 349 319 333 368 313 c 256
 404 300 447 284 470 284 c 256
 505 284 524 310 536 365 c 257
 616 335 l 257
 592 235 549 192 475 192 c 256
 439 192 394 208 341 228 c 256
 309 240 262 258 236 258 c 256
 195 258 176 231 160 177 c 257
EndSplineSet
EndChar

StartChar: asterisk
Encoding: 42 42 192
Width: 525
VWidth: 0
Flags: HW
PickledData: "(dp1
S'org.robofab.postScriptHintData'
p2
(dp3
sS'com.typemytype.robofont.guides'
p4
((dp5
S'y'
I1149
sS'x'
I567
sS'magnetic'
p6
I5
sS'angle'
p7
I0
sS'isGlobal'
p8
I00
stp9
sS'com.typemytype.robofont.layerData'
p10
(dp11
S'b'
(dp12
S'name'
p13
S'asterisk'
p14
sS'lib'
p15
(dp16
sS'unicodes'
p17
(tsS'width'
p18
F1107.9000000000001
sS'contours'
p19
(tsS'components'
p20
(tsS'anchors'
p21
(tsss."
LayerCount: 2
Fore
SplineSet
337 327 m 257
 256 451 l 257
 176 328 l 257
 94 383 l 257
 196 497 l 257
 62 546 l 257
 98 626 l 257
 219 566 l 257
 204 711 l 257
 306 711 l 257
 293 566 l 257
 412 626 l 257
 450 546 l 257
 316 497 l 257
 418 381 l 257
 337 327 l 257
EndSplineSet
EndChar

StartChar: at
Encoding: 64 64 193
Width: 876
VWidth: 0
Flags: HW
PickledData: "(dp1
S'org.robofab.postScriptHintData'
p2
(dp3
sS'com.typemytype.robofont.layerData'
p4
(dp5
S'b'
(dp6
S'name'
p7
S'at'
p8
sS'lib'
p9
(dp10
sS'unicodes'
p11
(tsS'width'
p12
F1771.2
sS'contours'
p13
(tsS'components'
p14
(tsS'anchors'
p15
(tsss."
LayerCount: 2
Fore
SplineSet
410 211 m 256
 480 211 532 305 532 401 c 256
 532 447 506 476 466 476 c 256
 389 476 341 373 341 290 c 256
 341 243 369 211 410 211 c 256
458 -47 m 256
 229 -47 52 97 52 328 c 256
 52 574 241 723 466 723 c 256
 669 723 825 585 825 388 c 256
 825 256 743 124 644 124 c 256
 576 124 539 166 539 226 c 257
 520 172 470 127 396 127 c 256
 320 127 235 186 235 303 c 256
 235 452 357 556 455 556 c 256
 504 556 542 538 557 495 c 257
 568 545 l 257
 663 545 l 257
 615 307 l 258
 606 262 604 242 604 224 c 256
 604 206 613 181 635 181 c 256
 682 181 752 269 752 391 c 256
 752 564 615 650 469 650 c 256
 292 650 143 543 143 328 c 256
 143 123 299 23 465 23 c 256
 545 23 629 47 700 93 c 257
 738 42 l 257
 664 -18 561 -47 458 -47 c 256
EndSplineSet
EndChar

StartChar: b
Encoding: 98 98 195
Width: 626
VWidth: 0
Flags: HW
PickledData: "(dp1
S'org.robofab.postScriptHintData'
p2
(dp3
sS'com.typemytype.robofont.layerData'
p4
(dp5
S'b'
(dp6
S'name'
p7
S'b'
sS'lib'
p8
(dp9
sS'unicodes'
p10
(tsS'width'
p11
F1270.0999999999999
sS'contours'
p12
(tsS'components'
p13
(tsS'anchors'
p14
(tsss."
AnchorPoint: "top" 359 501 basechar 0
LayerCount: 2
Fore
SplineSet
326 78 m 256
 419 78 461 154 461 253 c 256
 461 350 415 425 327 425 c 256
 235 425 181 349 181 251 c 256
 181 154 232 78 326 78 c 256
344 -11 m 256
 267 -11 208 29 185 71 c 257
 185 0 l 257
 74 0 l 257
 77 87 77 118 77 133 c 258
 77 717 l 257
 187 717 l 257
 187 426 l 257
 200 457 250 514 348 514 c 256
 489 514 576 408 576 256 c 256
 576 95 473 -11 344 -11 c 256
EndSplineSet
EndChar

StartChar: backslash
Encoding: 92 92 196
Width: 372
VWidth: 0
Flags: HW
PickledData: "(dp1
S'org.robofab.postScriptHintData'
p2
(dp3
sS'com.typemytype.robofont.layerData'
p4
(dp5
s."
LayerCount: 2
Fore
SplineSet
285 -23 m 257
 -27 711 l 257
 82 711 l 257
 394 -23 l 257
 285 -23 l 257
EndSplineSet
EndChar

StartChar: bar
Encoding: 124 124 197
Width: 296
VWidth: 0
Flags: HW
PickledData: "(dp1
S'org.robofab.postScriptHintData'
p2
(dp3
sS'com.typemytype.robofont.layerData'
p4
(dp5
s."
LayerCount: 2
Fore
SplineSet
96 -227 m 257
 96 741 l 257
 200 741 l 257
 200 -227 l 257
 96 -227 l 257
EndSplineSet
EndChar

StartChar: braceleft
Encoding: 123 123 199
Width: 418
VWidth: 0
Flags: HW
PickledData: "(dp1
S'org.robofab.postScriptHintData'
p2
(dp3
sS'com.typemytype.robofont.layerData'
p4
(dp5
s."
LayerCount: 2
Fore
SplineSet
269 560 m 258
 269 442 l 258
 269 375 232 332 169 322 c 257
 234 309 269 262 269 195 c 258
 269 79 l 258
 269 -1 296 -9 373 -9 c 257
 373 -95 l 257
 203 -95 157 -46 157 75 c 258
 157 189 l 258
 157 257 134 285 68 286 c 257
 68 359 l 257
 131 360 157 387 157 452 c 258
 157 565 l 258
 157 685 199 739 373 739 c 257
 373 654 l 257
 291 654 269 638 269 560 c 258
EndSplineSet
EndChar

StartChar: braceright
Encoding: 125 125 200
Width: 420
VWidth: 0
Flags: HW
PickledData: "(dp1
S'org.robofab.postScriptHintData'
p2
(dp3
sS'com.typemytype.robofont.layerData'
p4
(dp5
s."
LayerCount: 2
Fore
SplineSet
53 -95 m 257
 53 -9 l 257
 135 -9 157 7 157 85 c 258
 157 203 l 258
 157 270 194 313 257 324 c 257
 192 336 157 383 157 450 c 258
 157 566 l 258
 157 646 129 654 53 654 c 257
 53 739 l 257
 223 739 269 691 269 570 c 258
 269 456 l 258
 269 388 292 360 358 359 c 257
 358 286 l 257
 295 285 269 258 269 193 c 258
 269 80 l 258
 269 -40 227 -95 53 -95 c 257
EndSplineSet
EndChar

StartChar: bracketleft
Encoding: 91 91 201
Width: 310
VWidth: 0
Flags: HW
PickledData: "(dp1
S'org.robofab.postScriptHintData'
p2
(dp3
sS'com.typemytype.robofont.layerData'
p4
(dp5
s."
LayerCount: 2
Fore
SplineSet
74 -90 m 257
 74 728 l 257
 278 728 l 257
 278 645 l 257
 184 645 l 257
 184 -7 l 257
 278 -7 l 257
 278 -90 l 257
 74 -90 l 257
EndSplineSet
EndChar

StartChar: bracketright
Encoding: 93 93 202
Width: 310
VWidth: 0
Flags: HW
PickledData: "(dp1
S'org.robofab.postScriptHintData'
p2
(dp3
sS'com.typemytype.robofont.layerData'
p4
(dp5
s."
LayerCount: 2
Fore
SplineSet
50 -90 m 257
 50 -7 l 257
 142 -7 l 257
 142 645 l 257
 50 645 l 257
 50 728 l 257
 252 728 l 257
 252 -90 l 257
 50 -90 l 257
EndSplineSet
EndChar

StartChar: breve
Encoding: 728 728 203
Width: 326
VWidth: 0
Flags: HW
PickledData: "(dp1
S'org.robofab.postScriptHintData'
p2
(dp3
sS'com.typemytype.robofont.layerData'
p4
(dp5
S'b'
(dp6
S'name'
p7
S'breve'
p8
sS'lib'
p9
(dp10
sS'unicodes'
p11
(tsS'width'
p12
F621.60000000000002
sS'contours'
p13
(tsS'components'
p14
(tsS'anchors'
p15
(tsss."
AnchorPoint: "top" 166 501 mark 0
LayerCount: 2
Fore
SplineSet
164 573 m 256
 75 573 22 614 15 711 c 257
 92 711 l 257
 96 661 127 650 164 650 c 256
 200 650 230 661 235 711 c 257
 311 711 l 257
 305 614 252 573 164 573 c 256
EndSplineSet
EndChar

StartChar: brokenbar
Encoding: 166 166 204
Width: 244
VWidth: 0
Flags: HW
PickledData: "(dp1
S'org.robofab.postScriptHintData'
p2
(dp3
sS'com.typemytype.robofont.layerData'
p4
(dp5
s."
LayerCount: 2
Fore
SplineSet
73 292 m 257
 73 741 l 257
 174 741 l 257
 174 292 l 257
 73 292 l 257
74 -227 m 257
 74 200 l 257
 175 200 l 257
 175 -227 l 257
 74 -227 l 257
EndSplineSet
EndChar

StartChar: bullet
Encoding: 8226 8226 205
Width: 482
VWidth: 0
Flags: HW
PickledData: "(dp1
S'org.robofab.postScriptHintData'
p2
(dp3
sS'com.typemytype.robofont.layerData'
p4
(dp5
S'b'
(dp6
S'name'
p7
S'bullet'
p8
sS'lib'
p9
(dp10
sS'unicodes'
p11
(tsS'width'
p12
F989.64999999999998
sS'contours'
p13
(tsS'components'
p14
(tsS'anchors'
p15
(tsss."
LayerCount: 2
Fore
SplineSet
243 179 m 256
 145 179 80 251 80 335 c 256
 80 420 151 493 243 493 c 256
 339 493 408 419 408 335 c 256
 408 250 336 179 243 179 c 256
EndSplineSet
EndChar

StartChar: c
Encoding: 99 99 207
Width: 523
VWidth: 0
Flags: HW
PickledData: "(dp1
S'org.robofab.postScriptHintData'
p2
(dp3
sS'com.typemytype.robofont.layerData'
p4
(dp5
S'b'
(dp6
S'name'
p7
S'c'
sS'lib'
p8
(dp9
sS'unicodes'
p10
(tsS'width'
p11
F1035.55
sS'contours'
p12
((dp13
S'points'
p14
((dp15
S'segmentType'
p16
S'curve'
p17
sS'x'
F605
sS'smooth'
p18
I01
sS'y'
F-22
s(dp19
S'y'
F-22
sS'x'
F302
sg18
I00
s(dp20
S'y'
F180
sS'x'
F98
sg18
I00
s(dp21
g16
S'curve'
p22
sS'x'
F98
sg18
I01
sS'y'
F503
s(dp23
S'y'
F840
sS'x'
F98
sg18
I00
s(dp24
S'y'
F1052
sS'x'
F301
sg18
I00
s(dp25
g16
S'curve'
p26
sS'x'
F624
sg18
I01
sS'y'
F1052
s(dp27
S'y'
F1052
sS'x'
F750
sg18
I00
s(dp28
S'y'
F1001
sS'x'
F871
sg18
I00
s(dp29
g16
S'curve'
p30
sS'x'
F938
sg18
I00
sS'y'
F922
s(dp31
g16
S'line'
p32
sS'x'
F890
sg18
I00
sS'y'
F805
s(dp33
S'y'
F874
sS'x'
F825
sg18
I00
s(dp34
S'y'
F918
sS'x'
F721
sg18
I00
s(dp35
g16
S'curve'
p36
sS'x'
F619
sg18
I01
sS'y'
F918
s(dp37
S'y'
F918
sS'x'
F406
sg18
I00
s(dp38
S'y'
F756
sS'x'
F268
sg18
I00
s(dp39
g16
S'curve'
p40
sS'x'
F268
sg18
I01
sS'y'
F505
s(dp41
S'y'
F260
sS'x'
F268
sg18
I00
s(dp42
S'y'
F112
sS'x'
F407
sg18
I00
s(dp43
g16
S'curve'
p44
sS'x'
F611
sg18
I01
sS'y'
F112
s(dp45
S'y'
F112
sS'x'
F716
sg18
I00
s(dp46
S'y'
F145
sS'x'
F827
sg18
I00
s(dp47
g16
S'curve'
p48
sS'x'
F901
sg18
I00
sS'y'
F202
s(dp49
g16
S'line'
p50
sS'x'
F953
sg18
I00
sS'y'
F87
s(dp51
S'y'
F19
sS'x'
F873
sg18
I00
s(dp52
S'y'
F-22
sS'x'
F747
sg18
I00
stp53
stp54
sS'components'
p55
(tsS'anchors'
p56
(tsss."
AnchorPoint: "top" 306 501 basechar 0
LayerCount: 2
Fore
SplineSet
310 -11 m 256
 147 -11 51 106 51 249 c 256
 51 402 151 514 310 514 c 256
 384 514 443 491 484 449 c 257
 445 378 l 257
 416 404 374 425 320 425 c 256
 225 425 165 361 165 250 c 256
 165 146 224 78 321 78 c 256
 383 78 427 106 450 124 c 257
 484 44 l 257
 433 7 379 -11 310 -11 c 256
EndSplineSet
EndChar

StartChar: caron
Encoding: 711 711 209
Width: 341
VWidth: 0
Flags: HW
PickledData: "(dp1
S'org.robofab.postScriptHintData'
p2
(dp3
s."
AnchorPoint: "top" 176 501 mark 0
LayerCount: 2
Fore
SplineSet
126 566 m 257
 -4 746 l 257
 100 746 l 257
 169 651 l 257
 238 746 l 257
 346 746 l 257
 217 566 l 257
 126 566 l 257
EndSplineSet
EndChar

StartChar: caron.alt
Encoding: 65537 -1 210
Width: 292
VWidth: 0
Flags: HW
PickledData: "(dp1
S'org.robofab.postScriptHintData'
p2
(dp3
s."
AnchorPoint: "caron.alt" 8 501 mark 0
LayerCount: 2
Fore
SplineSet
147 470 m 257
 202 711 l 257
 325 711 l 257
 239 470 l 257
 147 470 l 257
EndSplineSet
EndChar

StartChar: cedilla
Encoding: 184 184 215
Width: 258
VWidth: 0
Flags: HW
PickledData: "(dp1
S'org.robofab.postScriptHintData'
p2
(dp3
sS'com.typemytype.robofont.layerData'
p4
(dp5
S'b'
(dp6
S'name'
p7
S'cedilla'
p8
sS'lib'
p9
(dp10
sS'unicodes'
p11
(tsS'width'
p12
I529
sS'contours'
p13
(tsS'components'
p14
(tsS'anchors'
p15
(tsss."
LayerCount: 2
Fore
SplineSet
113 -232 m 256
 80 -232 41 -224 13 -211 c 257
 20 -147 l 257
 38 -154 70 -163 97 -163 c 256
 128 -163 152 -151 152 -125 c 256
 152 -104 136 -85 76 -81 c 257
 63 -80 l 257
 78 11 l 257
 134 11 l 257
 125 -47 l 257
 207 -54 243 -89 243 -134 c 256
 243 -198 185 -232 113 -232 c 256
EndSplineSet
EndChar

StartChar: cent
Encoding: 162 162 216
Width: 516
VWidth: 0
Flags: HW
PickledData: "(dp1
S'org.robofab.postScriptHintData'
p2
(dp3
sS'com.typemytype.robofont.layerData'
p4
(dp5
S'b'
(dp6
S'name'
p7
S'cent'
p8
sS'lib'
p9
(dp10
sS'unicodes'
p11
(tsS'width'
p12
F1033.2
sS'contours'
p13
(tsS'components'
p14
(tsS'anchors'
p15
(tsss."
LayerCount: 2
Fore
SplineSet
345 -9 m 257
 345 -112 l 257
 292 -112 l 257
 292 -11 l 257
 140 -3 51 111 51 249 c 256
 51 396 144 505 292 513 c 257
 292 610 l 257
 345 610 l 257
 345 512 l 257
 403 506 450 485 484 449 c 257
 445 378 l 257
 421 400 387 418 345 423 c 257
 345 79 l 257
 395 85 429 109 450 124 c 257
 484 44 l 257
 442 14 398 -4 345 -9 c 257
292 80 m 257
 292 423 l 257
 213 411 165 350 165 250 c 256
 165 157 212 92 292 80 c 257
EndSplineSet
EndChar

StartChar: circumflex
Encoding: 710 710 217
Width: 341
VWidth: 0
Flags: HW
PickledData: "(dp1
S'org.robofab.postScriptHintData'
p2
(dp3
sS'com.typemytype.robofont.layerData'
p4
(dp5
S'b'
(dp6
S'name'
p7
S'circumflex'
p8
sS'lib'
p9
(dp10
sS'unicodes'
p11
(tsS'width'
p12
I699
sS'contours'
p13
(tsS'components'
p14
(tsS'anchors'
p15
(tsss."
AnchorPoint: "top" 171 501 mark 0
LayerCount: 2
Fore
SplineSet
-4 566 m 257
 117 746 l 257
 223 746 l 257
 346 566 l 257
 247 566 l 257
 169 662 l 257
 92 566 l 257
 -4 566 l 257
EndSplineSet
EndChar

StartChar: colon
Encoding: 58 58 218
Width: 278
VWidth: 0
Flags: HW
PickledData: "(dp1
S'org.robofab.postScriptHintData'
p2
(dp3
sS'com.typemytype.robofont.layerData'
p4
(dp5
S'b'
(dp6
S'name'
p7
S'colon'
p8
sS'lib'
p9
(dp10
sS'unicodes'
p11
(tsS'width'
p12
F544.60000000000002
sS'contours'
p13
(tsS'components'
p14
(tsS'anchors'
p15
(tsss."
LayerCount: 2
Fore
SplineSet
77 419 m 257
 77 542 l 257
 207 542 l 257
 208 419 l 257
 77 419 l 257
77 -3 m 257
 77 121 l 257
 208 121 l 257
 208 -3 l 257
 77 -3 l 257
EndSplineSet
EndChar

StartChar: comma
Encoding: 44 44 219
Width: 255
VWidth: 0
Flags: HW
PickledData: "(dp1
S'org.robofab.postScriptHintData'
p2
(dp3
sS'com.typemytype.robofont.layerData'
p4
(dp5
S'b'
(dp6
S'name'
p7
S'comma'
p8
sS'lib'
p9
(dp10
sS'unicodes'
p11
(tsS'width'
p12
F491.10000000000002
sS'contours'
p13
(tsS'components'
p14
(tsS'anchors'
p15
(tsss."
LayerCount: 2
Fore
SplineSet
29 -123 m 257
 83 122 l 257
 206 122 l 257
 121 -123 l 257
 29 -123 l 257
EndSplineSet
EndChar

StartChar: copyright
Encoding: 169 169 220
Width: 839
VWidth: 0
Flags: HW
PickledData: "(dp1
S'org.robofab.postScriptHintData'
p2
(dp3
sS'com.typemytype.robofont.layerData'
p4
(dp5
S'b'
(dp6
S'name'
p7
S'copyright'
p8
sS'lib'
p9
(dp10
sS'unicodes'
p11
(tsS'width'
p12
I1733
sS'contours'
p13
(tsS'components'
p14
(tsS'anchors'
p15
(tsss."
LayerCount: 2
Fore
SplineSet
419 -11 m 256
 217 -11 52 154 52 356 c 256
 52 559 217 724 419 724 c 256
 622 724 788 559 788 356 c 256
 788 154 622 -11 419 -11 c 256
419 42 m 256
 589 42 725 185 725 355 c 256
 725 525 589 669 419 669 c 256
 249 669 114 525 114 355 c 256
 114 185 249 42 419 42 c 256
430 140 m 256
 301 140 216 235 216 353 c 256
 216 479 299 571 430 571 c 256
 491 571 539 553 573 518 c 257
 541 459 l 257
 517 480 482 498 438 498 c 256
 361 498 310 445 310 353 c 256
 310 266 361 213 439 213 c 256
 488 213 524 235 545 252 c 257
 574 187 l 257
 530 155 485 140 430 140 c 256
EndSplineSet
EndChar

StartChar: currency
Encoding: 164 164 221
Width: 594
VWidth: 0
Flags: HW
PickledData: "(dp1
S'org.robofab.postScriptHintData'
p2
(dp3
s."
LayerCount: 2
Fore
SplineSet
297 347 m 256
 382 347 445 414 445 499 c 256
 445 584 382 650 297 650 c 256
 212 650 150 584 150 499 c 256
 150 414 212 347 297 347 c 256
83 265 m 257
 59 290 l 257
 150 381 l 257
 123 413 107 455 107 500 c 256
 107 547 124 590 153 623 c 257
 58 718 l 257
 83 743 l 257
 179 647 l 257
 211 672 253 688 298 688 c 256
 343 688 384 673 417 648 c 257
 512 743 l 257
 537 718 l 257
 442 624 l 257
 471 591 489 548 489 500 c 256
 489 455 473 413 446 380 c 257
 537 290 l 257
 512 265 l 257
 421 356 l 257
 388 329 345 312 298 312 c 256
 251 312 208 328 175 356 c 257
 83 265 l 257
EndSplineSet
EndChar

StartChar: d
Encoding: 100 100 222
Width: 618
VWidth: 0
Flags: HW
PickledData: "(dp1
S'org.robofab.postScriptHintData'
p2
(dp3
sS'com.typemytype.robofont.layerData'
p4
(dp5
S'b'
(dp6
S'name'
p7
S'd'
sS'lib'
p8
(dp9
sS'unicodes'
p10
(tsS'width'
p11
F1265.05
sS'contours'
p12
(tsS'components'
p13
(tsS'anchors'
p14
(tsss."
AnchorPoint: "top" 273 501 basechar 0
AnchorPoint: "caron.alt" 451 501 basechar 0
LayerCount: 2
Fore
SplineSet
300 78 m 256
 394 78 436 154 436 253 c 256
 436 349 392 425 301 425 c 256
 210 425 165 350 165 251 c 256
 165 155 207 78 300 78 c 256
280 -11 m 256
 151 -11 51 89 51 248 c 256
 51 395 134 514 288 514 c 256
 367 514 417 470 433 440 c 257
 433 717 l 257
 542 717 l 257
 542 132 l 258
 542 113 543 94 546 0 c 257
 435 0 l 257
 434 72 l 257
 420 38 371 -11 280 -11 c 256
EndSplineSet
EndChar

StartChar: dagger
Encoding: 8224 8224 223
Width: 499
VWidth: 0
Flags: HW
PickledData: "(dp1
S'org.robofab.postScriptHintData'
p2
(dp3
sS'com.typemytype.robofont.layerData'
p4
(dp5
s."
LayerCount: 2
Fore
SplineSet
203 31 m 257
 203 429 l 257
 44 429 l 257
 44 512 l 257
 203 512 l 257
 203 701 l 257
 292 701 l 257
 292 512 l 257
 455 512 l 257
 455 429 l 257
 291 429 l 257
 291 31 l 257
 203 31 l 257
EndSplineSet
EndChar

StartChar: daggerdbl
Encoding: 8225 8225 224
Width: 556
VWidth: 0
Flags: HW
PickledData: "(dp1
S'org.robofab.postScriptHintData'
p2
(dp3
sS'com.typemytype.robofont.layerData'
p4
(dp5
S'b'
(dp6
S'name'
p7
S'daggerdbl'
p8
sS'lib'
p9
(dp10
sS'unicodes'
p11
(tsS'width'
p12
F1092.6500000000001
sS'contours'
p13
(tsS'components'
p14
(tsS'anchors'
p15
(tsss."
LayerCount: 2
Fore
SplineSet
69 513 m 257
 233 513 l 257
 233 711 l 257
 329 711 l 257
 329 513 l 257
 490 513 l 257
 490 439 l 257
 329 439 l 257
 329 256 l 257
 486 256 l 257
 486 185 l 257
 329 185 l 257
 329 -23 l 257
 233 -23 l 257
 233 185 l 257
 67 185 l 257
 67 256 l 257
 233 256 l 257
 233 439 l 257
 69 439 l 257
 69 513 l 257
EndSplineSet
EndChar

StartChar: degree
Encoding: 176 176 228
Width: 426
VWidth: 0
Flags: HW
PickledData: "(dp1
S'org.robofab.postScriptHintData'
p2
(dp3
sS'com.typemytype.robofont.layerData'
p4
(dp5
S'b'
(dp6
S'name'
p7
S'degree'
p8
sS'lib'
p9
(dp10
sS'unicodes'
p11
(tsS'width'
p12
F856.60000000000002
sS'contours'
p13
(tsS'components'
p14
(tsS'anchors'
p15
(tsss."
LayerCount: 2
Fore
SplineSet
213 416 m 256
 130 416 62 481 62 564 c 256
 62 647 130 713 213 713 c 256
 297 713 365 647 365 564 c 256
 365 481 297 416 213 416 c 256
213 478 m 256
 263 478 298 515 298 564 c 256
 298 612 263 650 213 650 c 256
 164 650 129 612 129 564 c 256
 129 515 164 478 213 478 c 256
EndSplineSet
EndChar

StartChar: dieresis
Encoding: 168 168 229
Width: 362
VWidth: 0
Flags: HW
PickledData: "(dp1
S'org.robofab.postScriptHintData'
p2
(dp3
s."
AnchorPoint: "top" 183 501 mark 0
LayerCount: 2
Fore
SplineSet
232 569 m 257
 232 674 l 257
 342 674 l 257
 342 569 l 257
 232 569 l 257
20 569 m 257
 20 674 l 257
 129 674 l 257
 129 569 l 257
 20 569 l 257
EndSplineSet
EndChar

StartChar: divide
Encoding: 247 247 230
Width: 691
VWidth: 0
Flags: HW
PickledData: "(dp1
S'org.robofab.postScriptHintData'
p2
(dp3
sS'com.typemytype.robofont.layerData'
p4
(dp5
s."
LayerCount: 2
Fore
SplineSet
280 415 m 257
 280 539 l 257
 394 539 l 257
 394 415 l 257
 280 415 l 257
81 224 m 257
 81 315 l 257
 588 315 l 257
 588 224 l 257
 81 224 l 257
281 -3 m 257
 281 121 l 257
 395 121 l 257
 395 -3 l 257
 281 -3 l 257
EndSplineSet
EndChar

StartChar: dollar
Encoding: 36 36 232
Width: 596
VWidth: 0
Flags: HW
PickledData: "(dp1
S'org.robofab.postScriptHintData'
p2
(dp3
sS'com.typemytype.robofont.layerData'
p4
(dp5
S'b'
(dp6
S'name'
p7
S'dollar'
p8
sS'lib'
p9
(dp10
sS'unicodes'
p11
(tsS'width'
p12
F1200.0999999999999
sS'contours'
p13
(tsS'components'
p14
(tsS'anchors'
p15
(tsss."
LayerCount: 2
Fore
SplineSet
288 626 m 257
 227 619 182 591 182 537 c 256
 182 481 198 459 288 427 c 257
 288 626 l 257
333 724 m 257
 444 719 497 687 540 645 c 257
 482 570 l 257
 444 607 388 625 333 627 c 257
 333 413 l 257
 342 410 351 407 360 404 c 256
 505 355 550 302 550 189 c 256
 550 59 451 -1 333 -10 c 257
 333 -103 l 257
 288 -103 l 257
 288 -11 l 257
 187 -8 98 31 59 70 c 257
 108 151 l 257
 145 121 223 87 288 85 c 257
 288 315 l 257
 275 319 262 324 249 328 c 256
 125 369 62 419 62 533 c 256
 62 656 161 719 288 724 c 257
 288 795 l 257
 333 795 l 257
 333 724 l 257
333 87 m 257
 398 96 431 131 431 190 c 256
 431 241 418 268 333 300 c 257
 333 87 l 257
EndSplineSet
EndChar

StartChar: dotaccent
Encoding: 729 729 233
Width: 255
VWidth: 0
Flags: HW
PickledData: "(dp1
S'org.robofab.postScriptHintData'
p2
(dp3
sS'com.typemytype.robofont.layerData'
p4
(dp5
S'b'
(dp6
S'name'
p7
S'dotaccent'
p8
sS'lib'
p9
(dp10
sS'unicodes'
p11
(tsS'width'
p12
F524
sS'contours'
p13
(tsS'components'
p14
(tsS'anchors'
p15
(tsss."
AnchorPoint: "top" 126 501 mark 0
LayerCount: 2
Fore
SplineSet
71 596 m 257
 71 698 l 257
 180 698 l 257
 180 596 l 257
 71 596 l 257
EndSplineSet
EndChar

StartChar: dotlessi
Encoding: 305 305 234
Width: 254
VWidth: 0
Flags: HW
PickledData: "(dp1
S'org.robofab.postScriptHintData'
p2
(dp3
sS'com.typemytype.robofont.layerData'
p4
(dp5
s."
AnchorPoint: "top" 125 501 basechar 0
LayerCount: 2
Fore
SplineSet
70 0 m 257
 70 501 l 257
 180 501 l 257
 180 0 l 257
 70 0 l 257
EndSplineSet
EndChar

StartChar: uni0237
Encoding: 567 567 235
Width: 265
VWidth: 0
Flags: HW
PickledData: "(dp1
S'org.robofab.postScriptHintData'
p2
(dp3
s."
AnchorPoint: "top" 144 501 basechar 0
LayerCount: 2
Fore
SplineSet
27 -192 m 256
 -10 -192 -39 -185 -49 -183 c 257
 -43 -102 l 257
 -34 -104 -10 -109 13 -109 c 256
 63 -109 90 -78 90 16 c 258
 90 501 l 257
 196 501 l 257
 196 27 l 258
 196 -85 171 -192 27 -192 c 256
EndSplineSet
EndChar

StartChar: e
Encoding: 101 101 238
Width: 580
VWidth: 0
Flags: HW
PickledData: "(dp1
S'org.robofab.postScriptHintData'
p2
(dp3
sS'com.fontlab.hintData'
p4
(dp5
S'vhints'
p6
((dp7
S'position'
p8
I106
sS'width'
p9
I195
stp10
sS'hhints'
p11
((dp12
g8
I-22
sg9
I154
s(dp13
g8
I486
sg9
I131
s(dp14
g8
I901
sg9
I151
stp15
ssS'com.typemytype.robofont.layerData'
p16
(dp17
S'b'
(dp18
S'name'
p19
S'e'
sS'lib'
p20
(dp21
sS'unicodes'
p22
(tsg9
F1169.75
sS'contours'
p23
(tsS'components'
p24
(tsS'anchors'
p25
(tsssS'com.typemytype.robofont.guides'
p26
(ts."
HStem: -11 75 237 64 440 74
VStem: 52 95
AnchorPoint: "top" 309 501 basechar 0
LayerCount: 2
Fore
SplineSet
167 307 m 257
 426 307 l 257
 417 387 373 428 308 428 c 256
 234 428 182 383 167 307 c 257
317 -11 m 256
 151 -11 51 95 51 250 c 256
 51 395 147 514 303 514 c 256
 457 514 524 400 524 255 c 256
 524 251 523 243 521 233 c 257
 165 233 l 257
 169 127 235 78 326 78 c 256
 382 78 434 95 483 132 c 257
 514 52 l 257
 457 9 393 -11 317 -11 c 256
EndSplineSet
EndChar

StartChar: eight
Encoding: 56 56 247
Width: 614
VWidth: 0
Flags: HW
PickledData: "(dp1
S'org.robofab.postScriptHintData'
p2
(dp3
sS'com.typemytype.robofont.layerData'
p4
(dp5
S'b'
(dp6
S'name'
p7
S'eight'
p8
sS'lib'
p9
(dp10
sS'unicodes'
p11
(tsS'width'
p12
F1235.45
sS'contours'
p13
(tsS'components'
p14
(tsS'anchors'
p15
(tsss."
LayerCount: 2
Fore
SplineSet
308 416 m 257
 378 435 420 479 420 541 c 256
 420 599 369 631 307 631 c 256
 244 631 194 600 194 537 c 256
 194 478 238 433 308 416 c 257
308 83 m 256
 383 83 436 118 436 194 c 256
 436 257 380 313 310 330 c 257
 237 314 182 262 182 193 c 256
 182 122 232 83 308 83 c 256
309 -11 m 256
 176 -11 69 62 69 190 c 256
 69 273 119 338 200 373 c 257
 132 406 84 461 84 539 c 256
 84 656 180 724 307 724 c 256
 443 724 532 653 532 535 c 256
 532 456 486 402 417 372 c 257
 492 339 547 268 547 187 c 256
 547 59 434 -11 309 -11 c 256
EndSplineSet
EndChar

StartChar: ellipsis
Encoding: 8230 8230 249
Width: 791
VWidth: 0
Flags: HW
PickledData: "(dp1
S'org.robofab.postScriptHintData'
p2
(dp3
s."
LayerCount: 2
Fore
SplineSet
577 -5 m 257
 577 118 l 257
 711 118 l 257
 711 -5 l 257
 577 -5 l 257
319 -5 m 257
 319 118 l 257
 455 118 l 257
 455 -5 l 257
 319 -5 l 257
62 -5 m 257
 62 118 l 257
 197 118 l 257
 198 -5 l 257
 62 -5 l 257
EndSplineSet
EndChar

StartChar: emdash
Encoding: 8212 8212 251
Width: 1060
VWidth: 0
Flags: HW
PickledData: "(dp1
S'org.robofab.postScriptHintData'
p2
(dp3
s."
LayerCount: 2
Fore
SplineSet
15 226 m 257
 15 316 l 257
 1045 316 l 257
 1045 226 l 257
 15 226 l 257
EndSplineSet
EndChar

StartChar: endash
Encoding: 8211 8211 252
Width: 535
VWidth: 0
Flags: HW
PickledData: "(dp1
S'org.robofab.postScriptHintData'
p2
(dp3
sS'com.typemytype.robofont.layerData'
p4
(dp5
s."
LayerCount: 2
Fore
SplineSet
-1 228 m 257
 -1 316 l 257
 536 316 l 257
 536 228 l 257
 -1 228 l 257
EndSplineSet
EndChar

StartChar: eng
Encoding: 331 331 253
Width: 589
VWidth: 0
Flags: HW
PickledData: "(dp1
S'org.robofab.postScriptHintData'
p2
(dp3
sS'com.typemytype.robofont.layerData'
p4
(dp5
s."
LayerCount: 2
Fore
SplineSet
271 -198 m 257
 271 -114 l 257
 361 -114 413 -73 413 34 c 258
 413 284 l 258
 413 380 395 425 319 425 c 256
 259 425 189 371 189 306 c 258
 189 0 l 257
 80 0 l 257
 80 331 l 258
 80 433 72 501 72 501 c 257
 187 501 l 257
 187 430 l 257
 219 486 285 514 341 514 c 256
 462 514 522 447 522 281 c 258
 522 58 l 258
 522 -110 433 -198 271 -198 c 257
EndSplineSet
EndChar

StartChar: equal
Encoding: 61 61 255
Width: 687
VWidth: 0
Flags: HW
PickledData: "(dp1
S'org.robofab.postScriptHintData'
p2
(dp3
sS'com.typemytype.robofont.layerData'
p4
(dp5
S'b'
(dp6
S'name'
p7
S'equal'
p8
sS'lib'
p9
(dp10
sS'unicodes'
p11
(tsS'width'
p12
I1229
sS'contours'
p13
(tsS'components'
p14
(tsS'anchors'
p15
(tsss."
LayerCount: 2
Fore
SplineSet
97 329 m 257
 97 418 l 257
 589 418 l 257
 589 329 l 257
 97 329 l 257
98 133 m 257
 98 222 l 257
 590 222 l 257
 590 133 l 257
 98 133 l 257
EndSplineSet
EndChar

StartChar: estimated
Encoding: 8494 8494 256
Width: 587
VWidth: 0
Flags: HW
PickledData: "(dp1
S'org.robofab.postScriptHintData'
p2
(dp3
s."
LayerCount: 2
Fore
SplineSet
166 348 m 257
 426 348 l 257
 426 506 360 557 297 557 c 256
 234 557 166 506 166 348 c 257
306 56 m 256
 167 56 47 143 47 318 c 256
 47 512 174 585 298 585 c 256
 413 585 524 525 524 342 c 256
 524 337 524 328 522 320 c 257
 165 320 l 257
 165 163 235 86 333 86 c 256
 383 86 441 106 502 146 c 257
 516 121 l 257
 450 78 375 56 306 56 c 256
EndSplineSet
EndChar

StartChar: eth
Encoding: 240 240 257
Width: 595
VWidth: 0
Flags: HW
PickledData: "(dp1
S'org.robofab.postScriptHintData'
p2
(dp3
sS'com.typemytype.robofont.layerData'
p4
(dp5
S'b'
(dp6
S'name'
p7
S'eth'
p8
sS'lib'
p9
(dp10
sS'unicodes'
p11
(tsS'width'
p12
F1222.55
sS'contours'
p13
(tsS'components'
p14
(tsS'anchors'
p15
(tsss."
LayerCount: 2
Fore
SplineSet
292 80 m 256
 362 80 421 133 421 224 c 256
 421 303 353 351 288 351 c 256
 221 351 163 308 163 221 c 256
 163 129 224 80 292 80 c 256
287 -11 m 256
 141 -11 49 98 49 227 c 256
 49 355 139 442 275 442 c 256
 341 442 400 412 436 364 c 257
 436 390 425 487 330 566 c 257
 211 499 l 257
 178 558 l 257
 267 608 l 257
 230 629 186 647 136 658 c 257
 174 730 l 257
 217 723 287 700 353 656 c 257
 470 723 l 257
 503 664 l 257
 410 611 l 257
 483 542 539 443 539 305 c 256
 539 90 446 -11 287 -11 c 256
EndSplineSet
EndChar

StartChar: exclam
Encoding: 33 33 259
Width: 316
VWidth: 0
Flags: HW
PickledData: "(dp1
S'org.robofab.postScriptHintData'
p2
(dp3
sS'com.typemytype.robofont.layerData'
p4
(dp5
S'b'
(dp6
S'name'
p7
S'exclam'
p8
sS'lib'
p9
(dp10
sS'unicodes'
p11
(tsS'width'
p12
F590
sS'contours'
p13
(tsS'components'
p14
(tsS'anchors'
p15
(tsss."
LayerCount: 2
Fore
SplineSet
128 187 m 257
 96 711 l 257
 226 711 l 257
 193 187 l 257
 128 187 l 257
102 0 m 257
 102 123 l 257
 221 123 l 257
 221 0 l 257
 102 0 l 257
EndSplineSet
EndChar

StartChar: exclamdown
Encoding: 161 161 260
Width: 336
VWidth: 0
Flags: HW
PickledData: "(dp1
S'org.robofab.postScriptHintData'
p2
(dp3
sS'com.typemytype.robofont.layerData'
p4
(dp5
S'b'
(dp6
S'name'
p7
S'exclamdown'
p8
sS'lib'
p9
(dp10
sS'unicodes'
p11
(tsS'width'
p12
F614.5
sS'contours'
p13
(tsS'components'
p14
(tsS'anchors'
p15
(tsss."
LayerCount: 2
Fore
SplineSet
107 562 m 257
 226 562 l 257
 226 440 l 257
 107 440 l 257
 107 562 l 257
134 375 m 257
 199 375 l 257
 231 -148 l 257
 102 -148 l 257
 134 375 l 257
EndSplineSet
EndChar

StartChar: f
Encoding: 102 102 261
Width: 382
VWidth: 0
Flags: HW
PickledData: "(dp1
S'org.robofab.postScriptHintData'
p2
(dp3
sS'com.typemytype.robofont.layerData'
p4
(dp5
S'b'
(dp6
S'name'
p7
S'f'
sS'lib'
p8
(dp9
sS'unicodes'
p10
(tsS'width'
p11
F733.10000000000002
sS'contours'
p12
(tsS'components'
p13
(tsS'anchors'
p14
(tsss."
AnchorPoint: "top" 185 711 basechar 0
LayerCount: 2
Fore
SplineSet
125 0 m 257
 125 428 l 257
 34 428 l 257
 34 501 l 257
 125 501 l 257
 125 527 l 258
 125 664 144 724 330 724 c 258
 354 724 l 257
 351 640 l 257
 244 640 234 624 234 532 c 258
 234 501 l 257
 350 501 l 257
 350 428 l 257
 234 428 l 257
 234 0 l 257
 125 0 l 257
EndSplineSet
EndChar

StartChar: uniFB00
Encoding: 64256 64256 262
Width: 740
VWidth: 0
Flags: HW
PickledData: "(dp1
S'org.robofab.postScriptHintData'
p2
(dp3
sS'com.typemytype.robofont.layerData'
p4
(dp5
s."
LayerCount: 2
Fore
SplineSet
593 430 m 257
 593 0 l 257
 487 0 l 257
 487 430 l 257
 231 430 l 257
 231 0 l 257
 125 0 l 257
 125 430 l 257
 34 430 l 257
 34 501 l 257
 125 501 l 257
 125 529 l 258
 125 664 143 724 327 724 c 258
 352 724 l 257
 349 642 l 257
 240 642 231 626 231 535 c 258
 231 501 l 257
 487 501 l 257
 487 529 l 258
 487 664 505 724 689 724 c 258
 714 724 l 257
 711 642 l 257
 602 642 593 626 593 535 c 258
 593 501 l 257
 709 501 l 257
 709 430 l 257
 593 430 l 257
EndSplineSet
EndChar

StartChar: uniFB03
Encoding: 64259 64259 263
Width: 987
VWidth: 0
Flags: HW
PickledData: "(dp1
S'org.robofab.postScriptHintData'
p2
(dp3
sS'com.typemytype.robofont.layerData'
p4
(dp5
s."
LayerCount: 2
Fore
SplineSet
913 616 m 257
 809 616 l 257
 809 711 l 257
 913 711 l 257
 913 616 l 257
913 0 m 257
 809 0 l 257
 809 430 l 257
 589 430 l 257
 589 0 l 257
 483 0 l 257
 483 430 l 257
 231 430 l 257
 231 0 l 257
 125 0 l 257
 125 430 l 257
 34 430 l 257
 34 501 l 257
 125 501 l 257
 125 529 l 258
 125 664 143 724 327 724 c 258
 352 724 l 257
 349 642 l 257
 240 642 231 625 231 534 c 258
 231 501 l 257
 483 501 l 257
 483 529 l 258
 483 664 501 724 685 724 c 258
 709 724 l 257
 707 642 l 257
 598 642 589 625 589 534 c 258
 589 501 l 257
 913 501 l 257
 913 0 l 257
EndSplineSet
EndChar

StartChar: uniFB04
Encoding: 64260 64260 264
Width: 1003
VWidth: 0
Flags: HW
PickledData: "(dp1
S'org.robofab.postScriptHintData'
p2
(dp3
sS'com.typemytype.robofont.layerData'
p4
(dp5
s."
AnchorPoint: "top" 185 711 basechar 0
LayerCount: 2
Fore
SplineSet
125 0 m 257
 125 430 l 257
 34 430 l 257
 34 501 l 257
 125 501 l 257
 125 527 l 258
 125 664 144 724 330 724 c 258
 354 724 l 257
 351 640 l 257
 244 640 234 624 234 532 c 258
 234 501 l 257
 386 501 l 257
 386 430 l 257
 234 430 l 257
 234 0 l 257
 125 0 l 257
EndSplineSet
Refer: 269 64258 N 1 0 0 1 315 0 2
EndChar

StartChar: uniFB01
Encoding: 64257 64257 266
Width: 615
VWidth: 0
Flags: HW
PickledData: "(dp1
S'org.robofab.postScriptHintData'
p2
(dp3
sS'com.typemytype.robofont.layerData'
p4
(dp5
S'b'
(dp6
S'name'
p7
S'fi'
p8
sS'lib'
p9
(dp10
sS'unicodes'
p11
(tsS'width'
p12
F1237.6500000000001
sS'contours'
p13
((dp14
S'points'
p15
((dp16
S'segmentType'
p17
S'line'
p18
sS'x'
F249
sS'smooth'
p19
I00
sS'y'
F0
s(dp20
g17
S'line'
p21
sS'x'
F249
sg19
I00
sS'y'
F919
s(dp22
g17
S'line'
p23
sS'x'
F68
sg19
I00
sS'y'
F919
s(dp24
g17
S'line'
p25
sS'x'
F68
sg19
I00
sS'y'
F1026
s(dp26
g17
S'line'
p27
sS'x'
F249
sg19
I00
sS'y'
F1026
s(dp28
g17
S'line'
p29
sS'x'
F249
sg19
I01
sS'y'
F1127
s(dp30
S'y'
F1378
sS'x'
F249
sg19
I00
s(dp31
S'y'
F1492
sS'x'
F295
sg19
I00
s(dp32
g17
S'curve'
p33
sS'x'
F630
sg19
I01
sS'y'
F1492
s(dp34
g17
S'line'
p35
sS'x'
F676
sg19
I00
sS'y'
F1492
s(dp36
g17
S'line'
p37
sS'x'
F676
sg19
I00
sS'y'
F1364
s(dp38
S'y'
F1364
sS'x'
F431
sg19
I00
s(dp39
S'y'
F1311
sS'x'
F413
sg19
I00
s(dp40
g17
S'curve'
p41
sS'x'
F413
sg19
I01
sS'y'
F1150
s(dp42
g17
S'line'
p43
sS'x'
F413
sg19
I00
sS'y'
F1026
s(dp44
g17
S'line'
p45
sS'x'
F662
sg19
I00
sS'y'
F1026
s(dp46
g17
S'line'
p47
sS'x'
F662
sg19
I00
sS'y'
F919
s(dp48
g17
S'line'
p49
sS'x'
F413
sg19
I00
sS'y'
F919
s(dp50
g17
S'line'
p51
sS'x'
F413
sg19
I00
sS'y'
F0
stp52
s(dp53
g15
((dp54
g17
S'line'
p55
sS'x'
F869
sg19
I00
sS'y'
F0
s(dp56
g17
S'line'
p57
sS'x'
F869
sg19
I00
sS'y'
F1026
s(dp58
g17
S'line'
p59
sS'x'
F1033
sg19
I00
sS'y'
F1026
s(dp60
g17
S'line'
p61
sS'x'
F1033
sg19
I00
sS'y'
F0
stp62
s(dp63
g15
((dp64
g17
S'line'
p65
sS'x'
F869
sg19
I00
sS'y'
F1307
s(dp66
g17
S'line'
p67
sS'x'
F869
sg19
I00
sS'y'
F1462
s(dp68
g17
S'line'
p69
sS'x'
F1033
sg19
I00
sS'y'
F1462
s(dp70
g17
S'line'
p71
sS'x'
F1033
sg19
I00
sS'y'
F1307
stp72
stp73
sS'components'
p74
(tsS'anchors'
p75
(tsss."
LayerCount: 2
Fore
SplineSet
125 0 m 257
 125 430 l 257
 34 430 l 257
 34 501 l 257
 125 501 l 257
 125 529 l 258
 125 664 143 724 327 724 c 258
 352 724 l 257
 349 642 l 257
 240 642 231 626 231 535 c 258
 231 501 l 257
 449 501 l 257
 449 430 l 257
 231 430 l 257
 231 0 l 257
 125 0 l 257
EndSplineSet
Refer: 295 105 N 1 0 0 1 358 0 2
EndChar

StartChar: five
Encoding: 53 53 267
Width: 613
VWidth: 0
Flags: HW
PickledData: "(dp1
S'org.robofab.postScriptHintData'
p2
(dp3
sS'com.typemytype.robofont.layerData'
p4
(dp5
s."
LayerCount: 2
Fore
SplineSet
302 -11 m 256
 222 -11 141 18 80 81 c 257
 137 165 l 257
 184 109 244 85 299 85 c 256
 378 85 437 139 437 232 c 256
 437 303 398 367 329 367 c 256
 292 367 254 355 236 329 c 257
 126 341 l 257
 126 711 l 257
 516 711 l 257
 516 615 l 257
 227 615 l 257
 221 420 l 257
 250 455 298 467 347 467 c 256
 464 467 552 365 552 230 c 256
 552 76 437 -11 302 -11 c 256
EndSplineSet
EndChar

StartChar: uniFB02
Encoding: 64258 64258 269
Width: 620
VWidth: 0
Flags: HW
PickledData: "(dp1
S'org.robofab.postScriptHintData'
p2
(dp3
sS'com.typemytype.robofont.layerData'
p4
(dp5
S'b'
(dp6
S'name'
p7
S'fl'
p8
sS'lib'
p9
(dp10
sS'unicodes'
p11
(tsS'width'
p12
F1252.7
sS'contours'
p13
(tsS'components'
p14
((dp15
S'transformation'
p16
(I1
I0
I0
I1
I20
I0
tp17
sS'baseGlyph'
p18
S'f'
s(dp19
g16
(I1
I0
I0
I1
I714
I0
tp20
sg18
S'l'
stp21
sS'anchors'
p22
(tsss."
LayerCount: 2
Fore
SplineSet
128 0 m 257
 128 430 l 257
 34 430 l 257
 34 501 l 257
 128 501 l 257
 128 522 l 258
 128 657 167 715 342 715 c 258
 546 715 l 257
 546 0 l 257
 440 0 l 257
 440 633 l 257
 358 633 l 258
 254 633 233 610 233 542 c 258
 233 501 l 257
 350 501 l 257
 350 430 l 257
 233 430 l 257
 233 0 l 257
 128 0 l 257
EndSplineSet
EndChar

StartChar: florin
Encoding: 402 402 270
Width: 534
VWidth: 0
Flags: HW
PickledData: "(dp1
S'org.robofab.postScriptHintData'
p2
(dp3
sS'com.typemytype.robofont.layerData'
p4
(dp5
S'b'
(dp6
S'name'
p7
S'florin'
p8
sS'lib'
p9
(dp10
sS'unicodes'
p11
(tsS'width'
p12
F1073.0999999999999
sS'contours'
p13
(tsS'components'
p14
(tsS'anchors'
p15
(tsss."
LayerCount: 2
Fore
SplineSet
99 -151 m 256
 94 -151 69 -149 46 -142 c 257
 55 -62 l 257
 59 -63 77 -66 95 -66 c 256
 126 -66 159 -51 174 33 c 258
 231 344 l 257
 160 344 l 257
 176 415 l 257
 244 415 l 257
 268 544 l 258
 282 617 311 712 438 712 c 256
 494 712 525 692 525 692 c 257
 517 614 l 257
 508 616 480 624 459 624 c 256
 424 624 393 608 381 546 c 258
 356 415 l 257
 445 415 l 257
 431 344 l 257
 341 344 l 257
 284 30 l 258
 261 -100 207 -151 99 -151 c 256
EndSplineSet
EndChar

StartChar: foundryicon
Encoding: 65539 -1 271
Width: 657
VWidth: 0
Flags: HW
PickledData: "(dp1
S'org.robofab.postScriptHintData'
p2
(dp3
s."
LayerCount: 2
Fore
SplineSet
237 198 m 257
 289 198 l 257
 289 270 l 257
 372 198 l 257
 423 198 l 257
 423 328 l 257
 372 328 l 257
 372 255 l 257
 289 328 l 257
 237 328 l 257
 237 198 l 257
137 1 m 257
 207 225 l 257
 17 369 l 257
 253 369 l 257
 327 593 l 257
 404 369 l 257
 641 369 l 257
 450 225 l 257
 521 1 l 257
 327 136 l 257
 137 1 l 257
EndSplineSet
EndChar

StartChar: four
Encoding: 52 52 272
Width: 613
VWidth: 0
Flags: HW
PickledData: "(dp1
S'org.robofab.postScriptHintData'
p2
(dp3
sS'com.typemytype.robofont.layerData'
p4
(dp5
S'b'
(dp6
S'name'
p7
S'four'
p8
sS'lib'
p9
(dp10
sS'unicodes'
p11
(tsS'width'
p12
F1234.0999999999999
sS'contours'
p13
(tsS'components'
p14
(tsS'anchors'
p15
(tsss."
LayerCount: 2
Fore
SplineSet
172 271 m 257
 361 271 l 257
 361 584 l 257
 299 479 235 375 172 271 c 257
360 0 m 257
 360 187 l 257
 52 187 l 257
 52 265 l 257
 340 711 l 257
 469 711 l 257
 469 271 l 257
 579 271 l 257
 579 187 l 257
 471 187 l 257
 471 0 l 257
 360 0 l 257
EndSplineSet
EndChar

StartChar: uni2074
Encoding: 8308 8308 273
Width: 503
VWidth: 0
Flags: HW
PickledData: "(dp1
S'org.robofab.postScriptHintData'
p2
(dp3
sS'com.typemytype.robofont.layerData'
p4
(dp5
s."
LayerCount: 2
Fore
SplineSet
184 471 m 257
 283 471 l 257
 283 612 l 257
 184 471 l 257
284 317 m 257
 284 411 l 257
 102 411 l 257
 102 462 l 257
 282 711 l 257
 361 711 l 257
 361 471 l 257
 417 471 l 257
 417 411 l 257
 361 411 l 257
 361 317 l 257
 284 317 l 257
EndSplineSet
EndChar

StartChar: fraction
Encoding: 8260 8260 274
Width: 541
VWidth: 0
Flags: HW
PickledData: "(dp1
S'org.robofab.postScriptHintData'
p2
(dp3
sS'com.typemytype.robofont.layerData'
p4
(dp5
S'b'
(dp6
S'name'
p7
S'fraction'
p8
sS'lib'
p9
(dp10
sS'unicodes'
p11
(tsS'width'
p12
F1077.8
sS'contours'
p13
(tsS'components'
p14
(tsS'anchors'
p15
(tsss."
LayerCount: 2
Fore
SplineSet
6 0 m 257
 441 711 l 257
 548 711 l 257
 114 0 l 257
 6 0 l 257
EndSplineSet
EndChar

StartChar: g
Encoding: 103 103 275
Width: 611
VWidth: 0
Flags: HW
PickledData: "(dp1
S'org.robofab.postScriptHintData'
p2
(dp3
sS'com.typemytype.robofont.layerData'
p4
(dp5
S'b'
(dp6
S'name'
p7
S'g'
sS'lib'
p8
(dp9
sS'unicodes'
p10
(tsS'width'
p11
I1254
sS'contours'
p12
((dp13
S'points'
p14
((dp15
S'segmentType'
p16
S'curve'
p17
sS'x'
F580
sS'smooth'
p18
I01
sS'y'
F134
s(dp19
S'y'
F134
sS'x'
F799
sg18
I00
s(dp20
S'y'
F295
sS'x'
F920
sg18
I00
s(dp21
g16
S'curve'
p22
sS'x'
F920
sg18
I01
sS'y'
F550
s(dp23
S'y'
F775
sS'x'
F920
sg18
I00
s(dp24
S'y'
F918
sS'x'
F796
sg18
I00
s(dp25
g16
S'curve'
p26
sS'x'
F600
sg18
I01
sS'y'
F918
s(dp27
S'y'
F918
sS'x'
F399
sg18
I00
s(dp28
S'y'
F762
sS'x'
F268
sg18
I00
s(dp29
g16
S'curve'
p30
sS'x'
F268
sg18
I01
sS'y'
F515
s(dp31
S'y'
F282
sS'x'
F268
sg18
I00
s(dp32
S'y'
F134
sS'x'
F389
sg18
I00
stp33
s(dp34
g14
((dp35
g16
S'curve'
p36
sS'x'
F534
sg18
I01
sS'y'
F-420
s(dp37
S'y'
F-420
sS'x'
F408
sg18
I00
s(dp38
S'y'
F-381
sS'x'
F289
sg18
I00
s(dp39
g16
S'curve'
p40
sS'x'
F189
sg18
I00
sS'y'
F-331
s(dp41
g16
S'line'
p42
sS'x'
F216
sg18
I00
sS'y'
F-187
s(dp43
S'y'
F-238
sS'x'
F300
sg18
I00
s(dp44
S'y'
F-282
sS'x'
F416
sg18
I00
s(dp45
g16
S'curve'
p46
sS'x'
F528
sg18
I01
sS'y'
F-282
s(dp47
S'y'
F-282
sS'x'
F790
sg18
I00
s(dp48
S'y'
F-183
sS'x'
F920
sg18
I00
s(dp49
g16
S'curve'
p50
sS'x'
F920
sg18
I01
sS'y'
F49
s(dp51
g16
S'line'
p52
sS'x'
F920
sg18
I00
sS'y'
F273
s(dp53
g16
S'line'
p54
sS'x'
F948
sg18
I00
sS'y'
F253
s(dp55
S'y'
F139
sS'x'
F905
sg18
I00
s(dp56
S'y'
F0
sS'x'
F802
sg18
I00
s(dp57
g16
S'curve'
p58
sS'x'
F579
sg18
I01
sS'y'
F0
s(dp59
S'y'
F0
sS'x'
F298
sg18
I00
s(dp60
S'y'
F201
sS'x'
F98
sg18
I00
s(dp61
g16
S'curve'
p62
sS'x'
F98
sg18
I01
sS'y'
F511
s(dp63
S'y'
F843
sS'x'
F98
sg18
I00
s(dp64
S'y'
F1052
sS'x'
F284
sg18
I00
s(dp65
g16
S'curve'
p66
sS'x'
F579
sg18
I01
sS'y'
F1052
s(dp67
S'y'
F1052
sS'x'
F820
sg18
I00
s(dp68
S'y'
F900
sS'x'
F903
sg18
I00
s(dp69
g16
S'curve'
p70
sS'x'
F958
sg18
I00
sS'y'
F798
s(dp71
g16
S'line'
p72
sS'x'
F919
sg18
I00
sS'y'
F787
s(dp73
g16
S'line'
p74
sS'x'
F926
sg18
I00
sS'y'
F1026
s(dp75
g16
S'line'
p76
sS'x'
F1090
sg18
I00
sS'y'
F1026
s(dp77
S'y'
F1026
sS'x'
F1090
sg18
I00
s(dp78
S'y'
F857
sS'x'
F1084
sg18
I00
s(dp79
g16
S'curve'
p80
sS'x'
F1084
sg18
I01
sS'y'
F773
s(dp81
g16
S'line'
p82
sS'x'
F1084
sg18
I01
sS'y'
F143
s(dp83
S'y'
F-255
sS'x'
F1084
sg18
I00
s(dp84
S'y'
F-420
sS'x'
F903
sg18
I00
stp85
stp86
sS'components'
p87
(tsS'anchors'
p88
(tsss."
AnchorPoint: "top" 283 501 basechar 0
LayerCount: 2
Fore
SplineSet
299 89 m 256
 399 89 435 168 435 258 c 256
 435 355 390 425 303 425 c 256
 212 425 165 348 165 252 c 256
 165 151 209 89 299 89 c 256
281 -202 m 256
 214 -202 153 -189 92 -162 c 257
 110 -67 l 257
 170 -102 223 -113 275 -113 c 256
 371 -113 431 -67 431 29 c 258
 431 76 l 257
 409 44 368 6 292 6 c 256
 151 6 51 99 51 251 c 256
 51 396 128 514 286 514 c 256
 359 514 406 478 431 439 c 257
 431 501 l 257
 546 501 l 257
 546 501 538 425 538 346 c 258
 538 72 l 258
 538 -63 486 -202 281 -202 c 256
EndSplineSet
EndChar

StartChar: germandbls
Encoding: 223 223 282
Width: 614
VWidth: 0
Flags: HW
PickledData: "(dp1
S'org.robofab.postScriptHintData'
p2
(dp3
sS'com.typemytype.robofont.layerData'
p4
(dp5
S'b'
(dp6
S'name'
p7
S'germandbls'
p8
sS'lib'
p9
(dp10
sS'unicodes'
p11
(tsS'width'
p12
F1250.95
sS'contours'
p13
(tsS'components'
p14
(tsS'anchors'
p15
(tsss."
LayerCount: 2
Fore
SplineSet
357 399 m 257
 473 371 581 298 581 171 c 256
 581 59 498 -11 400 -11 c 256
 312 -11 241 18 241 18 c 257
 260 104 l 257
 260 104 319 76 373 76 c 256
 426 76 462 102 462 163 c 256
 462 245 401 295 276 354 c 257
 276 436 l 257
 343 464 387 508 387 565 c 256
 387 611 347 640 296 640 c 256
 224 640 182 585 182 494 c 258
 182 0 l 257
 76 0 l 257
 74 493 l 258
 74 648 160 727 295 727 c 256
 420 727 503 663 503 571 c 256
 503 506 468 450 400 416 c 256
 388 410 371 403 357 399 c 257
EndSplineSet
EndChar

StartChar: grave
Encoding: 96 96 283
Width: 294
VWidth: 0
Flags: HW
PickledData: "(dp1
S'org.robofab.postScriptHintData'
p2
(dp3
sS'com.typemytype.robofont.layerData'
p4
(dp5
s."
AnchorPoint: "top" 222 501 mark 0
LayerCount: 2
Fore
SplineSet
173 571 m 257
 4 738 l 257
 145 738 l 257
 270 571 l 257
 173 571 l 257
EndSplineSet
EndChar

StartChar: greater
Encoding: 62 62 284
Width: 662
VWidth: 0
Flags: HW
PickledData: "(dp1
S'org.robofab.postScriptHintData'
p2
(dp3
sS'com.typemytype.robofont.layerData'
p4
(dp5
S'b'
(dp6
S'name'
p7
S'greater'
p8
sS'lib'
p9
(dp10
sS'unicodes'
p11
(tsS'width'
p12
F1268.05
sS'contours'
p13
(tsS'components'
p14
(tsS'anchors'
p15
(tsss."
LayerCount: 2
Fore
SplineSet
104 25 m 257
 104 127 l 257
 452 278 l 257
 107 439 l 257
 107 540 l 257
 598 301 l 257
 598 245 l 257
 104 25 l 257
EndSplineSet
EndChar

StartChar: greaterequal
Encoding: 8805 8805 285
Width: 659
VWidth: 0
Flags: HW
PickledData: "(dp1
S'org.robofab.postScriptHintData'
p2
(dp3
sS'com.typemytype.robofont.layerData'
p4
(dp5
S'b'
(dp6
S'name'
p7
S'greaterequal'
p8
sS'lib'
p9
(dp10
sS'unicodes'
p11
(tsS'width'
p12
F1350.3499999999999
sS'contours'
p13
(tsS'components'
p14
(tsS'anchors'
p15
(tsss."
LayerCount: 2
Fore
SplineSet
64 0 m 257
 64 80 l 257
 569 80 l 257
 569 0 l 257
 64 0 l 257
68 119 m 257
 68 219 l 257
 418 375 l 257
 70 533 l 257
 70 632 l 257
 561 402 l 257
 561 350 l 257
 68 119 l 257
EndSplineSet
EndChar

StartChar: guillemotleft
Encoding: 171 171 286
Width: 563
VWidth: 0
Flags: HW
PickledData: "(dp1
S'org.robofab.postScriptHintData'
p2
(dp3
sS'com.typemytype.robofont.layerData'
p4
(dp5
S'b'
(dp6
S'name'
p7
S'guillemotright'
p8
sS'lib'
p9
(dp10
sS'unicodes'
p11
(tsS'width'
p12
F1122.45
sS'contours'
p13
(tsS'components'
p14
(tsS'anchors'
p15
(tsss."
LayerCount: 2
Fore
SplineSet
414 79 m 257
 280 264 l 257
 417 449 l 257
 508 449 l 257
 390 264 l 257
 504 79 l 257
 414 79 l 257
201 79 m 257
 66 264 l 257
 204 449 l 257
 294 449 l 257
 176 264 l 257
 291 79 l 257
 201 79 l 257
EndSplineSet
EndChar

StartChar: guillemotright
Encoding: 187 187 287
Width: 563
VWidth: 0
Flags: HW
PickledData: "(dp1
S'org.robofab.postScriptHintData'
p2
(dp3
sS'com.typemytype.robofont.layerData'
p4
(dp5
S'b'
(dp6
S'name'
p7
S'guillemotright'
p8
sS'lib'
p9
(dp10
sS'unicodes'
p11
(tsS'width'
p12
F1122.45
sS'contours'
p13
(tsS'components'
p14
(tsS'anchors'
p15
(tsss."
LayerCount: 2
Fore
SplineSet
281 79 m 257
 398 264 l 257
 285 449 l 257
 374 449 l 257
 508 264 l 257
 371 79 l 257
 281 79 l 257
67 79 m 257
 185 264 l 257
 71 449 l 257
 161 449 l 257
 295 264 l 257
 158 79 l 257
 67 79 l 257
EndSplineSet
EndChar

StartChar: guilsinglleft
Encoding: 8249 8249 288
Width: 346
VWidth: 0
Flags: HW
PickledData: "(dp1
S'org.robofab.postScriptHintData'
p2
(dp3
sS'com.typemytype.robofont.layerData'
p4
(dp5
S'b'
(dp6
S'name'
p7
S'guilsinglleft'
p8
sS'lib'
p9
(dp10
sS'unicodes'
p11
(tsS'width'
p12
F688.39999999999998
sS'contours'
p13
(tsS'components'
p14
(tsS'anchors'
p15
(tsss."
LayerCount: 2
Fore
SplineSet
202 79 m 257
 67 264 l 257
 205 449 l 257
 295 449 l 257
 177 264 l 257
 292 79 l 257
 202 79 l 257
EndSplineSet
EndChar

StartChar: guilsinglright
Encoding: 8250 8250 289
Width: 346
VWidth: 0
Flags: HW
PickledData: "(dp1
S'org.robofab.postScriptHintData'
p2
(dp3
sS'com.typemytype.robofont.layerData'
p4
(dp5
S'b'
(dp6
S'name'
p7
S'guilsinglleft'
p8
sS'lib'
p9
(dp10
sS'unicodes'
p11
(tsS'width'
p12
F688.39999999999998
sS'contours'
p13
(tsS'components'
p14
(tsS'anchors'
p15
(tsss."
LayerCount: 2
Fore
SplineSet
57 79 m 257
 175 264 l 257
 61 449 l 257
 151 449 l 257
 285 264 l 257
 148 79 l 257
 57 79 l 257
EndSplineSet
EndChar

StartChar: h
Encoding: 104 104 290
Width: 599
VWidth: 0
Flags: HW
PickledData: "(dp1
S'org.robofab.postScriptHintData'
p2
(dp3
sS'com.typemytype.robofont.layerData'
p4
(dp5
S'b'
(dp6
S'name'
p7
S'h'
sS'lib'
p8
(dp9
sS'unicodes'
p10
(tsS'width'
p11
F1237.95
sS'contours'
p12
((dp13
S'points'
p14
((dp15
S'segmentType'
p16
S'line'
p17
sS'x'
F178
sS'smooth'
p18
I00
sS'y'
F0
s(dp19
g16
S'line'
p20
sS'x'
F178
sg18
I01
sS'y'
F779
s(dp21
S'y'
F902
sS'x'
F178
sg18
I00
s(dp22
S'y'
F1026
sS'x'
F172
sg18
I00
s(dp23
g16
S'curve'
p24
sS'x'
F172
sg18
I00
sS'y'
F1026
s(dp25
g16
S'line'
p26
sS'x'
F339
sg18
I00
sS'y'
F1026
s(dp27
g16
S'line'
p28
sS'x'
F343
sg18
I00
sS'y'
F864
s(dp29
S'y'
F976
sS'x'
F423
sg18
I00
s(dp30
S'y'
F1051
sS'x'
F548
sg18
I00
s(dp31
g16
S'curve'
p32
sS'x'
F700
sg18
I01
sS'y'
F1051
s(dp33
S'y'
F1051
sS'x'
F999
sg18
I00
s(dp34
S'y'
F844
sS'x'
F1082
sg18
I00
s(dp35
g16
S'curve'
p36
sS'x'
F1082
sg18
I01
sS'y'
F550
s(dp37
g16
S'line'
p38
sS'x'
F1082
sg18
I00
sS'y'
F0
s(dp39
g16
S'line'
p40
sS'x'
F917
sg18
I00
sS'y'
F0
s(dp41
g16
S'line'
p42
sS'x'
F917
sg18
I01
sS'y'
F531
s(dp43
S'y'
F764
sS'x'
F917
sg18
I00
s(dp44
S'y'
F917
sS'x'
F886
sg18
I00
s(dp45
g16
S'curve'
p46
sS'x'
F670
sg18
I01
sS'y'
F917
s(dp47
S'y'
F917
sS'x'
F471
sg18
I00
s(dp48
S'y'
F742
sS'x'
F344
sg18
I00
s(dp49
g16
S'curve'
p50
sS'x'
F343
sg18
I00
sS'y'
F652
s(dp51
g16
S'line'
p52
sS'x'
F343
sg18
I00
sS'y'
F0
stp53
stp54
sS'components'
p55
(tsS'anchors'
p56
(tsss."
AnchorPoint: "top" 361 501 basechar 0
LayerCount: 2
Fore
SplineSet
74 0 m 257
 74 717 l 257
 184 717 l 257
 184 431 l 257
 212 482 283 514 341 514 c 256
 493 514 530 389 530 288 c 258
 530 0 l 257
 420 0 l 257
 420 290 l 258
 420 387 389 425 325 425 c 256
 254 425 184 368 184 303 c 258
 184 0 l 257
 74 0 l 257
EndSplineSet
EndChar

StartChar: hungarumlaut
Encoding: 733 733 293
Width: 473
VWidth: 0
Flags: HW
PickledData: "(dp1
S'org.robofab.postScriptHintData'
p2
(dp3
s."
AnchorPoint: "top" 138 501 mark 0
LayerCount: 2
Fore
SplineSet
192 556 m 257
 311 737 l 257
 439 737 l 257
 273 556 l 257
 192 556 l 257
33 556 m 257
 134 737 l 257
 256 737 l 257
 111 556 l 257
 33 556 l 257
EndSplineSet
EndChar

StartChar: hyphen
Encoding: 45 45 294
Width: 350
VWidth: 0
Flags: HW
PickledData: "(dp1
S'org.robofab.postScriptHintData'
p2
(dp3
sS'com.typemytype.robofont.layerData'
p4
(dp5
S'b'
(dp6
S'name'
p7
S'hyphen'
p8
sS'lib'
p9
(dp10
sS'unicodes'
p11
(tsS'width'
p12
F683.5
sS'contours'
p13
(tsS'components'
p14
(tsS'anchors'
p15
(tsss."
LayerCount: 2
Fore
SplineSet
28 229 m 257
 28 313 l 257
 322 313 l 257
 322 229 l 257
 28 229 l 257
EndSplineSet
EndChar

StartChar: i
Encoding: 105 105 295
Width: 256
VWidth: 0
Flags: HW
PickledData: "(dp1
S'org.robofab.postScriptHintData'
p2
(dp3
sS'com.typemytype.robofont.layerData'
p4
(dp5
S'b'
(dp6
S'name'
p7
S'i'
sS'lib'
p8
(dp9
sS'unicodes'
p10
(tsS'width'
p11
F521.10000000000002
sS'contours'
p12
(tsS'components'
p13
(tsS'anchors'
p14
(tsss."
LayerCount: 2
Fore
SplineSet
77 613 m 257
 77 711 l 257
 184 711 l 257
 184 613 l 257
 77 613 l 257
77 0 m 257
 77 501 l 257
 184 501 l 257
 184 0 l 257
 77 0 l 257
EndSplineSet
EndChar

StartChar: Delta
Encoding: 8710 8710 307
Width: 678
VWidth: 0
Flags: HW
PickledData: "(dp1
S'org.robofab.postScriptHintData'
p2
(dp3
sS'com.typemytype.robofont.layerData'
p4
(dp5
S'b'
(dp6
S'name'
p7
S'uni2206'
p8
sS'lib'
p9
(dp10
sS'unicodes'
p11
(tsS'width'
p12
F1312.25
sS'contours'
p13
(tsS'components'
p14
(tsS'anchors'
p15
(tsss."
LayerCount: 2
Fore
SplineSet
146 89 m 257
 520 89 l 257
 333 583 l 257
 146 89 l 257
30 0 m 257
 30 72 l 257
 288 711 l 257
 396 711 l 257
 648 75 l 257
 648 0 l 257
 30 0 l 257
EndSplineSet
EndChar

StartChar: infinity
Encoding: 8734 8734 308
Width: 847
VWidth: 0
Flags: HW
PickledData: "(dp1
S'org.robofab.postScriptHintData'
p2
(dp3
s."
LayerCount: 2
Fore
SplineSet
623 184 m 256
 694 184 723 237 723 305 c 256
 723 357 683 401 621 401 c 256
 559 401 503 349 463 292 c 257
 520 221 564 184 623 184 c 256
233 184 m 256
 295 184 347 233 390 292 c 257
 347 354 295 401 229 401 c 256
 161 401 124 352 124 292 c 256
 124 237 165 184 233 184 c 256
227 114 m 256
 120 114 47 201 47 304 c 256
 47 397 131 472 225 472 c 256
 306 472 368 424 426 347 c 257
 481 422 540 472 623 472 c 256
 731 472 800 397 800 294 c 256
 800 187 718 114 622 114 c 256
 549 114 490 153 425 237 c 257
 368 163 306 114 227 114 c 256
EndSplineSet
EndChar

StartChar: integral
Encoding: 8747 8747 309
Width: 386
VWidth: 0
Flags: HW
PickledData: "(dp1
S'org.robofab.postScriptHintData'
p2
(dp3
sS'com.typemytype.robofont.layerData'
p4
(dp5
S'b'
(dp6
S'name'
p7
S'integral'
p8
sS'lib'
p9
(dp10
sS'unicodes'
p11
(tsS'width'
p12
F754
sS'contours'
p13
(tsS'components'
p14
(tsS'anchors'
p15
(tsss."
LayerCount: 2
Fore
SplineSet
97 -154 m 256
 48 -154 19 -143 19 -143 c 257
 19 -59 l 257
 19 -59 59 -67 87 -67 c 256
 136 -67 145 -36 145 21 c 258
 145 571 l 258
 145 678 183 758 295 758 c 256
 339 758 374 746 374 746 c 257
 374 660 l 257
 374 660 340 669 312 669 c 256
 262 669 251 640 251 582 c 258
 251 32 l 258
 251 -75 210 -154 97 -154 c 256
EndSplineSet
EndChar

StartChar: j
Encoding: 106 106 312
Width: 265
VWidth: 0
Flags: HW
PickledData: "(dp1
S'org.robofab.postScriptHintData'
p2
(dp3
sS'com.typemytype.robofont.layerData'
p4
(dp5
S'b'
(dp6
S'name'
p7
S'j'
sS'lib'
p8
(dp9
sS'unicodes'
p10
(tsS'width'
p11
F536.89999999999998
sS'contours'
p12
((dp13
S'points'
p14
((dp15
S'segmentType'
p16
S'curve'
p17
sS'x'
F65
sS'smooth'
p18
I01
sS'y'
F-410
s(dp19
S'y'
F-410
sS'x'
F-24
sg18
I00
s(dp20
S'y'
F-390
sS'x'
F-117
sg18
I00
s(dp21
g16
S'curve'
p22
sS'x'
F-117
sg18
I00
sS'y'
F-390
s(dp23
g16
S'line'
p24
sS'x'
F-102
sg18
I00
sS'y'
F-267
s(dp25
S'y'
F-267
sS'x'
F-102
sg18
I00
s(dp26
S'y'
F-280
sS'x'
F-44
sg18
I00
s(dp27
g16
S'curve'
p28
sS'x'
F19
sg18
I01
sS'y'
F-280
s(dp29
S'y'
F-280
sS'x'
F153
sg18
I00
s(dp30
S'y'
F-208
sS'x'
F177
sg18
I00
s(dp31
g16
S'curve'
p32
sS'x'
F177
sg18
I01
sS'y'
F-2
s(dp33
g16
S'line'
p34
sS'x'
F177
sg18
I00
sS'y'
F1026
s(dp35
g16
S'line'
p36
sS'x'
F341
sg18
I00
sS'y'
F1026
s(dp37
g16
S'line'
p38
sS'x'
F341
sg18
I01
sS'y'
F-6
s(dp39
S'y'
F-274
sS'x'
F341
sg18
I00
s(dp40
S'y'
F-410
sS'x'
F246
sg18
I00
stp41
s(dp42
g14
((dp43
g16
S'line'
p44
sS'x'
F177
sg18
I00
sS'y'
F1307
s(dp45
g16
S'line'
p46
sS'x'
F177
sg18
I00
sS'y'
F1462
s(dp47
g16
S'line'
p48
sS'x'
F341
sg18
I00
sS'y'
F1462
s(dp49
g16
S'line'
p50
sS'x'
F341
sg18
I00
sS'y'
F1307
stp51
stp52
sS'components'
p53
(tsS'anchors'
p54
(tsss."
LayerCount: 2
Fore
SplineSet
89 608 m 257
 89 711 l 257
 197 711 l 257
 197 608 l 257
 89 608 l 257
EndSplineSet
Refer: 235 567 N 1 0 0 1 0 0 2
EndChar

StartChar: k
Encoding: 107 107 315
Width: 540
VWidth: 0
Flags: HW
PickledData: "(dp1
S'org.robofab.postScriptHintData'
p2
(dp3
sS'com.typemytype.robofont.layerData'
p4
(dp5
S'b'
(dp6
S'name'
p7
S'k'
sS'lib'
p8
(dp9
sS'unicodes'
p10
(tsS'width'
p11
F1078.6500000000001
sS'contours'
p12
(tsS'components'
p13
(tsS'anchors'
p14
(tsss."
AnchorPoint: "top" 333 501 basechar 0
LayerCount: 2
Fore
SplineSet
76 0 m 257
 76 717 l 257
 186 717 l 257
 186 293 l 257
 380 501 l 257
 531 501 l 257
 286 261 l 257
 547 0 l 257
 402 0 l 257
 186 225 l 257
 186 0 l 257
 76 0 l 257
EndSplineSet
EndChar

StartChar: kgreenlandic
Encoding: 312 312 318
Width: 528
VWidth: 0
Flags: HW
PickledData: "(dp1
S'org.robofab.postScriptHintData'
p2
(dp3
sS'com.typemytype.robofont.layerData'
p4
(dp5
s."
LayerCount: 2
Fore
SplineSet
76 0 m 257
 76 501 l 257
 185 501 l 257
 185 295 l 257
 374 501 l 257
 520 501 l 257
 270 250 l 257
 365 163 434 94 538 0 c 257
 395 0 l 257
 185 203 l 257
 185 0 l 257
 76 0 l 257
EndSplineSet
EndChar

StartChar: l
Encoding: 108 108 319
Width: 257
VWidth: 0
Flags: HW
PickledData: "(dp1
S'org.robofab.postScriptHintData'
p2
(dp3
sS'com.typemytype.robofont.layerData'
p4
(dp5
S'b'
(dp6
S'name'
p7
S'l'
sS'lib'
p8
(dp9
sS'unicodes'
p10
(tsS'width'
p11
F521.79999999999995
sS'contours'
p12
(tsS'components'
p13
(tsS'anchors'
p14
(tsss."
AnchorPoint: "top" 135 711 basechar 0
AnchorPoint: "caron.alt" 115 501 basechar 0
LayerCount: 2
Fore
SplineSet
77 0 m 257
 77 717 l 257
 186 717 l 257
 186 0 l 257
 77 0 l 257
EndSplineSet
EndChar

StartChar: less
Encoding: 60 60 324
Width: 661
VWidth: 0
Flags: HW
PickledData: "(dp1
S'org.robofab.postScriptHintData'
p2
(dp3
sS'com.typemytype.robofont.layerData'
p4
(dp5
S'b'
(dp6
S'name'
p7
S'less'
p8
sS'lib'
p9
(dp10
sS'unicodes'
p11
(tsS'width'
p12
F1267.3499999999999
sS'contours'
p13
(tsS'components'
p14
(tsS'anchors'
p15
(tsss."
LayerCount: 2
Fore
SplineSet
555 23 m 257
 64 253 l 257
 64 306 l 257
 557 537 l 257
 557 436 l 257
 207 280 l 257
 555 123 l 257
 555 23 l 257
EndSplineSet
EndChar

StartChar: lessequal
Encoding: 8804 8804 325
Width: 659
VWidth: 0
Flags: HW
PickledData: "(dp1
S'org.robofab.postScriptHintData'
p2
(dp3
sS'com.typemytype.robofont.layerData'
p4
(dp5
S'b'
(dp6
S'name'
p7
S'lessequal'
p8
sS'lib'
p9
(dp10
sS'unicodes'
p11
(tsS'width'
p12
F1350.3499999999999
sS'contours'
p13
(tsS'components'
p14
(tsS'anchors'
p15
(tsss."
LayerCount: 2
Fore
SplineSet
62 0 m 257
 62 80 l 257
 566 80 l 257
 566 0 l 257
 62 0 l 257
557 119 m 257
 66 349 l 257
 66 401 l 257
 559 632 l 257
 559 531 l 257
 209 375 l 257
 557 218 l 257
 557 119 l 257
EndSplineSet
EndChar

StartChar: logicalnot
Encoding: 172 172 327
Width: 712
VWidth: 0
Flags: HW
PickledData: "(dp1
S'org.robofab.postScriptHintData'
p2
(dp3
sS'com.typemytype.robofont.layerData'
p4
(dp5
S'b'
(dp6
S'name'
p7
S'logicalnot'
p8
sS'lib'
p9
(dp10
sS'unicodes'
p11
(tsS'width'
p12
F1463.2
sS'contours'
p13
(tsS'components'
p14
(tsS'anchors'
p15
(tsss."
LayerCount: 2
Fore
SplineSet
501 110 m 257
 501 304 l 257
 85 304 l 257
 85 396 l 257
 604 396 l 257
 604 110 l 257
 501 110 l 257
EndSplineSet
EndChar

StartChar: lozenge
Encoding: 9674 9674 329
Width: 609
VWidth: 0
Flags: HW
PickledData: "(dp1
S'org.robofab.postScriptHintData'
p2
(dp3
sS'com.typemytype.robofont.layerData'
p4
(dp5
s."
LayerCount: 2
Fore
SplineSet
292 93 m 257
 442 343 l 257
 296 588 l 257
 146 343 l 257
 292 93 l 257
257 -20 m 257
 41 343 l 257
 260 707 l 257
 332 707 l 257
 549 344 l 257
 328 -20 l 257
 257 -20 l 257
EndSplineSet
EndChar

StartChar: lslash
Encoding: 322 322 330
Width: 245
VWidth: 0
Flags: HW
PickledData: "(dp1
S'org.robofab.postScriptHintData'
p2
(dp3
s."
LayerCount: 2
Fore
SplineSet
64 0 m 257
 64 349 l 257
 2 300 l 257
 2 396 l 257
 64 445 l 257
 64 717 l 257
 174 717 l 257
 174 522 l 257
 233 570 l 257
 233 474 l 257
 174 425 l 257
 174 0 l 257
 64 0 l 257
EndSplineSet
EndChar

StartChar: m
Encoding: 109 109 331
Width: 904
VWidth: 0
Flags: HW
PickledData: "(dp1
S'org.robofab.postScriptHintData'
p2
(dp3
sS'com.typemytype.robofont.guides'
p4
(tsS'com.typemytype.robofont.layerData'
p5
(dp6
S'b'
(dp7
S'name'
p8
S'm'
sS'lib'
p9
(dp10
sS'unicodes'
p11
(tsS'width'
p12
F1873.95
sS'contours'
p13
(tsS'components'
p14
(tsS'anchors'
p15
(tsss."
AnchorPoint: "top" 481 501 basechar 0
LayerCount: 2
Fore
SplineSet
81 0 m 257
 81 349 l 258
 81 422 75 465 74 501 c 257
 188 501 l 257
 188 430 l 257
 213 480 274 514 336 514 c 256
 400 514 458 480 486 415 c 257
 523 473 580 514 657 514 c 256
 777 514 835 433 835 307 c 258
 835 0 l 257
 726 0 l 257
 726 299 l 258
 726 364 706 425 646 425 c 256
 572 425 514 357 514 285 c 258
 514 0 l 257
 404 0 l 257
 404 307 l 258
 404 363 387 425 319 425 c 256
 245 425 190 364 190 301 c 258
 190 0 l 257
 81 0 l 257
EndSplineSet
EndChar

StartChar: macron
Encoding: 175 175 332
Width: 362
VWidth: 0
Flags: HW
PickledData: "(dp1
S'org.robofab.postScriptHintData'
p2
(dp3
sS'com.typemytype.robofont.layerData'
p4
(dp5
S'b'
(dp6
S'name'
p7
S'macron'
p8
sS'lib'
p9
(dp10
sS'unicodes'
p11
(tsS'width'
p12
F723
sS'contours'
p13
(tsS'components'
p14
(tsS'anchors'
p15
(tsss."
AnchorPoint: "top" 182 501 mark 0
LayerCount: 2
Fore
SplineSet
32 587 m 257
 32 658 l 257
 330 658 l 257
 330 587 l 257
 32 587 l 257
EndSplineSet
EndChar

StartChar: minus
Encoding: 8722 8722 335
Width: 691
VWidth: 0
Flags: HW
PickledData: "(dp1
S'org.robofab.postScriptHintData'
p2
(dp3
s."
LayerCount: 2
Fore
SplineSet
93 169 m 257
 93 258 l 257
 599 258 l 257
 599 169 l 257
 93 169 l 257
EndSplineSet
EndChar

StartChar: mu
Encoding: 181 181 336
Width: 1203
VWidth: 0
Flags: W
LayerCount: 2
Fore
SplineSet
365 -241 m 257
 139 -241 l 257
 139 1026 l 257
 360 1026 l 257
 362 422 l 258
 362 249 428 158 573 158 c 256
 731 158 821 233 821 419 c 258
 821 1026 l 257
 1046 1026 l 257
 1046 262 l 258
 1046 176 1051 70 1059 0 c 257
 827 0 l 257
 823 155 l 257
 778 49 669 -23 538 -23 c 256
 471 -23 407 -7 365 21 c 257
 365 -241 l 257
EndSplineSet
EndChar

StartChar: multiply
Encoding: 215 215 337
Width: 613
VWidth: 0
Flags: HW
PickledData: "(dp1
S'org.robofab.postScriptHintData'
p2
(dp3
sS'com.typemytype.robofont.layerData'
p4
(dp5
s."
LayerCount: 2
Fore
SplineSet
174 62 m 257
 103 133 l 257
 238 268 l 257
 103 403 l 257
 174 474 l 257
 309 338 l 257
 444 474 l 257
 515 404 l 257
 379 268 l 257
 515 133 l 257
 444 62 l 257
 309 197 l 257
 174 62 l 257
EndSplineSet
EndChar

StartChar: n
Encoding: 110 110 338
Width: 602
VWidth: 0
Flags: HW
PickledData: "(dp1
S'org.robofab.postScriptHintData'
p2
(dp3
sS'com.typemytype.robofont.layerData'
p4
(dp5
S'b'
(dp6
S'name'
p7
S'n'
sS'lib'
p8
(dp9
sS'unicodes'
p10
(tsS'width'
p11
F1240.05
sS'contours'
p12
(tsS'components'
p13
(tsS'anchors'
p14
(tsss."
AnchorPoint: "top" 333 501 basechar 0
LayerCount: 2
Fore
SplineSet
81 0 m 257
 81 331 l 258
 81 433 73 501 73 501 c 257
 188 501 l 257
 188 430 l 257
 224 486 292 514 348 514 c 256
 469 514 533 447 533 281 c 258
 533 0 l 257
 424 0 l 257
 424 284 l 258
 424 380 401 425 326 425 c 256
 266 425 190 371 190 306 c 258
 190 0 l 257
 81 0 l 257
EndSplineSet
EndChar

StartChar: nine
Encoding: 57 57 343
Width: 613
VWidth: 0
Flags: HW
PickledData: "(dp1
S'org.robofab.postScriptHintData'
p2
(dp3
sS'com.typemytype.robofont.layerData'
p4
(dp5
S'b'
(dp6
S'name'
p7
S'nine'
p8
sS'lib'
p9
(dp10
sS'unicodes'
p11
(tsS'width'
p12
F1235.4000000000001
sS'contours'
p13
((dp14
S'points'
p15
((dp16
S'segmentType'
p17
S'curve'
p18
sS'x'
F314
sS'smooth'
p19
I01
sS'y'
F1010
s(dp20
S'y'
F827
sS'x'
F314
sg19
I00
s(dp21
S'y'
F687
sS'x'
F393
sg19
I00
s(dp22
g17
S'curve'
p23
sS'x'
F604
sg19
I01
sS'y'
F687
s(dp24
S'y'
F687
sS'x'
F784
sg19
I00
s(dp25
S'y'
F803
sS'x'
F908
sg19
I00
s(dp26
g17
S'curve'
p27
sS'x'
F908
sg19
I01
sS'y'
F991
s(dp28
S'y'
F1166
sS'x'
F908
sg19
I00
s(dp29
S'y'
F1334
sS'x'
F815
sg19
I00
s(dp30
g17
S'curve'
p31
sS'x'
F605
sg19
I01
sS'y'
F1334
s(dp32
S'y'
F1334
sS'x'
F419
sg19
I00
s(dp33
S'y'
F1196
sS'x'
F314
sg19
I00
stp34
s(dp35
g15
((dp36
g17
S'curve'
p37
sS'x'
F555
sg19
I01
sS'y'
F-24
s(dp38
S'y'
F-24
sS'x'
F434
sg19
I00
s(dp39
S'y'
F13
sS'x'
F304
sg19
I00
s(dp40
g17
S'curve'
p41
sS'x'
F175
sg19
I00
sS'y'
F79
s(dp42
g17
S'line'
p43
sS'x'
F232
sg19
I00
sS'y'
F211
s(dp44
S'y'
F152
sS'x'
F346
sg19
I00
s(dp45
S'y'
F124
sS'x'
F450
sg19
I00
s(dp46
g17
S'curve'
p47
sS'x'
F542
sg19
I01
sS'y'
F124
s(dp48
S'y'
F124
sS'x'
F773
sg19
I00
s(dp49
S'y'
F308
sS'x'
F920
sg19
I00
s(dp50
g17
S'curve'
p51
sS'x'
F920
sg19
I01
sS'y'
F657
s(dp52
g17
S'line'
p53
sS'x'
F920
sg19
I00
sS'y'
F722
s(dp54
S'y'
F600
sS'x'
F856
sg19
I00
s(dp55
S'y'
F544
sS'x'
F742
sg19
I00
s(dp56
g17
S'curve'
p57
sS'x'
F577
sg19
I01
sS'y'
F544
s(dp58
S'y'
F544
sS'x'
F298
sg19
I00
s(dp59
S'y'
F735
sS'x'
F138
sg19
I00
s(dp60
g17
S'curve'
p61
sS'x'
F138
sg19
I01
sS'y'
F1004
s(dp62
S'y'
F1275
sS'x'
F138
sg19
I00
s(dp63
S'y'
F1483
sS'x'
F311
sg19
I00
s(dp64
g17
S'curve'
p65
sS'x'
F613
sg19
I01
sS'y'
F1483
s(dp66
S'y'
F1483
sS'x'
F939
sg19
I00
s(dp67
S'y'
F1231
sS'x'
F1095
sg19
I00
s(dp68
g17
S'curve'
p69
sS'x'
F1095
sg19
I01
sS'y'
F774
s(dp70
S'y'
F203
sS'x'
F1095
sg19
I00
s(dp71
S'y'
F-24
sS'x'
F855
sg19
I00
stp72
stp73
sS'components'
p74
(tsS'anchors'
p75
(tsss."
LayerCount: 2
Fore
SplineSet
295 350 m 256
 372 350 428 399 428 492 c 256
 428 563 384 628 302 628 c 256
 222 628 173 570 173 488 c 256
 173 410 211 350 295 350 c 256
274 -12 m 256
 220 -12 160 3 94 36 c 257
 133 126 l 257
 177 99 223 85 266 85 c 256
 358 85 432 154 432 311 c 258
 432 330 l 257
 399 276 343 256 283 256 c 256
 145 256 60 351 60 486 c 256
 60 621 151 724 299 724 c 256
 457 724 543 604 543 376 c 256
 543 134 441 -12 274 -12 c 256
EndSplineSet
EndChar

StartChar: notequal
Encoding: 8800 8800 345
Width: 672
VWidth: 0
Flags: HW
PickledData: "(dp1
S'org.robofab.postScriptHintData'
p2
(dp3
sS'com.typemytype.robofont.layerData'
p4
(dp5
S'b'
(dp6
S'name'
p7
S'notequal'
p8
sS'lib'
p9
(dp10
sS'unicodes'
p11
(tsS'width'
p12
F1362.5
sS'contours'
p13
(tsS'components'
p14
(tsS'anchors'
p15
(tsss."
LayerCount: 2
Fore
SplineSet
244 19 m 257
 159 32 l 257
 215 150 l 257
 81 150 l 257
 81 232 l 257
 257 232 l 257
 312 336 l 257
 81 336 l 257
 81 419 l 257
 352 419 l 257
 415 548 l 257
 502 535 l 257
 444 419 l 257
 596 419 l 257
 596 336 l 257
 405 336 l 257
 350 232 l 257
 596 232 l 257
 596 150 l 257
 309 150 l 257
 244 19 l 257
EndSplineSet
EndChar

StartChar: numbersign
Encoding: 35 35 347
Width: 662
VWidth: 0
Flags: HW
PickledData: "(dp1
S'org.robofab.postScriptHintData'
p2
(dp3
sS'com.typemytype.robofont.layerData'
p4
(dp5
s."
LayerCount: 2
Fore
SplineSet
266 297 m 257
 377 297 l 257
 402 427 l 257
 291 427 l 257
 266 297 l 257
111 5 m 257
 155 224 l 257
 37 224 l 257
 42 297 l 257
 168 297 l 257
 194 427 l 257
 64 427 l 257
 70 500 l 257
 208 500 l 257
 249 708 l 257
 346 708 l 257
 306 500 l 257
 417 500 l 257
 457 708 l 257
 554 708 l 257
 514 500 l 257
 625 500 l 257
 620 427 l 257
 500 427 l 257
 474 297 l 257
 597 297 l 257
 593 224 l 257
 460 224 l 257
 417 5 l 257
 320 5 l 257
 363 224 l 257
 251 224 l 257
 208 5 l 257
 111 5 l 257
EndSplineSet
EndChar

StartChar: o
Encoding: 111 111 348
Width: 622
VWidth: 0
Flags: HW
PickledData: "(dp1
S'org.robofab.postScriptHintData'
p2
(dp3
sS'com.typemytype.robofont.layerData'
p4
(dp5
S'b'
(dp6
S'name'
p7
S'o'
sS'lib'
p8
(dp9
sS'unicodes'
p10
(tsS'width'
p11
F1259.2
sS'contours'
p12
(tsS'components'
p13
(tsS'anchors'
p14
(tsss."
AnchorPoint: "top" 314 501 basechar 0
LayerCount: 2
Fore
SplineSet
312 -11 m 256
 139 -11 51 105 51 250 c 256
 51 398 142 514 313 514 c 256
 486 514 571 400 571 250 c 256
 571 107 482 -11 312 -11 c 256
312 78 m 256
 413 78 457 155 457 251 c 256
 457 350 411 425 312 425 c 256
 213 425 165 350 165 251 c 256
 165 155 210 78 312 78 c 256
EndSplineSet
EndChar

StartChar: oe
Encoding: 339 339 355
Width: 973
VWidth: 0
Flags: HW
PickledData: "(dp1
S'org.robofab.postScriptHintData'
p2
(dp3
sS'com.typemytype.robofont.layerData'
p4
(dp5
S'b'
(dp6
S'name'
p7
S'oe'
p8
sS'lib'
p9
(dp10
sS'unicodes'
p11
(tsS'width'
p12
F1979.8
sS'contours'
p13
(tsS'components'
p14
((dp15
S'transformation'
p16
(I1
I0
I0
I1
I-6
I0
tp17
sS'baseGlyph'
p18
S'o'
s(dp19
g16
(I1
I0
I0
I1
I811
I0
tp20
sg18
S'e'
stp21
sS'anchors'
p22
(tsss."
LayerCount: 2
Fore
SplineSet
555 308 m 257
 804 308 l 257
 804 314 l 257
 801 382 748 426 683 426 c 256
 614 426 563 377 555 308 c 257
311 78 m 256
 403 78 443 158 443 250 c 256
 443 350 404 425 307 425 c 256
 213 425 162 347 162 248 c 256
 162 155 208 78 311 78 c 256
554 219 m 257
 554 128 615 78 711 78 c 256
 803 78 867 130 867 130 c 257
 898 50 l 257
 898 50 828 -11 699 -11 c 256
 618 -11 534 27 499 88 c 257
 467 28 389 -11 309 -11 c 256
 144 -11 48 101 48 250 c 256
 48 397 140 514 307 514 c 256
 401 514 463 474 499 417 c 257
 537 479 592 515 684 515 c 256
 828 515 908 408 908 249 c 258
 908 219 l 257
 554 219 l 257
EndSplineSet
EndChar

StartChar: ogonek
Encoding: 731 731 356
Width: 248
VWidth: 0
Flags: HW
PickledData: "(dp1
S'org.robofab.postScriptHintData'
p2
(dp3
s."
LayerCount: 2
Fore
SplineSet
124 -191 m 256
 62 -191 15 -170 15 -119 c 256
 15 -53 88 -12 130 9 c 257
 189 8 l 257
 144 -19 111 -64 111 -94 c 256
 111 -115 128 -125 155 -125 c 256
 182 -125 216 -114 232 -110 c 257
 232 -173 l 257
 195 -184 157 -191 124 -191 c 256
EndSplineSet
EndChar

StartChar: one
Encoding: 49 49 361
Width: 613
VWidth: 0
Flags: HW
PickledData: "(dp1
S'org.robofab.postScriptHintData'
p2
(dp3
sS'com.typemytype.robofont.layerData'
p4
(dp5
S'b'
(dp6
S'name'
p7
S'one'
p8
sS'lib'
p9
(dp10
sS'unicodes'
p11
(tsS'width'
p12
F1234.0999999999999
sS'contours'
p13
(tsS'components'
p14
(tsS'anchors'
p15
(tsss."
LayerCount: 2
Fore
SplineSet
141 0 m 257
 141 89 l 257
 272 89 l 257
 272 595 l 257
 236 576 183 555 129 536 c 257
 129 638 l 257
 180 656 246 686 289 711 c 257
 385 711 l 257
 385 88 l 257
 513 88 l 257
 513 0 l 257
 141 0 l 257
EndSplineSet
EndChar

StartChar: onehalf
Encoding: 189 189 362
Width: 1166
VWidth: 0
Flags: HW
PickledData: "(dp1
S'org.robofab.postScriptHintData'
p2
(dp3
sS'com.typemytype.robofont.layerData'
p4
(dp5
s."
LayerCount: 2
Fore
SplineSet
105 304 m 257
 105 374 l 257
 197 374 l 257
 197 626 l 257
 97 599 l 257
 97 671 l 257
 103 672 209 709 213 711 c 257
 283 711 l 257
 283 373 l 257
 364 373 l 257
 364 304 l 257
 105 304 l 257
275 0 m 257
 710 711 l 257
 806 711 l 257
 371 0 l 257
 275 0 l 257
866 414 m 256
 944 414 1006 372 1006 285 c 256
 1006 220 961 177 901 128 c 258
 841 79 l 257
 1001 79 l 257
 1001 0 l 257
 719 0 l 257
 719 75 l 257
 851 187 l 258
 902 230 917 252 917 281 c 256
 917 319 897 337 860 337 c 256
 825 337 783 319 749 294 c 257
 715 360 l 257
 757 394 814 414 866 414 c 256
EndSplineSet
EndChar

StartChar: onequarter
Encoding: 188 188 363
Width: 1014
VWidth: 0
Flags: HW
PickledData: "(dp1
S'org.robofab.postScriptHintData'
p2
(dp3
sS'com.typemytype.robofont.layerData'
p4
(dp5
s."
LayerCount: 2
Fore
SplineSet
703 156 m 257
 803 156 l 257
 803 297 l 257
 703 156 l 257
281 0 m 257
 716 711 l 257
 811 711 l 257
 376 0 l 257
 281 0 l 257
804 0 m 257
 804 94 l 257
 623 94 l 257
 623 146 l 257
 802 395 l 257
 884 395 l 257
 884 156 l 257
 941 156 l 257
 941 94 l 257
 884 94 l 257
 884 0 l 257
 804 0 l 257
112 304 m 257
 112 374 l 257
 203 374 l 257
 203 626 l 257
 104 599 l 257
 104 671 l 257
 110 672 216 709 220 711 c 257
 289 711 l 257
 289 373 l 257
 370 373 l 257
 370 304 l 257
 112 304 l 257
EndSplineSet
EndChar

StartChar: uni00B9
Encoding: 185 185 364
Width: 483
VWidth: 0
Flags: HW
PickledData: "(dp1
S'org.robofab.postScriptHintData'
p2
(dp3
sS'com.typemytype.robofont.layerData'
p4
(dp5
s."
LayerCount: 2
Fore
SplineSet
128 301 m 257
 128 372 l 257
 216 372 l 257
 216 620 l 257
 211 617 126 594 119 592 c 257
 119 667 l 257
 128 670 225 702 231 705 c 257
 299 707 l 257
 299 371 l 257
 377 371 l 257
 377 301 l 257
 128 301 l 257
EndSplineSet
EndChar

StartChar: ordfeminine
Encoding: 170 170 366
Width: 409
VWidth: 0
Flags: HW
PickledData: "(dp1
S'org.robofab.postScriptHintData'
p2
(dp3
sS'com.typemytype.robofont.layerData'
p4
(dp5
S'b'
(dp6
S'name'
p7
S'ordfeminine'
p8
sS'lib'
p9
(dp10
sS'unicodes'
p11
(tsS'width'
p12
F797.10000000000002
sS'contours'
p13
(tsS'components'
p14
(tsS'anchors'
p15
(tsss."
LayerCount: 2
Fore
SplineSet
174 419 m 256
 217 419 268 448 268 510 c 258
 268 519 l 257
 163 519 125 517 125 465 c 256
 125 436 148 419 174 419 c 256
355 587 m 256
 355 506 356 427 360 374 c 257
 279 374 l 257
 273 422 l 257
 261 394 226 360 167 360 c 256
 104 360 49 397 49 464 c 256
 49 530 93 568 182 568 c 258
 268 568 l 257
 268 588 l 258
 268 637 243 654 203 654 c 256
 150 654 91 628 91 628 c 257
 65 689 l 257
 65 689 125 723 211 723 c 256
 288 723 355 689 355 587 c 256
EndSplineSet
EndChar

StartChar: ordmasculine
Encoding: 186 186 367
Width: 440
VWidth: 0
Flags: HW
PickledData: "(dp1
S'org.robofab.postScriptHintData'
p2
(dp3
sS'com.typemytype.robofont.layerData'
p4
(dp5
S'b'
(dp6
S'name'
p7
S'ordmasculine'
p8
sS'lib'
p9
(dp10
sS'unicodes'
p11
(tsS'width'
p12
F887.85000000000002
sS'contours'
p13
(tsS'components'
p14
(tsS'anchors'
p15
(tsss."
LayerCount: 2
Fore
SplineSet
223 355 m 256
 100 355 37 432 37 533 c 256
 37 631 104 708 221 708 c 256
 339 708 404 629 404 531 c 256
 404 434 340 355 223 355 c 256
221 427 m 256
 280 427 318 468 318 530 c 256
 318 596 280 636 222 636 c 256
 164 636 124 595 124 532 c 256
 124 466 160 427 221 427 c 256
EndSplineSet
EndChar

StartChar: oslash
Encoding: 248 248 368
Width: 617
VWidth: 0
Flags: HW
PickledData: "(dp1
S'org.robofab.postScriptHintData'
p2
(dp3
sS'com.typemytype.robofont.layerData'
p4
(dp5
S'b'
(dp6
S'name'
p7
S'oslash'
p8
sS'lib'
p9
(dp10
sS'unicodes'
p11
(tsS'width'
p12
F1255
sS'contours'
p13
(tsS'components'
p14
(tsS'anchors'
p15
(tsss."
LayerCount: 2
Fore
SplineSet
363 417 m 257
 220 108 l 257
 182 139 165 191 165 251 c 256
 165 350 213 425 312 425 c 256
 331 425 348 422 363 417 c 257
408 390 m 257
 441 359 457 309 457 251 c 256
 457 155 413 78 312 78 c 256
 295 78 281 79 267 83 c 257
 408 390 l 257
312 -11 m 256
 482 -11 571 107 571 250 c 256
 571 353 532 438 451 482 c 257
 491 570 l 257
 443 591 l 257
 402 502 l 257
 376 510 346 514 313 514 c 256
 142 514 51 398 51 250 c 256
 51 149 94 62 179 19 c 257
 133 -81 l 257
 181 -102 l 257
 228 -0 l 257
 253 -7 281 -11 312 -11 c 256
EndSplineSet
EndChar

StartChar: p
Encoding: 112 112 371
Width: 618
VWidth: 0
Flags: HW
PickledData: "(dp1
S'org.robofab.postScriptHintData'
p2
(dp3
sS'com.typemytype.robofont.layerData'
p4
(dp5
S'b'
(dp6
S'name'
p7
S'p'
sS'lib'
p8
(dp9
sS'unicodes'
p10
(tsS'width'
p11
F1260.25
sS'contours'
p12
(tsS'components'
p13
(tsS'anchors'
p14
(tsss."
AnchorPoint: "top" 332 501 basechar 0
LayerCount: 2
Fore
SplineSet
320 78 m 256
 413 78 454 155 454 252 c 256
 454 350 411 425 321 425 c 256
 230 425 185 350 185 250 c 256
 185 155 227 78 320 78 c 256
81 -198 m 257
 81 343 l 258
 81 389 77 449 74 501 c 257
 189 501 l 257
 189 423 l 257
 200 463 263 514 347 514 c 256
 484 514 568 398 568 256 c 256
 568 113 484 -11 343 -11 c 256
 259 -11 199 40 189 73 c 257
 189 -198 l 257
 81 -198 l 257
EndSplineSet
EndChar

StartChar: paragraph
Encoding: 182 182 372
Width: 595
VWidth: 0
Flags: HW
PickledData: "(dp1
S'org.robofab.postScriptHintData'
p2
(dp3
sS'com.typemytype.robofont.layerData'
p4
(dp5
S'b'
(dp6
S'name'
p7
S'paragraph'
p8
sS'lib'
p9
(dp10
sS'unicodes'
p11
(tsS'width'
p12
F1211.95
sS'contours'
p13
(tsS'components'
p14
(tsS'anchors'
p15
(tsss."
LayerCount: 2
Fore
SplineSet
218 -87 m 257
 218 390 l 257
 117 396 53 453 53 552 c 256
 53 678 149 710 285 710 c 258
 519 710 l 257
 519 626 l 257
 473 626 l 257
 473 -87 l 257
 388 -87 l 257
 388 626 l 257
 303 626 l 257
 303 -87 l 257
 218 -87 l 257
EndSplineSet
EndChar

StartChar: parenleft
Encoding: 40 40 373
Width: 326
VWidth: 0
Flags: HW
PickledData: "(dp1
S'org.robofab.postScriptHintData'
p2
(dp3
sS'com.typemytype.robofont.layerData'
p4
(dp5
S'b'
(dp6
S'name'
p7
S'parenleft'
p8
sS'lib'
p9
(dp10
sS'unicodes'
p11
(tsS'width'
p12
F639.35000000000002
sS'contours'
p13
(tsS'components'
p14
(tsS'anchors'
p15
(tsss."
LayerCount: 2
Fore
SplineSet
199 -83 m 257
 121 35 62 182 62 325 c 256
 62 475 115 612 196 740 c 257
 302 740 l 257
 219 609 171 463 171 324 c 256
 171 195 224 42 302 -83 c 257
 199 -83 l 257
EndSplineSet
EndChar

StartChar: parenright
Encoding: 41 41 374
Width: 326
VWidth: 0
Flags: HW
PickledData: "(dp1
S'org.robofab.postScriptHintData'
p2
(dp3
sS'com.typemytype.robofont.layerData'
p4
(dp5
S'b'
(dp6
S'name'
p7
S'parenright'
p8
sS'lib'
p9
(dp10
sS'unicodes'
p11
(tsS'width'
p12
F639.35000000000002
sS'contours'
p13
(tsS'components'
p14
(tsS'anchors'
p15
(tsss."
LayerCount: 2
Fore
SplineSet
25 -93 m 257
 108 38 156 184 156 323 c 256
 156 452 103 605 25 730 c 257
 127 730 l 257
 205 612 266 465 266 322 c 256
 266 172 212 35 131 -93 c 257
 25 -93 l 257
EndSplineSet
EndChar

StartChar: partialdiff
Encoding: 8706 8706 375
Width: 567
VWidth: 0
Flags: HW
PickledData: "(dp1
S'org.robofab.postScriptHintData'
p2
(dp3
sS'com.typemytype.robofont.layerData'
p4
(dp5
S'b'
(dp6
S'name'
p7
S'partialdiff'
p8
sS'lib'
p9
(dp10
sS'unicodes'
p11
(tsS'width'
p12
F1163.95
sS'contours'
p13
(tsS'components'
p14
(tsS'anchors'
p15
(tsss."
LayerCount: 2
Fore
SplineSet
235 78 m 256
 318 78 376 147 399 316 c 257
 381 359 340 402 289 402 c 256
 205 402 140 311 140 206 c 256
 140 129 176 78 235 78 c 256
235 -12 m 256
 98 -12 28 84 28 208 c 256
 28 366 142 489 281 489 c 256
 347 489 395 455 408 423 c 257
 408 427 407 462 407 466 c 256
 403 578 350 648 269 648 c 256
 206 648 152 622 125 606 c 257
 119 687 l 257
 161 717 219 736 277 736 c 256
 427 736 521 634 521 406 c 256
 521 199 427 -12 235 -12 c 256
EndSplineSet
EndChar

StartChar: percent
Encoding: 37 37 377
Width: 900
VWidth: 0
Flags: HW
PickledData: "(dp1
S'org.robofab.postScriptHintData'
p2
(dp3
sS'com.typemytype.robofont.layerData'
p4
(dp5
S'b'
(dp6
S'name'
p7
S'percent'
p8
sS'lib'
p9
(dp10
sS'unicodes'
p11
(tsS'width'
p12
F1769.3
sS'contours'
p13
(tsS'components'
p14
(tsS'anchors'
p15
(tsss."
LayerCount: 2
Fore
SplineSet
680 -11 m 256
 571 -11 505 68 505 173 c 256
 505 275 571 357 680 357 c 256
 790 357 854 275 854 173 c 256
 854 69 789 -11 680 -11 c 256
680 60 m 256
 736 60 761 98 761 173 c 256
 761 245 739 288 680 288 c 256
 620 288 599 244 599 173 c 256
 599 97 624 60 680 60 c 256
182 0 m 257
 633 711 l 257
 725 711 l 257
 272 0 l 257
 182 0 l 257
221 353 m 256
 112 353 46 424 46 537 c 256
 46 646 112 722 221 722 c 256
 331 722 396 647 396 537 c 256
 396 424 330 353 221 353 c 256
221 423 m 256
 277 423 303 462 303 538 c 256
 303 609 280 651 221 651 c 256
 162 651 140 608 140 537 c 256
 140 461 165 423 221 423 c 256
EndSplineSet
EndChar

StartChar: period
Encoding: 46 46 378
Width: 264
VWidth: 0
Flags: HW
PickledData: "(dp1
S'org.robofab.postScriptHintData'
p2
(dp3
sS'com.typemytype.robofont.layerData'
p4
(dp5
s."
LayerCount: 2
Fore
SplineSet
62 0 m 257
 62 124 l 257
 193 124 l 257
 193 0 l 257
 62 0 l 257
EndSplineSet
EndChar

StartChar: periodcentered
Encoding: 183 183 379
Width: 266
VWidth: 0
Flags: HW
PickledData: "(dp1
S'org.robofab.postScriptHintData'
p2
(dp3
sS'com.typemytype.robofont.layerData'
p4
(dp5
S'b'
(dp6
S'name'
p7
S'middot'
p8
sS'lib'
p9
(dp10
sS'unicodes'
p11
(tsS'width'
p12
I509
sS'contours'
p13
(tsS'components'
p14
(tsS'anchors'
p15
(tsss."
LayerCount: 2
Fore
SplineSet
121 260 m 257
 121 378 l 257
 245 378 l 257
 245 260 l 257
 121 260 l 257
EndSplineSet
EndChar

StartChar: perthousand
Encoding: 8240 8240 380
Width: 1310
VWidth: 0
Flags: HW
PickledData: "(dp1
S'org.robofab.postScriptHintData'
p2
(dp3
sS'com.typemytype.robofont.layerData'
p4
(dp5
S'b'
(dp6
S'name'
p7
S'perthousand'
p8
sS'lib'
p9
(dp10
sS'unicodes'
p11
(tsS'width'
p12
F2581.1999999999998
sS'contours'
p13
(tsS'components'
p14
(tsS'anchors'
p15
(tsss."
LayerCount: 2
Fore
SplineSet
1089 -11 m 256
 980 -11 914 68 914 173 c 256
 914 275 980 357 1089 357 c 256
 1199 357 1264 275 1264 173 c 256
 1264 69 1198 -11 1089 -11 c 256
1089 60 m 256
 1145 60 1170 98 1170 173 c 256
 1170 245 1148 288 1089 288 c 256
 1030 288 1008 244 1008 173 c 256
 1008 97 1033 60 1089 60 c 256
EndSplineSet
Refer: 377 37 N 1 0 0 1 0 0 2
EndChar

StartChar: pi
Encoding: 960 960 381
Width: 716
VWidth: 0
Flags: HW
PickledData: "(dp1
S'org.robofab.postScriptHintData'
p2
(dp3
sS'com.typemytype.robofont.layerData'
p4
(dp5
S'b'
(dp6
S'name'
p7
S'pi'
p8
sS'lib'
p9
(dp10
sS'unicodes'
p11
(tsS'width'
p12
F1288
sS'contours'
p13
(tsS'components'
p14
(tsS'anchors'
p15
(tsss."
LayerCount: 2
Fore
SplineSet
560 -6 m 256
 598 -6 629 5 646 21 c 257
 646 84 l 257
 632 79 614 75 594 75 c 256
 563 75 540 92 540 144 c 256
 540 197 543 329 551 427 c 257
 667 427 l 257
 667 528 l 257
 230 528 l 258
 113 528 78 468 78 362 c 257
 125 362 l 257
 131 400 150 427 189 427 c 257
 235 427 l 257
 204 191 l 258
 190 85 125 55 83 55 c 257
 83 2 l 257
 253 2 288 52 293 159 c 258
 306 427 l 257
 476 427 l 257
 458 325 441 181 441 113 c 256
 441 25 487 -6 560 -6 c 256
EndSplineSet
EndChar

StartChar: plus
Encoding: 43 43 382
Width: 606
VWidth: 0
Flags: HW
PickledData: "(dp1
S'org.robofab.postScriptHintData'
p2
(dp3
sS'com.typemytype.robofont.layerData'
p4
(dp5
S'b'
(dp6
S'name'
p7
S'plus'
p8
sS'lib'
p9
(dp10
sS'unicodes'
p11
(tsS'width'
p12
F1206.9000000000001
sS'contours'
p13
(tsS'components'
p14
(tsS'anchors'
p15
(tsss."
LayerCount: 2
Fore
SplineSet
252 42 m 257
 252 238 l 257
 66 238 l 257
 66 330 l 257
 252 330 l 257
 252 524 l 257
 354 524 l 257
 354 330 l 257
 541 330 l 257
 541 238 l 257
 354 238 l 257
 354 42 l 257
 252 42 l 257
EndSplineSet
EndChar

StartChar: plusminus
Encoding: 177 177 383
Width: 613
VWidth: 0
Flags: HW
PickledData: "(dp1
S'org.robofab.postScriptHintData'
p2
(dp3
sS'com.typemytype.robofont.layerData'
p4
(dp5
S'b'
(dp6
S'name'
p7
S'plusminus'
p8
sS'lib'
p9
(dp10
sS'unicodes'
p11
(tsS'width'
p12
F1234.75
sS'contours'
p13
(tsS'components'
p14
(tsS'anchors'
p15
(tsss."
LayerCount: 2
Fore
SplineSet
92 0 m 257
 92 78 l 257
 523 78 l 257
 523 0 l 257
 92 0 l 257
254 135 m 257
 254 289 l 257
 94 289 l 257
 94 379 l 257
 252 379 l 257
 252 535 l 257
 355 535 l 257
 355 379 l 257
 519 379 l 257
 519 289 l 257
 359 289 l 257
 359 135 l 257
 254 135 l 257
EndSplineSet
EndChar

StartChar: product
Encoding: 8719 8719 384
Width: 765
VWidth: 0
Flags: HW
PickledData: "(dp1
S'org.robofab.postScriptHintData'
p2
(dp3
sS'com.typemytype.robofont.guides'
p4
(tsS'com.typemytype.robofont.layerData'
p5
(dp6
S'b'
(dp7
S'name'
p8
S'product'
p9
sS'lib'
p10
(dp11
sS'unicodes'
p12
(tsS'width'
p13
F1568
sS'contours'
p14
(tsS'components'
p15
(tsS'anchors'
p16
(tsss."
LayerCount: 2
Fore
SplineSet
117 -49 m 257
 117 621 l 257
 39 621 l 257
 39 711 l 257
 703 711 l 257
 704 621 l 257
 639 621 l 257
 639 -49 l 257
 518 -49 l 257
 518 621 l 257
 234 621 l 257
 234 -49 l 257
 117 -49 l 257
EndSplineSet
EndChar

StartChar: q
Encoding: 113 113 385
Width: 613
VWidth: 0
Flags: HW
PickledData: "(dp1
S'org.robofab.postScriptHintData'
p2
(dp3
sS'com.typemytype.robofont.layerData'
p4
(dp5
S'b'
(dp6
S'name'
p7
S'q'
sS'lib'
p8
(dp9
sS'unicodes'
p10
(tsS'width'
p11
F1254.3
sS'contours'
p12
(tsS'components'
p13
(tsS'anchors'
p14
(tsss."
LayerCount: 2
Fore
SplineSet
299 78 m 256
 393 78 435 155 435 253 c 256
 435 350 390 425 300 425 c 256
 209 425 165 350 165 251 c 256
 165 155 206 78 299 78 c 256
430 -198 m 257
 430 53 l 257
 395 17 343 -11 285 -11 c 256
 131 -11 50 112 50 255 c 256
 50 398 136 514 287 514 c 256
 340 514 393 488 431 441 c 257
 431 501 l 257
 542 501 l 257
 539 464 538 403 538 368 c 258
 538 -198 l 257
 430 -198 l 257
EndSplineSet
EndChar

StartChar: question
Encoding: 63 63 386
Width: 504
VWidth: 0
Flags: HW
PickledData: "(dp1
S'org.robofab.postScriptHintData'
p2
(dp3
sS'com.typemytype.robofont.layerData'
p4
(dp5
S'b'
(dp6
S'name'
p7
S'question'
p8
sS'lib'
p9
(dp10
sS'unicodes'
p11
(tsS'width'
p12
F1055.9000000000001
sS'contours'
p13
(tsS'components'
p14
(tsS'anchors'
p15
(tsss."
LayerCount: 2
Fore
SplineSet
149 0 m 257
 149 123 l 257
 269 123 l 257
 269 0 l 257
 149 0 l 257
162 195 m 257
 162 263 l 258
 162 388 337 444 337 546 c 256
 337 606 289 629 229 629 c 256
 171 629 108 607 85 595 c 257
 85 690 l 257
 103 699 162 724 241 724 c 256
 356 724 451 668 451 550 c 256
 451 403 250 360 250 232 c 258
 250 195 l 257
 162 195 l 257
EndSplineSet
EndChar

StartChar: quotedbl
Encoding: 34 34 388
Width: 359
VWidth: 0
Flags: HW
PickledData: "(dp1
S'org.robofab.postScriptHintData'
p2
(dp3
sS'com.typemytype.robofont.layerData'
p4
(dp5
S'b'
(dp6
S'name'
p7
S'quotedbl'
p8
sS'lib'
p9
(dp10
sS'unicodes'
p11
(tsS'width'
p12
F785.64999999999998
sS'contours'
p13
(tsS'components'
p14
(tsS'anchors'
p15
(tsss."
LayerCount: 2
Fore
SplineSet
230 468 m 257
 207 711 l 257
 315 711 l 257
 294 468 l 257
 230 468 l 257
70 468 m 257
 46 711 l 257
 154 711 l 257
 133 468 l 257
 70 468 l 257
EndSplineSet
EndChar

StartChar: quotedblbase
Encoding: 8222 8222 389
Width: 500
VWidth: 0
Flags: HW
PickledData: "(dp1
S'org.robofab.postScriptHintData'
p2
(dp3
s."
LayerCount: 2
Fore
SplineSet
245 -110 m 257
 298 119 l 257
 419 119 l 257
 338 -110 l 257
 245 -110 l 257
55 -110 m 257
 108 119 l 257
 229 119 l 257
 151 -110 l 257
 55 -110 l 257
EndSplineSet
EndChar

StartChar: quotedblleft
Encoding: 8220 8220 390
Width: 500
VWidth: 0
Flags: HW
PickledData: "(dp1
S'org.robofab.postScriptHintData'
p2
(dp3
sS'com.typemytype.robofont.layerData'
p4
(dp5
S'b'
(dp6
S'name'
p7
S'quotedblleft'
p8
sS'lib'
p9
(dp10
sS'unicodes'
p11
(tsS'width'
p12
F1024
sS'contours'
p13
(tsS'components'
p14
(tsS'anchors'
p15
(tsss."
LayerCount: 2
Fore
SplineSet
280 425 m 257
 364 711 l 257
 456 711 l 257
 401 425 l 257
 280 425 l 257
70 425 m 257
 159 711 l 257
 250 711 l 257
 195 425 l 257
 70 425 l 257
EndSplineSet
EndChar

StartChar: quotedblright
Encoding: 8221 8221 391
Width: 500
VWidth: 0
Flags: HW
PickledData: "(dp1
S'org.robofab.postScriptHintData'
p2
(dp3
sS'com.typemytype.robofont.layerData'
p4
(dp5
S'b'
(dp6
S'name'
p7
S'quotedblright'
p8
sS'lib'
p9
(dp10
sS'unicodes'
p11
(tsS'width'
p12
F1024
sS'contours'
p13
(tsS'components'
p14
(tsS'anchors'
p15
(tsss."
LayerCount: 2
Fore
SplineSet
281 425 m 257
 335 711 l 257
 455 711 l 257
 375 425 l 257
 281 425 l 257
91 425 m 257
 144 711 l 257
 265 711 l 257
 184 425 l 257
 91 425 l 257
EndSplineSet
EndChar

StartChar: quoteleft
Encoding: 8216 8216 392
Width: 269
VWidth: 0
Flags: HW
PickledData: "(dp1
S'org.robofab.postScriptHintData'
p2
(dp3
sS'com.typemytype.robofont.layerData'
p4
(dp5
S'b'
(dp6
S'name'
p7
S'quoteleft'
p8
sS'lib'
p9
(dp10
sS'unicodes'
p11
(tsS'width'
p12
F518.5
sS'contours'
p13
(tsS'components'
p14
(tsS'anchors'
p15
(tsss."
LayerCount: 2
Fore
SplineSet
143 425 m 257
 63 711 l 257
 192 711 l 257
 213 425 l 257
 143 425 l 257
EndSplineSet
EndChar

StartChar: quoteright
Encoding: 8217 8217 393
Width: 289
VWidth: 0
Flags: HW
PickledData: "(dp1
S'org.robofab.postScriptHintData'
p2
(dp3
sS'com.typemytype.robofont.layerData'
p4
(dp5
S'b'
(dp6
S'name'
p7
S'quoteright'
p8
sS'lib'
p9
(dp10
g4
(dp11
S'b'
(dp12
g7
S'quoteleft'
p13
sg9
(dp14
sS'unicodes'
p15
(tsS'width'
p16
I494
sS'contours'
p17
(tsS'components'
p18
(tsS'anchors'
p19
(tssssg15
(tsg16
F537.25
sg17
((dp20
S'points'
p21
((dp22
S'segmentType'
p23
S'line'
p24
sS'x'
F416
sS'smooth'
p25
I00
sS'y'
F888
s(dp26
g23
S'line'
p27
sS'x'
F300
sg25
I00
sS'y'
F888
s(dp28
g23
S'line'
p29
sS'x'
F150
sg25
I00
sS'y'
F1456
s(dp30
g23
S'line'
p31
sS'x'
F360
sg25
I00
sS'y'
F1456
stp32
stp33
sg18
(tsg19
(tsss."
LayerCount: 2
Fore
SplineSet
57 426 m 257
 99 711 l 257
 226 711 l 257
 137 426 l 257
 57 426 l 257
EndSplineSet
EndChar

StartChar: quotesinglbase
Encoding: 8218 8218 394
Width: 319
VWidth: 0
Flags: HW
PickledData: "(dp1
S'org.robofab.postScriptHintData'
p2
(dp3
sS'com.typemytype.robofont.layerData'
p4
(dp5
S'b'
(dp6
S'name'
p7
S'quotesinglbase'
p8
sS'lib'
p9
(dp10
sS'unicodes'
p11
(tsS'width'
p12
F595.70000000000005
sS'contours'
p13
(tsS'components'
p14
(tsS'anchors'
p15
(tsss."
LayerCount: 2
Fore
SplineSet
73 -157 m 257
 128 119 l 257
 247 119 l 257
 167 -157 l 257
 73 -157 l 257
EndSplineSet
EndChar

StartChar: quotesingle
Encoding: 39 39 395
Width: 241
VWidth: 0
Flags: HW
PickledData: "(dp1
S'org.robofab.postScriptHintData'
p2
(dp3
sS'com.typemytype.robofont.layerData'
p4
(dp5
S'b'
(dp6
S'name'
p7
S'quotesingle'
p8
sS'lib'
p9
(dp10
sS'unicodes'
p11
(tsS'width'
p12
F507.85000000000002
sS'contours'
p13
(tsS'components'
p14
(tsS'anchors'
p15
(tsss."
LayerCount: 2
Fore
SplineSet
89 452 m 257
 70 711 l 257
 184 711 l 257
 168 452 l 257
 89 452 l 257
EndSplineSet
EndChar

StartChar: r
Encoding: 114 114 396
Width: 389
VWidth: 0
Flags: HW
PickledData: "(dp1
S'org.robofab.postScriptHintData'
p2
(dp3
sS'com.typemytype.robofont.layerData'
p4
(dp5
S'b'
(dp6
S'name'
p7
S'r'
sS'lib'
p8
(dp9
sS'unicodes'
p10
(tsS'width'
p11
F818.89999999999998
sS'contours'
p12
(tsS'components'
p13
(tsS'anchors'
p14
(tsss."
AnchorPoint: "top" 240 501 basechar 0
LayerCount: 2
Fore
SplineSet
82 0 m 257
 82 376 l 258
 82 422 74 501 74 501 c 257
 190 501 l 257
 190 430 l 257
 224 482 264 514 318 514 c 256
 334 514 351 511 369 506 c 257
 369 410 l 257
 350 416 331 420 311 420 c 256
 243 420 192 373 192 282 c 258
 192 0 l 257
 82 0 l 257
EndSplineSet
EndChar

StartChar: radical
Encoding: 8730 8730 398
Width: 641
VWidth: 0
Flags: HW
PickledData: "(dp1
S'org.robofab.postScriptHintData'
p2
(dp3
sS'com.typemytype.robofont.layerData'
p4
(dp5
s."
LayerCount: 2
Fore
SplineSet
296 -71 m 257
 144 318 l 257
 143 318 63 303 63 303 c 257
 45 381 l 257
 215 410 l 257
 332 97 l 257
 512 765 l 257
 609 765 l 257
 387 -71 l 257
 296 -71 l 257
EndSplineSet
EndChar

StartChar: registered
Encoding: 174 174 402
Width: 839
VWidth: 0
Flags: HW
PickledData: "(dp1
S'org.robofab.postScriptHintData'
p2
(dp3
sS'com.typemytype.robofont.layerData'
p4
(dp5
S'b'
(dp6
S'name'
p7
S'registered'
p8
sS'lib'
p9
(dp10
sS'unicodes'
p11
(tsS'width'
p12
F1727.05
sS'contours'
p13
(tsS'components'
p14
(tsS'anchors'
p15
(tsss."
LayerCount: 2
Fore
SplineSet
419 -11 m 256
 217 -11 52 154 52 356 c 256
 52 559 217 724 419 724 c 256
 622 724 788 559 788 356 c 256
 788 154 622 -11 419 -11 c 256
419 42 m 256
 589 42 725 185 725 355 c 256
 725 525 589 669 419 669 c 256
 249 669 114 525 114 355 c 256
 114 185 249 42 419 42 c 256
353 383 m 257
 403 383 l 258
 468 383 505 393 505 441 c 256
 505 494 488 500 408 500 c 258
 353 500 l 257
 353 383 l 257
258 140 m 257
 258 575 l 257
 407 575 l 258
 545 575 602 530 602 447 c 256
 602 396 583 346 510 328 c 257
 605 140 l 257
 500 140 l 257
 420 313 l 257
 354 313 l 257
 354 140 l 257
 258 140 l 257
EndSplineSet
EndChar

StartChar: ring
Encoding: 730 730 403
Width: 328
VWidth: 0
Flags: HW
PickledData: "(dp1
S'org.robofab.postScriptHintData'
p2
(dp3
sS'com.typemytype.robofont.layerData'
p4
(dp5
S'b'
(dp6
S'name'
p7
S'ring'
p8
sS'lib'
p9
(dp10
sS'unicodes'
p11
(tsS'width'
p12
F633.35000000000002
sS'contours'
p13
(tsS'components'
p14
(tsS'anchors'
p15
(tsss."
AnchorPoint: "top" 165 501 mark 0
AnchorPoint: "top" 162 732 basechar 0
LayerCount: 2
Fore
SplineSet
162 554 m 256
 104 554 58 597 58 655 c 256
 58 714 104 756 162 756 c 256
 219 756 266 714 266 655 c 256
 266 597 219 554 162 554 c 256
162 602 m 256
 191 602 214 626 214 655 c 256
 214 684 191 708 162 708 c 256
 134 708 110 684 110 655 c 256
 110 626 134 602 162 602 c 256
EndSplineSet
EndChar

StartChar: s
Encoding: 115 115 405
Width: 482
VWidth: 0
Flags: HW
PickledData: "(dp1
S'org.robofab.postScriptHintData'
p2
(dp3
sS'com.typemytype.robofont.layerData'
p4
(dp5
S'b'
(dp6
S'name'
p7
S's'
sS'lib'
p8
(dp9
sS'unicodes'
p10
(tsS'width'
p11
F981.89999999999998
sS'contours'
p12
((dp13
S'points'
p14
((dp15
S'segmentType'
p16
S'curve'
p17
sS'x'
F498
sS'smooth'
p18
I01
sS'y'
F-23
s(dp19
S'y'
F-23
sS'x'
F282
sg18
I00
s(dp20
S'y'
F70
sS'x'
F145
sg18
I00
s(dp21
g16
S'curve'
p22
sS'x'
F116
sg18
I00
sS'y'
F94
s(dp23
g16
S'line'
p24
sS'x'
F160
sg18
I00
sS'y'
F222
s(dp25
S'y'
F189
sS'x'
F208
sg18
I00
s(dp26
S'y'
F109
sS'x'
F348
sg18
I00
s(dp27
g16
S'curve'
p28
sS'x'
F484
sg18
I01
sS'y'
F109
s(dp29
S'y'
F109
sS'x'
F589
sg18
I00
s(dp30
S'y'
F141
sS'x'
F711
sg18
I00
s(dp31
g16
S'curve'
p32
sS'x'
F711
sg18
I01
sS'y'
F272
s(dp33
S'y'
F395
sS'x'
F711
sg18
I00
s(dp34
S'y'
F426
sS'x'
F561
sg18
I00
s(dp35
g16
S'curve'
p36
sS'x'
F412
sg18
I00
sS'y'
F474
s(dp37
S'y'
F521
sS'x'
F262
sg18
I00
s(dp38
S'y'
F585
sS'x'
F112
sg18
I00
s(dp39
g16
S'curve'
p40
sS'x'
F112
sg18
I01
sS'y'
F771
s(dp41
S'y'
F970
sS'x'
F112
sg18
I00
s(dp42
S'y'
F1051
sS'x'
F318
sg18
I00
s(dp43
g16
S'curve'
p44
sS'x'
F488
sg18
I01
sS'y'
F1051
s(dp45
S'y'
F1051
sS'x'
F715
sg18
I00
s(dp46
S'y'
F991
sS'x'
F792
sg18
I00
s(dp47
g16
S'curve'
p48
sS'x'
F832
sg18
I00
sS'y'
F966
s(dp49
g16
S'line'
p50
sS'x'
F785
sg18
I00
sS'y'
F851
s(dp51
S'y'
F858
sS'x'
F772
sg18
I00
s(dp52
S'y'
F917
sS'x'
F667
sg18
I00
s(dp53
g16
S'curve'
p54
sS'x'
F504
sg18
I01
sS'y'
F917
s(dp55
S'y'
F917
sS'x'
F355
sg18
I00
s(dp56
S'y'
F882
sS'x'
F283
sg18
I00
s(dp57
g16
S'curve'
p58
sS'x'
F283
sg18
I01
sS'y'
F774
s(dp59
S'y'
F660
sS'x'
F283
sg18
I00
s(dp60
S'y'
F629
sS'x'
F433
sg18
I00
s(dp61
g16
S'curve'
p62
sS'x'
F582
sg18
I01
sS'y'
F581
s(dp63
S'y'
F533
sS'x'
F732
sg18
I00
s(dp64
S'y'
F468
sS'x'
F881
sg18
I00
s(dp65
g16
S'curve'
p66
sS'x'
F881
sg18
I01
sS'y'
F284
s(dp67
S'y'
F62
sS'x'
F881
sg18
I00
s(dp68
S'y'
F-23
sS'x'
F685
sg18
I00
stp69
stp70
sS'components'
p71
(tsS'anchors'
p72
(tsss."
AnchorPoint: "top" 243 501 basechar 0
LayerCount: 2
Fore
SplineSet
259 -11 m 256
 161 -11 90 26 58 51 c 257
 86 131 l 257
 123 103 188 76 250 76 c 256
 300 76 337 92 337 140 c 256
 337 173 320 185 242 211 c 258
 195 228 l 258
 118 254 61 283 61 371 c 256
 61 474 151 513 244 513 c 256
 314 513 377 493 418 466 c 257
 389 390 l 257
 360 405 303 426 254 426 c 256
 198 426 168 410 168 375 c 256
 168 343 183 333 251 309 c 256
 255 308 294 294 300 292 c 256
 382 263 439 235 439 141 c 256
 439 27 344 -11 259 -11 c 256
EndSplineSet
EndChar

StartChar: section
Encoding: 167 167 412
Width: 532
VWidth: 0
Flags: HW
PickledData: "(dp1
S'org.robofab.postScriptHintData'
p2
(dp3
sS'com.typemytype.robofont.layerData'
p4
(dp5
S'b'
(dp6
S'name'
p7
S'section'
p8
sS'lib'
p9
(dp10
sS'unicodes'
p11
(tsS'width'
p12
F1071.6500000000001
sS'contours'
p13
(tsS'components'
p14
(tsS'anchors'
p15
(tsss."
LayerCount: 2
Fore
SplineSet
308 275 m 257
 323 289 339 310 339 337 c 256
 339 381 297 394 242 420 c 257
 227 411 196 387 196 357 c 256
 196 319 238 306 308 275 c 257
251 -33 m 256
 200 -33 145 -23 95 -4 c 257
 95 87 l 257
 144 66 200 55 245 55 c 256
 299 55 337 77 337 119 c 256
 337 149 300 165 192 216 c 256
 128 246 87 290 87 348 c 256
 87 396 122 439 165 464 c 257
 125 493 99 527 99 580 c 256
 99 678 185 723 288 723 c 256
 333 723 379 717 424 702 c 257
 424 618 l 257
 392 627 346 642 304 642 c 256
 256 642 213 624 213 585 c 256
 213 553 252 526 324 493 c 257
 395 458 456 423 456 353 c 256
 456 305 425 265 383 234 c 257
 424 211 452 175 452 122 c 256
 452 18 360 -33 251 -33 c 256
EndSplineSet
EndChar

StartChar: semicolon
Encoding: 59 59 413
Width: 264
VWidth: 0
Flags: HW
PickledData: "(dp1
S'org.robofab.postScriptHintData'
p2
(dp3
sS'com.typemytype.robofont.layerData'
p4
(dp5
s."
LayerCount: 2
Fore
SplineSet
86 419 m 257
 86 542 l 257
 205 542 l 257
 205 419 l 257
 86 419 l 257
38 -123 m 257
 91 122 l 257
 215 122 l 257
 130 -123 l 257
 38 -123 l 257
EndSplineSet
EndChar

StartChar: seven
Encoding: 55 55 414
Width: 613
VWidth: 0
Flags: HW
PickledData: "(dp1
S'org.robofab.postScriptHintData'
p2
(dp3
sS'com.typemytype.robofont.layerData'
p4
(dp5
s."
LayerCount: 2
Fore
SplineSet
162 0 m 257
 421 618 l 257
 77 618 l 257
 77 711 l 257
 550 711 l 257
 550 626 l 257
 282 0 l 257
 162 0 l 257
EndSplineSet
EndChar

StartChar: six
Encoding: 54 54 415
Width: 613
VWidth: 0
Flags: HW
PickledData: "(dp1
S'org.robofab.postScriptHintData'
p2
(dp3
sS'com.typemytype.robofont.layerData'
p4
(dp5
s."
LayerCount: 2
Fore
SplineSet
328 85 m 256
 405 85 453 147 453 229 c 256
 453 311 413 374 332 374 c 256
 250 374 197 315 197 235 c 256
 197 141 257 85 328 85 c 256
330 -11 m 256
 156 -11 72 131 72 340 c 256
 72 551 167 724 355 724 c 256
 427 724 488 703 530 664 c 257
 493 580 l 257
 453 612 407 628 356 628 c 256
 252 628 196 518 190 386 c 257
 227 440 280 466 343 466 c 256
 478 466 569 374 569 230 c 256
 569 93 477 -11 330 -11 c 256
EndSplineSet
EndChar

StartChar: slash
Encoding: 47 47 416
Width: 409
VWidth: 0
Flags: HW
PickledData: "(dp1
S'org.robofab.postScriptHintData'
p2
(dp3
sS'com.typemytype.robofont.layerData'
p4
(dp5
s."
LayerCount: 2
Fore
SplineSet
17 -49 m 257
 307 711 l 257
 406 711 l 257
 114 -49 l 257
 17 -49 l 257
EndSplineSet
EndChar

StartChar: uni00AD
Encoding: 173 173 418
Width: 350
VWidth: 0
Flags: HW
PickledData: "(dp1
S'org.robofab.postScriptHintData'
p2
(dp3
s."
LayerCount: 2
Fore
SplineSet
28 229 m 257
 28 313 l 257
 322 313 l 257
 322 229 l 257
 28 229 l 257
EndSplineSet
EndChar

StartChar: sterling
Encoding: 163 163 420
Width: 603
VWidth: 0
Flags: HW
PickledData: "(dp1
S'org.robofab.postScriptHintData'
p2
(dp3
sS'com.typemytype.robofont.layerData'
p4
(dp5
S'b'
(dp6
S'name'
p7
S'sterling'
p8
sS'lib'
p9
(dp10
sS'unicodes'
p11
(tsS'width'
p12
F1207.3
sS'contours'
p13
(tsS'components'
p14
(tsS'anchors'
p15
(tsss."
LayerCount: 2
Fore
SplineSet
402 634 m 256
 312 634 274 585 274 469 c 258
 274 407 l 257
 444 407 l 257
 444 329 l 257
 274 329 l 257
 274 296 l 258
 274 199 249 128 220 91 c 257
 541 91 l 257
 541 0 l 257
 74 0 l 257
 74 84 l 257
 117 120 165 169 165 298 c 258
 165 329 l 257
 73 329 l 257
 73 407 l 257
 163 407 l 257
 163 444 l 258
 163 598 205 724 393 724 c 256
 458 724 504 711 543 688 c 257
 515 604 l 257
 482 620 448 634 402 634 c 256
EndSplineSet
EndChar

StartChar: summation
Encoding: 8721 8721 421
Width: 603
VWidth: 0
Flags: HW
PickledData: "(dp1
S'org.robofab.postScriptHintData'
p2
(dp3
sS'com.typemytype.robofont.layerData'
p4
(dp5
S'b'
(dp6
S'name'
p7
S'summation'
p8
sS'lib'
p9
(dp10
sS'unicodes'
p11
(tsS'width'
p12
F1198.3
sS'contours'
p13
(tsS'components'
p14
(tsS'anchors'
p15
(tsss."
LayerCount: 2
Fore
SplineSet
56 -87 m 257
 56 -29 l 257
 302 315 l 257
 66 654 l 257
 66 711 l 257
 541 711 l 257
 541 622 l 257
 215 622 l 257
 428 317 l 257
 206 4 l 257
 562 4 l 257
 562 -87 l 257
 56 -87 l 257
EndSplineSet
EndChar

StartChar: t
Encoding: 116 116 422
Width: 400
VWidth: 0
Flags: HW
PickledData: "(dp1
S'org.robofab.postScriptHintData'
p2
(dp3
sS'com.typemytype.robofont.layerData'
p4
(dp5
S'b'
(dp6
S'name'
p7
S't'
sS'lib'
p8
(dp9
sS'unicodes'
p10
(tsS'width'
p11
F763.89999999999998
sS'contours'
p12
(tsS'components'
p13
(tsS'anchors'
p14
(tsss."
AnchorPoint: "top" 171 645 basechar 0
AnchorPoint: "caron.alt" 125 643 basechar 0
LayerCount: 2
Fore
SplineSet
358 0 m 257
 312 0 l 258
 178 0 111 29 111 180 c 258
 111 428 l 257
 11 428 l 257
 11 501 l 257
 114 501 l 257
 114 623 l 257
 220 655 l 257
 220 501 l 257
 356 501 l 257
 356 428 l 257
 220 428 l 257
 220 173 l 258
 220 93 246 84 358 84 c 257
 358 0 l 257
EndSplineSet
EndChar

StartChar: thorn
Encoding: 254 254 427
Width: 601
VWidth: 0
Flags: HW
PickledData: "(dp1
S'org.robofab.postScriptHintData'
p2
(dp3
sS'com.typemytype.robofont.layerData'
p4
(dp5
s."
LayerCount: 2
Fore
SplineSet
306 77 m 256
 399 77 438 161 438 254 c 256
 438 342 406 424 309 424 c 256
 209 424 175 337 175 241 c 256
 175 146 220 77 306 77 c 256
71 -198 m 257
 71 714 l 257
 177 714 l 257
 176 447 l 257
 205 488 268 513 320 513 c 256
 476 513 553 394 553 256 c 256
 553 117 476 -11 320 -11 c 256
 264 -11 208 10 176 47 c 257
 175 -198 l 257
 71 -198 l 257
EndSplineSet
EndChar

StartChar: three
Encoding: 51 51 428
Width: 613
VWidth: 0
Flags: HW
PickledData: "(dp1
S'org.robofab.postScriptHintData'
p2
(dp3
sS'com.typemytype.robofont.layerData'
p4
(dp5
S'b'
(dp6
S'name'
p7
S'three'
p8
sS'lib'
p9
(dp10
sS'unicodes'
p11
(tsS'width'
p12
F1234.0999999999999
sS'contours'
p13
((dp14
S'points'
p15
((dp16
S'segmentType'
p17
S'curve'
p18
sS'x'
F344
sS'smooth'
p19
I01
sS'y'
F1010
s(dp20
S'y'
F827
sS'x'
F344
sg19
I00
s(dp21
S'y'
F687
sS'x'
F423
sg19
I00
s(dp22
g17
S'curve'
p23
sS'x'
F634
sg19
I01
sS'y'
F687
s(dp24
S'y'
F687
sS'x'
F814
sg19
I00
s(dp25
S'y'
F803
sS'x'
F938
sg19
I00
s(dp26
g17
S'curve'
p27
sS'x'
F938
sg19
I01
sS'y'
F991
s(dp28
S'y'
F1166
sS'x'
F938
sg19
I00
s(dp29
S'y'
F1334
sS'x'
F845
sg19
I00
s(dp30
g17
S'curve'
p31
sS'x'
F635
sg19
I01
sS'y'
F1334
s(dp32
S'y'
F1334
sS'x'
F449
sg19
I00
s(dp33
S'y'
F1196
sS'x'
F344
sg19
I00
stp34
s(dp35
g15
((dp36
g17
S'curve'
p37
sS'x'
F594
sg19
I01
sS'y'
F-24
s(dp38
S'y'
F-24
sS'x'
F473
sg19
I00
s(dp39
S'y'
F-1
sS'x'
F367
sg19
I00
s(dp40
g17
S'curve'
p41
sS'x'
F238
sg19
I00
sS'y'
F65
s(dp42
g17
S'line'
p43
sS'x'
F287
sg19
I00
sS'y'
F197
s(dp44
S'y'
F138
sS'x'
F401
sg19
I00
s(dp45
S'y'
F124
sS'x'
F489
sg19
I00
s(dp46
g17
S'curve'
p47
sS'x'
F581
sg19
I01
sS'y'
F124
s(dp48
S'y'
F124
sS'x'
F812
sg19
I00
s(dp49
S'y'
F308
sS'x'
F950
sg19
I00
s(dp50
g17
S'curve'
p51
sS'x'
F950
sg19
I01
sS'y'
F657
s(dp52
g17
S'line'
p53
sS'x'
F950
sg19
I00
sS'y'
F722
s(dp54
S'y'
F600
sS'x'
F886
sg19
I00
s(dp55
S'y'
F544
sS'x'
F772
sg19
I00
s(dp56
g17
S'curve'
p57
sS'x'
F607
sg19
I01
sS'y'
F544
s(dp58
S'y'
F544
sS'x'
F328
sg19
I00
s(dp59
S'y'
F735
sS'x'
F168
sg19
I00
s(dp60
g17
S'curve'
p61
sS'x'
F168
sg19
I01
sS'y'
F1004
s(dp62
S'y'
F1275
sS'x'
F168
sg19
I00
s(dp63
S'y'
F1483
sS'x'
F341
sg19
I00
s(dp64
g17
S'curve'
p65
sS'x'
F643
sg19
I01
sS'y'
F1483
s(dp66
S'y'
F1483
sS'x'
F969
sg19
I00
s(dp67
S'y'
F1231
sS'x'
F1125
sg19
I00
s(dp68
g17
S'curve'
p69
sS'x'
F1125
sg19
I01
sS'y'
F774
s(dp70
S'y'
F203
sS'x'
F1125
sg19
I00
s(dp71
S'y'
F-24
sS'x'
F894
sg19
I00
stp72
stp73
sS'components'
p74
(tsS'anchors'
p75
(tsss."
LayerCount: 2
Fore
SplineSet
296 -11 m 256
 162 -11 85 44 83 45 c 257
 117 130 l 257
 122 128 198 85 281 85 c 256
 371 85 424 130 424 204 c 256
 424 287 351 324 240 324 c 258
 229 324 l 257
 197 323 l 257
 196 418 l 257
 229 418 l 258
 350 418 405 447 405 538 c 256
 405 600 340 628 276 628 c 256
 195 628 147 591 120 572 c 257
 70 651 l 257
 133 700 187 724 291 724 c 256
 406 724 518 664 518 540 c 256
 518 464 476 391 386 374 c 257
 481 356 534 287 534 200 c 256
 534 68 425 -11 296 -11 c 256
EndSplineSet
EndChar

StartChar: threequarters
Encoding: 190 190 429
Width: 1160
VWidth: 0
Flags: HW
PickledData: "(dp1
S'org.robofab.postScriptHintData'
p2
(dp3
sS'com.typemytype.robofont.layerData'
p4
(dp5
s."
LayerCount: 2
Fore
SplineSet
709 156 m 257
 810 156 l 257
 810 297 l 257
 709 156 l 257
292 0 m 257
 727 711 l 257
 822 711 l 257
 388 0 l 257
 292 0 l 257
811 0 m 257
 811 94 l 257
 629 94 l 257
 629 146 l 257
 809 395 l 257
 891 395 l 257
 891 156 l 257
 948 156 l 257
 948 94 l 257
 891 94 l 257
 891 0 l 257
 811 0 l 257
250 294 m 256
 201 294 151 310 112 340 c 257
 142 397 l 257
 181 372 215 360 244 360 c 256
 287 360 314 387 314 424 c 256
 314 459 282 480 229 480 c 258
 189 480 l 257
 189 544 l 257
 228 544 l 258
 272 544 304 565 304 597 c 256
 304 631 278 649 241 649 c 256
 210 649 173 637 137 615 c 257
 108 669 l 257
 151 697 204 713 253 713 c 256
 324 713 385 678 385 606 c 256
 385 574 369 538 315 520 c 257
 375 503 398 464 398 423 c 256
 398 336 329 294 250 294 c 256
EndSplineSet
EndChar

StartChar: uni00B3
Encoding: 179 179 430
Width: 500
VWidth: 0
Flags: HW
PickledData: "(dp1
S'org.robofab.postScriptHintData'
p2
(dp3
sS'com.typemytype.robofont.layerData'
p4
(dp5
s."
LayerCount: 2
Fore
SplineSet
266 294 m 256
 217 294 166 310 128 340 c 257
 158 398 l 257
 196 372 231 360 260 360 c 256
 304 360 331 385 331 423 c 256
 331 460 298 480 244 480 c 258
 205 480 l 257
 205 545 l 257
 242 545 l 258
 287 545 320 563 320 596 c 256
 320 631 295 647 258 647 c 256
 226 647 189 635 154 613 c 257
 125 668 l 257
 167 696 221 712 269 712 c 256
 340 712 399 677 399 605 c 256
 399 572 386 535 329 518 c 257
 390 503 413 462 413 421 c 256
 413 336 345 294 266 294 c 256
EndSplineSet
EndChar

StartChar: tilde
Encoding: 732 732 431
Width: 347
VWidth: 0
Flags: HW
PickledData: "(dp1
S'org.robofab.postScriptHintData'
p2
(dp3
sS'com.typemytype.robofont.layerData'
p4
(dp5
S'b'
(dp6
S'name'
p7
S'tilde'
p8
sS'lib'
p9
(dp10
sS'unicodes'
p11
(tsS'width'
p12
F672.35000000000002
sS'contours'
p13
(tsS'components'
p14
(tsS'anchors'
p15
(tsss."
AnchorPoint: "top" 191 501 mark 0
LayerCount: 2
Fore
SplineSet
246 569 m 256
 201 569 137 621 105 621 c 256
 89 621 74 607 71 572 c 257
 1 572 l 257
 1 651 41 704 101 704 c 256
 159 704 209 653 245 653 c 256
 263 653 274 664 274 704 c 257
 347 704 l 257
 347 616 308 569 246 569 c 256
EndSplineSet
EndChar

StartChar: trademark
Encoding: 8482 8482 432
Width: 912
VWidth: 0
Flags: HW
PickledData: "(dp1
S'org.robofab.postScriptHintData'
p2
(dp3
sS'com.typemytype.robofont.layerData'
p4
(dp5
S'b'
(dp6
S'name'
p7
S'trademark'
p8
sS'lib'
p9
(dp10
sS'unicodes'
p11
(tsS'width'
p12
F1869
sS'contours'
p13
(tsS'components'
p14
(tsS'anchors'
p15
(tsss."
LayerCount: 2
Fore
SplineSet
148 321 m 257
 148 628 l 257
 36 628 l 257
 36 701 l 257
 345 701 l 257
 345 628 l 257
 233 628 l 257
 233 321 l 257
 148 321 l 257
400 321 m 257
 400 701 l 257
 497 701 l 257
 613 441 l 257
 730 701 l 257
 826 701 l 257
 826 321 l 257
 745 321 l 257
 745 567 l 257
 639 321 l 257
 586 321 l 257
 479 562 l 257
 479 321 l 257
 400 321 l 257
EndSplineSet
EndChar

StartChar: two
Encoding: 50 50 433
Width: 613
VWidth: 0
Flags: HW
PickledData: "(dp1
S'org.robofab.postScriptHintData'
p2
(dp3
sS'com.typemytype.robofont.layerData'
p4
(dp5
S'b'
(dp6
S'name'
p7
S'two'
p8
sS'lib'
p9
(dp10
sS'unicodes'
p11
(tsS'width'
p12
F1244.5
sS'contours'
p13
(tsS'components'
p14
(tsS'anchors'
p15
(tsss."
LayerCount: 2
Fore
SplineSet
294 723 m 256
 420 723 512 642 512 500 c 256
 512 395 454 321 377 241 c 258
 234 93 l 257
 508 93 l 257
 508 0 l 257
 97 0 l 257
 97 84 l 257
 306 307 l 258
 374 380 404 428 404 493 c 256
 404 582 357 628 285 628 c 256
 194 628 107 565 107 565 c 258
 70 654 l 257
 70 654 160 723 294 723 c 256
EndSplineSet
EndChar

StartChar: uni00B2
Encoding: 178 178 434
Width: 546
VWidth: 0
Flags: HW
PickledData: "(dp1
S'org.robofab.postScriptHintData'
p2
(dp3
sS'com.typemytype.robofont.layerData'
p4
(dp5
s."
LayerCount: 2
Fore
SplineSet
141 300 m 257
 141 369 l 257
 271 487 l 258
 322 534 339 566 339 591 c 256
 339 623 316 638 282 638 c 256
 246 638 204 620 172 593 c 257
 138 657 l 257
 178 693 233 713 287 713 c 256
 363 713 426 674 426 592 c 256
 426 533 380 481 323 431 c 258
 259 375 l 257
 421 375 l 257
 421 300 l 257
 141 300 l 257
EndSplineSet
EndChar

StartChar: u
Encoding: 117 117 435
Width: 588
VWidth: 0
Flags: HW
PickledData: "(dp1
S'org.robofab.postScriptHintData'
p2
(dp3
sS'com.typemytype.robofont.layerData'
p4
(dp5
S'b'
(dp6
S'name'
p7
S'u'
sS'lib'
p8
(dp9
sS'unicodes'
p10
(tsS'width'
p11
F1227.2
sS'contours'
p12
(tsS'components'
p13
(tsS'anchors'
p14
(tsss."
AnchorPoint: "top" 293 501 basechar 0
LayerCount: 2
Fore
SplineSet
263 -11 m 256
 133 -11 69 72 69 187 c 258
 69 501 l 257
 178 501 l 257
 178 188 l 258
 178 113 218 78 284 78 c 256
 362 78 403 119 403 202 c 258
 403 501 l 257
 512 501 l 257
 512 131 l 258
 512 100 517 7 517 0 c 257
 405 0 l 257
 403 76 l 257
 389 44 348 -11 263 -11 c 256
EndSplineSet
EndChar

StartChar: underscore
Encoding: 95 95 446
Width: 480
VWidth: 0
Flags: HW
PickledData: "(dp1
S'org.robofab.postScriptHintData'
p2
(dp3
sS'com.typemytype.robofont.layerData'
p4
(dp5
s."
LayerCount: 2
Fore
SplineSet
-5 -127 m 257
 -5 -41 l 257
 486 -41 l 257
 486 -127 l 257
 -5 -127 l 257
EndSplineSet
EndChar

StartChar: uni0307
Encoding: 775 775 459
Width: 255
VWidth: 0
Flags: HW
PickledData: "(dp1
S'org.robofab.postScriptHintData'
p2
(dp3
s."
AnchorPoint: "top" 129 501 mark 0
LayerCount: 2
Fore
SplineSet
75 596 m 257
 75 696 l 257
 181 696 l 257
 181 596 l 257
 75 596 l 257
EndSplineSet
EndChar

StartChar: uni030F
Encoding: 783 783 460
Width: 473
VWidth: 0
Flags: HW
PickledData: "(dp1
S'org.robofab.postScriptHintData'
p2
(dp3
s."
AnchorPoint: "top" 303 501 mark 0
LayerCount: 2
Fore
SplineSet
343 571 m 257
 200 757 l 257
 317 757 l 257
 420 571 l 257
 343 571 l 257
178 571 m 257
 16 757 l 257
 137 757 l 257
 257 571 l 257
 178 571 l 257
EndSplineSet
EndChar

StartChar: uni0311
Encoding: 785 785 461
Width: 307
VWidth: 0
Flags: HW
PickledData: "(dp1
S'org.robofab.postScriptHintData'
p2
(dp3
sS'com.typemytype.robofont.layerData'
p4
(dp5
s."
AnchorPoint: "top" 154 501 mark 0
LayerCount: 2
Fore
SplineSet
9 573 m 257
 16 661 73 703 153 703 c 256
 233 703 291 661 298 573 c 257
 229 573 l 257
 223 617 186 632 154 632 c 256
 121 632 84 617 79 573 c 257
 9 573 l 257
EndSplineSet
EndChar

StartChar: uni0312
Encoding: 786 786 462
Width: 292
VWidth: 0
Flags: HW
PickledData: "(dp1
S'org.robofab.postScriptHintData'
p2
(dp3
s."
AnchorPoint: "top" 142 501 mark 0
LayerCount: 2
Fore
SplineSet
266 832 m 257
 212 587 l 257
 89 587 l 257
 174 832 l 257
 266 832 l 257
EndSplineSet
EndChar

StartChar: uni0326
Encoding: 806 806 463
Width: 263
VWidth: 0
Flags: HW
PickledData: "(dp1
S'org.robofab.postScriptHintData'
p2
(dp3
s."
LayerCount: 2
Fore
SplineSet
43 -308 m 257
 97 -67 l 257
 221 -67 l 257
 135 -308 l 257
 43 -308 l 257
EndSplineSet
EndChar

StartChar: afii00208
Encoding: 8213 8213 464
Width: 2000
VWidth: 0
Flags: HW
PickledData: "(dp1
S'org.robofab.postScriptHintData'
p2
(dp3
s."
LayerCount: 2
Fore
SplineSet
28 226 m 257
 28 311 l 257
 1972 311 l 257
 1972 226 l 257
 28 226 l 257
EndSplineSet
EndChar

StartChar: v
Encoding: 118 118 469
Width: 538
VWidth: 0
Flags: HW
PickledData: "(dp1
S'org.robofab.postScriptHintData'
p2
(dp3
sS'com.typemytype.robofont.layerData'
p4
(dp5
S'b'
(dp6
S'name'
p7
S'v'
sS'lib'
p8
(dp9
sS'unicodes'
p10
(tsS'width'
p11
F1056.8
sS'contours'
p12
(tsS'components'
p13
(tsS'anchors'
p14
(tsss."
LayerCount: 2
Fore
SplineSet
218 0 m 257
 7 501 l 257
 128 501 l 257
 273 119 l 257
 318 248 367 374 413 501 c 257
 530 501 l 257
 319 0 l 257
 218 0 l 257
EndSplineSet
EndChar

StartChar: w
Encoding: 119 119 470
Width: 814
VWidth: 0
Flags: HW
PickledData: "(dp1
S'org.robofab.postScriptHintData'
p2
(dp3
sS'com.typemytype.robofont.layerData'
p4
(dp5
S'b'
(dp6
S'name'
p7
S'w'
sS'lib'
p8
(dp9
sS'unicodes'
p10
(tsS'width'
p11
F1634.0999999999999
sS'contours'
p12
(tsS'components'
p13
(tsS'anchors'
p14
(tsss."
AnchorPoint: "top" 419 501 basechar 0
LayerCount: 2
Fore
SplineSet
187 0 m 257
 11 501 l 257
 127 501 l 257
 166 378 204 255 243 132 c 257
 285 255 325 378 367 501 c 257
 466 501 l 257
 506 378 544 254 584 131 c 257
 623 255 662 378 701 501 c 257
 804 501 l 257
 623 0 l 257
 529 0 l 257
 489 120 448 239 409 360 c 257
 367 240 323 120 281 0 c 257
 187 0 l 257
EndSplineSet
EndChar

StartChar: x
Encoding: 120 120 475
Width: 511
VWidth: 0
Flags: HW
PickledData: "(dp1
S'org.robofab.postScriptHintData'
p2
(dp3
sS'com.fontlab.hintData'
p4
(dp5
S'hhints'
p6
((dp7
S'position'
p8
I0
sS'width'
p9
I21
s(dp10
g8
I1006
sg9
I20
stp11
ssS'com.typemytype.robofont.layerData'
p12
(dp13
S'b'
(dp14
S'name'
p15
S'x'
sS'lib'
p16
(dp17
sS'unicodes'
p18
(tsg9
F1062.8499999999999
sS'contours'
p19
(tsS'components'
p20
(tsS'anchors'
p21
(tsss."
HStem: 0 10<14 14 14 129 378 378 378 498> 491 10<23 144 144 144 382 496 496 496>
LayerCount: 2
Fore
SplineSet
14 0 m 257
 196 246 l 257
 23 501 l 257
 144 501 l 257
 257 330 l 257
 382 501 l 257
 496 501 l 257
 318 259 l 257
 498 0 l 257
 378 0 l 257
 257 175 l 257
 129 0 l 257
 14 0 l 257
EndSplineSet
EndChar

StartChar: y
Encoding: 121 121 476
Width: 536
VWidth: 0
Flags: HW
PickledData: "(dp1
S'org.robofab.postScriptHintData'
p2
(dp3
sS'com.typemytype.robofont.layerData'
p4
(dp5
S'b'
(dp6
S'name'
p7
S'y'
sS'lib'
p8
(dp9
sS'unicodes'
p10
(tsS'width'
p11
F1065.05
sS'contours'
p12
(tsS'components'
p13
(tsS'anchors'
p14
(tsss."
AnchorPoint: "top" 281 501 basechar 0
LayerCount: 2
Fore
SplineSet
115 -215 m 257
 69 -141 l 257
 161 -107 203 -66 219 -15 c 257
 226 9 l 257
 17 501 l 257
 130 501 l 257
 279 126 l 257
 412 501 l 257
 522 501 l 257
 319 -27 l 258
 279 -130 201 -190 115 -215 c 257
EndSplineSet
EndChar

StartChar: yen
Encoding: 165 165 480
Width: 614
VWidth: 0
Flags: HW
PickledData: "(dp1
S'org.robofab.postScriptHintData'
p2
(dp3
sS'com.typemytype.robofont.layerData'
p4
(dp5
S'b'
(dp6
S'name'
p7
S'yen'
p8
sS'lib'
p9
(dp10
sS'unicodes'
p11
(tsS'width'
p12
F1225.45
sS'contours'
p13
(tsS'components'
p14
(tsS'anchors'
p15
(tsss."
LayerCount: 2
Fore
SplineSet
248 0 m 257
 360 0 l 257
 360 131 l 257
 538 131 l 257
 538 204 l 257
 360 204 l 257
 360 268 l 257
 537 268 l 257
 537 343 l 257
 398 343 l 257
 616 711 l 257
 487 711 l 257
 306 376 l 257
 125 711 l 257
 -2 711 l 257
 209 343 l 257
 78 343 l 257
 78 268 l 257
 248 268 l 257
 248 204 l 257
 78 204 l 257
 78 131 l 257
 248 131 l 257
 248 0 l 257
EndSplineSet
EndChar

StartChar: z
Encoding: 122 122 484
Width: 481
VWidth: 0
Flags: HW
PickledData: "(dp1
S'org.robofab.postScriptHintData'
p2
(dp3
sS'com.typemytype.robofont.layerData'
p4
(dp5
S'b'
(dp6
S'name'
p7
S'z'
sS'lib'
p8
(dp9
sS'unicodes'
p10
(tsS'width'
p11
F971.85000000000002
sS'contours'
p12
(tsS'components'
p13
(tsS'anchors'
p14
(tsss."
AnchorPoint: "top" 261 501 basechar 0
LayerCount: 2
Fore
SplineSet
50 0 m 257
 50 58 l 257
 293 413 l 257
 60 413 l 257
 60 501 l 257
 435 501 l 257
 435 444 l 257
 191 87 l 257
 447 87 l 257
 447 0 l 257
 50 0 l 257
EndSplineSet
EndChar

StartChar: zero
Encoding: 48 48 488
Width: 613
VWidth: 0
Flags: HW
PickledData: "(dp1
S'org.robofab.postScriptHintData'
p2
(dp3
sS'com.typemytype.robofont.layerData'
p4
(dp5
s."
LayerCount: 2
Fore
SplineSet
308 -11 m 256
 147 -11 61 140 61 360 c 256
 61 588 146 724 309 724 c 256
 472 724 553 582 553 360 c 256
 553 140 472 -11 308 -11 c 256
310 85 m 256
 407 85 437 201 437 359 c 256
 437 502 407 628 309 628 c 256
 209 628 176 503 176 360 c 256
 176 201 209 85 310 85 c 256
EndSplineSet
EndChar

StartChar: mu
Encoding: 181 181 493
Width: 587
VWidth: 0
Flags: HW
LayerCount: 2
Fore
SplineSet
178 -118 m 257
 68 -118 l 257
 68 501 l 257
 176 501 l 257
 177 206 l 258
 177 122 209 77 280 77 c 256
 357 77 401 114 401 205 c 258
 401 501 l 257
 511 501 l 257
 511 128 l 258
 511 86 513 34 517 0 c 257
 404 0 l 257
 402 76 l 257
 380 24 327 -11 263 -11 c 256
 230 -11 199 -4 178 10 c 257
 178 -118 l 257
EndSplineSet
EndChar

StartChar: uni0358
Encoding: 856 856 494
Width: 255
VWidth: 0
Flags: HW
AnchorPoint: "top" 129 501 mark 0
LayerCount: 2
Fore
SplineSet
75 596 m 257
 75 696 l 257
 181 696 l 257
 181 596 l 257
 75 596 l 257
EndSplineSet
EndChar

StartChar: emptyset
Encoding: 8709 8709 495
Width: 819
VWidth: 0
Flags: HW
LayerCount: 2
Fore
SplineSet
40 358 m 256
 40 570 216 734 406 734 c 256
 490 734 571 701 635 648 c 257
 721 745 l 257
 763 713 l 257
 673 613 l 257
 734 547 772 458 772 358 c 256
 772 146 596 -18 406 -18 c 256
 324 -18 245 13 182 64 c 257
 88 -42 l 257
 50 -8 l 257
 144 98 l 257
 80 165 40 256 40 358 c 256
215 101 m 257
 270 57 337 33 406 33 c 256
 569 33 722 175 722 358 c 256
 722 443 690 518 639 575 c 257
 215 101 l 257
178 136 m 257
 602 611 l 257
 546 657 477 683 406 683 c 256
 243 683 90 541 90 358 c 256
 90 271 125 193 178 136 c 257
EndSplineSet
EndChar

StartChar: uni03BC
Encoding: 956 956 496
Width: 596
VWidth: 0
Flags: HW
LayerCount: 2
Fore
SplineSet
399 135 m 257
 381 112 349 79 288 79 c 256
 224 79 197 118 197 210 c 258
 197 528 l 257
 65 528 l 257
 65 -150 l 257
 197 -150 l 257
 197 -4 l 257
 213 -8 231 -10 250 -10 c 256
 330 -10 380 26 411 72 c 257
 418 0 l 257
 532 0 l 257
 532 528 l 257
 399 528 l 257
 399 135 l 257
EndSplineSet
EndChar

StartChar: Sigma
Encoding: 931 931 497
Width: 603
VWidth: 0
Flags: HW
LayerCount: 2
Fore
SplineSet
56 -87 m 257
 56 -29 l 257
 302 315 l 257
 66 654 l 257
 66 711 l 257
 541 711 l 257
 541 622 l 257
 215 622 l 257
 428 317 l 257
 206 4 l 257
 562 4 l 257
 562 -87 l 257
 56 -87 l 257
EndSplineSet
EndChar

StartChar: uni02C9
Encoding: 713 713 498
Width: 292
VWidth: 0
Flags: HW
AnchorPoint: "top" 146 524 mark 0
LayerCount: 2
Fore
SplineSet
-19 651 m 257
 306 651 l 257
 306 727 l 257
 -19 727 l 257
 -19 651 l 257
EndSplineSet
EndChar
